<?xml version="1.0" encoding="utf-8"?>
<!-- Generator: Adobe Illustrator 16.0.0, SVG Export Plug-In . SVG Version: 6.00 Build 0)  -->
<!DOCTYPE svg PUBLIC "-//W3C//DTD SVG 1.1//EN" "http://www.w3.org/Graphics/SVG/1.1/DTD/svg11.dtd">
<svg version="1.1" id="Layer_1" xmlns="http://www.w3.org/2000/svg" xmlns:xlink="http://www.w3.org/1999/xlink" x="0px" y="0px"
	 width="566.929px" height="566.929px" viewBox="0 0 566.929 566.929" enable-background="new 0 0 566.929 566.929"
	 xml:space="preserve">
<g>
	<g>
		<path fill="#9FCA3B" d="M184.32,306.215h-61.009v-76.262h61.009V306.215z M138.566,290.963h30.504v-45.757h-30.504V290.963z"/>
		<path fill="#394F61" d="M184.32,397.732h-61.009v-76.264h61.009V397.732z M138.566,382.478h30.504v-45.756h-30.504V382.478z"/>
		<path fill="#9FCA3B" d="M184.32,489.247h-61.009v-76.262h61.009V489.247z M138.566,473.996h30.504v-45.759h-30.504V473.996z"/>
		<path fill="#394F61" d="M342.531,268.084h-11.367c-9.48,0-17.194-7.716-17.194-17.195v-26.618c0-1.071-0.872-1.943-1.944-1.943
			h-41.871c-9.481,0-17.196-7.716-17.196-17.195v-11.366c0-9.481,7.714-17.195,17.196-17.195h72.377
			c9.479,0,17.193,7.714,17.193,17.195v57.123C359.725,260.368,352.011,268.084,342.531,268.084z M270.154,191.822
			c-1.073,0-1.943,0.871-1.943,1.943v11.366c0,1.071,0.871,1.943,1.943,1.943h41.871c9.48,0,17.195,7.714,17.195,17.195v26.618
			c0,1.072,0.872,1.943,1.943,1.943h11.367c1.07,0,1.941-0.871,1.941-1.943v-57.123c0-1.072-0.871-1.943-1.941-1.943H270.154z"/>
		<path fill="#394F61" d="M291.09,268.084c-4.217,0-7.628-3.414-7.628-7.624v-45.759c0-4.212,3.411-7.626,7.628-7.626
			c4.213,0,7.627,3.414,7.627,7.626v45.759C298.717,264.67,295.303,268.084,291.09,268.084z"/>
		<path fill="#394F61" d="M321.596,191.822c-4.217,0-7.626-3.414-7.626-7.626v-30.505c0-4.212,3.409-7.628,7.626-7.628
			c4.214,0,7.625,3.416,7.625,7.628v30.505C329.221,188.408,325.81,191.822,321.596,191.822z"/>
		<path fill="#394F61" d="M291.09,191.822c-4.217,0-7.628-3.414-7.628-7.626v-30.505c0-4.212,3.411-7.628,7.628-7.628
			c4.213,0,7.627,3.416,7.627,7.628v30.505C298.717,188.408,295.303,191.822,291.09,191.822z"/>
		<path fill="#394F61" d="M329.221,382.478c-4.214,0-7.625-3.408-7.625-7.624v-68.639c0-4.21,3.411-7.624,7.625-7.624
			c4.217,0,7.626,3.414,7.626,7.624v68.639C336.847,379.069,333.438,382.478,329.221,382.478z"/>
		<path fill="#394F61" d="M329.221,481.622c-4.214,0-7.625-3.411-7.625-7.626v-68.639c0-4.215,3.411-7.625,7.625-7.625
			c4.217,0,7.626,3.41,7.626,7.625v68.639C336.847,478.211,333.438,481.622,329.221,481.622z"/>
		<path fill="#394F61" d="M291.09,321.469c-4.217,0-7.628-3.414-7.628-7.626v-7.628c0-4.21,3.411-7.624,7.628-7.624
			c4.213,0,7.627,3.414,7.627,7.624v7.628C298.717,318.055,295.303,321.469,291.09,321.469z"/>
		<path fill="#9FCA3B" d="M291.09,367.228c-4.217,0-7.628-3.412-7.628-7.628v-15.252c0-4.215,3.411-7.626,7.628-7.626
			c4.213,0,7.627,3.411,7.627,7.626V359.6C298.717,363.815,295.303,367.228,291.09,367.228z"/>
		<path fill="#394F61" d="M291.09,405.357c-4.217,0-7.628-3.41-7.628-7.625v-7.628c0-4.215,3.411-7.627,7.628-7.627
			c4.213,0,7.627,3.412,7.627,7.627v7.628C298.717,401.947,295.303,405.357,291.09,405.357z"/>
		<path fill="#9FCA3B" d="M291.09,451.116c-4.217,0-7.628-3.411-7.628-7.627v-15.252c0-4.217,3.411-7.625,7.628-7.625
			c4.213,0,7.627,3.408,7.627,7.625v15.252C298.717,447.705,295.303,451.116,291.09,451.116z"/>
		<path fill="#9FCA3B" d="M291.12,481.606c-2.055,0-3.963-0.758-5.415-2.212c-1.451-1.445-2.211-3.434-2.211-5.415
			c0-2.055,0.76-4.044,2.211-5.414c2.75-2.747,8.006-2.821,10.754,0.076c1.443,1.378,2.287,3.356,2.287,5.338
			s-0.844,3.97-2.287,5.415C295.089,480.849,293.102,481.606,291.12,481.606z"/>
		<path fill="#394F61" d="M365.699,550.258H109.711c-17.732,0-32.159-14.428-32.159-32.158V146.063h320.306V518.1
			C397.857,535.83,383.431,550.258,365.699,550.258z M92.807,161.316V518.1c0,9.325,7.581,16.906,16.904,16.906h255.988
			c9.324,0,16.904-7.581,16.904-16.906V161.316H92.807z"/>
		<path fill="#394F61" d="M184.32,214.701h-61.009v-68.638h61.009V214.701z M138.566,199.447h30.504v-38.131h-30.504V199.447z"/>
		<path fill="#394F61" d="M342.531,268.084h-72.377c-9.481,0-17.196-7.716-17.196-17.195V146.063h106.766v104.825
			C359.725,260.368,352.011,268.084,342.531,268.084z M268.211,161.316v89.572c0,1.072,0.871,1.943,1.943,1.943h72.377
			c1.07,0,1.941-0.871,1.941-1.943v-89.572H268.211z"/>
		<path fill="#394F61" d="M420.736,176.57h-22.879c-4.213,0-7.626-3.414-7.626-7.626s3.413-7.628,7.626-7.628h7.627v-22.877H69.926
			v22.877h7.626c4.217,0,7.628,3.416,7.628,7.628s-3.411,7.626-7.628,7.626H54.675v-53.385h366.062V176.57z"/>
		<path fill="#9FCA3B" d="M413.111,382.478c-1.952,0-3.902-0.743-5.391-2.234c-2.982-2.978-2.982-7.804,0-10.782l45.756-45.757
			c2.979-2.981,7.804-2.981,10.783,0c2.979,2.979,2.979,7.804,0,10.782l-45.758,45.757
			C417.014,381.734,415.063,382.478,413.111,382.478z"/>
		<path fill="#9FCA3B" d="M504.626,382.478c-1.95,0-3.902-0.743-5.392-2.234l-45.758-45.757c-2.98-2.979-2.98-7.804,0-10.782
			c2.979-2.981,7.804-2.981,10.783,0l45.759,45.757c2.979,2.979,2.979,7.805,0,10.782
			C508.527,381.734,506.578,382.478,504.626,382.478z"/>
		<path fill="#9FCA3B" d="M458.869,550.258c-4.215,0-7.628-3.41-7.628-7.628V329.096c0-4.216,3.413-7.627,7.628-7.627
			s7.627,3.411,7.627,7.627V542.63C466.496,546.848,463.084,550.258,458.869,550.258z"/>
	</g>
	<g>
		<path fill="#9FCA3B" d="M156.377,72.833h-5.809c-1.605,0-2.905-1.299-2.905-2.903c0-1.606,1.3-2.905,2.905-2.905h5.809
			c1.604,0,2.905,1.299,2.905,2.905C159.282,71.534,157.981,72.833,156.377,72.833z"/>
		<path fill="#9FCA3B" d="M175.743,72.833h-3.872c-1.604,0-2.905-1.299-2.905-2.903c0-1.606,1.301-2.905,2.905-2.905h3.872
			c1.604,0,2.905,1.299,2.905,2.905C178.648,71.534,177.347,72.833,175.743,72.833z"/>
		<path fill="#9FCA3B" d="M196.831,72.833h-5.809c-1.604,0-2.905-1.299-2.905-2.903c0-1.606,1.301-2.905,2.905-2.905h5.809
			c1.604,0,2.905,1.299,2.905,2.905C199.736,71.534,198.436,72.833,196.831,72.833z"/>
		<path fill="#9FCA3B" d="M216.197,72.833h-3.872c-1.604,0-2.905-1.299-2.905-2.903c0-1.606,1.301-2.905,2.905-2.905h3.872
			c1.604,0,2.905,1.299,2.905,2.905C219.102,71.534,217.801,72.833,216.197,72.833z"/>
		<path fill="#394F61" d="M127.328,123.186c-14.226,0-27.6-5.54-37.657-15.599c-20.763-20.766-20.763-54.552,0-75.315
			c10.058-10.058,23.432-15.599,37.657-15.599c14.225,0,27.599,5.541,37.658,15.599l2.054,2.054L131.437,69.93l35.604,35.603
			l-2.054,2.055C154.927,117.646,141.553,123.186,127.328,123.186z M127.328,22.482c-12.674,0-24.588,4.936-33.548,13.896
			c-18.5,18.5-18.5,48.601,0,67.1c8.963,8.962,20.875,13.898,33.548,13.898c11.7,0,22.754-4.207,31.433-11.904l-35.54-35.542
			l35.54-35.543C150.082,26.688,139.028,22.482,127.328,22.482z"/>
		<path fill="#394F61" d="M121.519,51.53c-4.808,0-8.714-3.908-8.714-8.714c0-4.807,3.907-8.714,8.714-8.714
			c4.806,0,8.714,3.907,8.714,8.714C130.233,47.622,126.325,51.53,121.519,51.53z M121.519,39.911c-1.602,0-2.905,1.304-2.905,2.905
			s1.304,2.905,2.905,2.905s2.905-1.304,2.905-2.905S123.121,39.911,121.519,39.911z"/>
	</g>
</g>
</svg>
