<?xml version="1.0" encoding="utf-8"?>
<!-- Generator: Adobe Illustrator 16.0.0, SVG Export Plug-In . SVG Version: 6.00 Build 0)  -->
<!DOCTYPE svg PUBLIC "-//W3C//DTD SVG 1.1//EN" "http://www.w3.org/Graphics/SVG/1.1/DTD/svg11.dtd">
<svg version="1.1" id="Layer_1" xmlns="http://www.w3.org/2000/svg" xmlns:xlink="http://www.w3.org/1999/xlink" x="0px" y="0px"
	 width="566.929px" height="566.929px" viewBox="0 0 566.929 566.929" enable-background="new 0 0 566.929 566.929"
	 xml:space="preserve">
<g>
	<g>
		<path fill="#FFFFFF" d="M453.074,546.208h-68.32v-6.829c0-33.907,27.586-61.493,61.488-61.493h6.832V546.208z M398.907,532.546
			h40.505v-40.503C418.5,495.045,401.912,511.635,398.907,532.546z"/>
		<path fill="#FFFFFF" d="M453.074,279.756h-6.832c-33.902,0-61.488-27.586-61.488-61.492v-6.829h68.32V279.756z M398.907,225.097
			c3.005,20.913,19.593,37.504,40.505,40.509v-40.509H398.907z"/>
		<path fill="#FFFFFF" d="M473.569,546.208h-34.157V211.435h34.157V546.208z M453.074,532.546h6.836V225.097h-6.836V532.546z"/>
		<path fill="#FFFFFF" d="M97.805,450.559H84.14v-97.353c0-21.662,17.626-39.29,39.29-39.29h172.508
			c26.371,0,47.824,21.456,47.824,47.823v20.495c0,26.374-21.453,47.83-47.824,47.83H118.299
			C106.999,430.064,97.805,439.254,97.805,450.559z M123.43,327.58c-14.131,0-25.625,11.498-25.625,25.626v70.041
			c5.715-4.3,12.816-6.851,20.494-6.851h177.639c18.837,0,34.162-15.325,34.162-34.162v-20.495
			c0-18.834-15.325-34.159-34.162-34.159H123.43z"/>
		<path fill="#FFFFFF" d="M145.629,484.721h-27.33c-18.837,0-34.159-15.325-34.159-34.162c0-18.838,15.322-34.162,34.159-34.162
			h27.33V484.721z M118.299,430.064c-11.3,0-20.494,9.189-20.494,20.494c0,11.307,9.194,20.498,20.494,20.498h13.668v-40.992
			H118.299z"/>
		<path fill="#FFFFFF" d="M131.967,512.066v-95.67h131.5l-3.477,9.241c-19.17,50.93-66.673,84.776-121.008,86.239L131.967,512.066z
			 M145.629,430.064v67.759c42.48-3.604,79.453-29.341,97.653-67.759H145.629z"/>
		<path fill="#FFFFFF" d="M258.834,327.58H131.967v-82.001l7.016,0.194c48.379,1.292,92.322,28.816,114.662,71.825L258.834,327.58z
			 M145.629,313.916h90.08c-20.039-30.888-53.293-50.939-90.08-54.094V313.916z"/>
		<path fill="#FFFFFF" d="M289.105,430.064c-3.772,0-6.834-3.061-6.834-6.833V320.748c0-3.775,3.062-6.832,6.834-6.832
			c3.771,0,6.832,3.057,6.832,6.832v102.483C295.938,427.004,292.876,430.064,289.105,430.064z"/>
		<path fill="#FFFFFF" d="M453.074,546.208H131.967V416.396h163.971c18.837,0,34.162-15.325,34.162-34.162v-20.495
			c0-18.834-15.325-34.159-34.162-34.159H131.967V211.435h321.107V546.208z M145.629,532.546h293.783V225.097H145.629v88.819
			h150.309c26.371,0,47.824,21.456,47.824,47.823v20.495c0,26.374-21.453,47.83-47.824,47.83H145.629V532.546z"/>
	</g>
	<g>
		<path fill="#FFFFFF" d="M394.564,213.743h-22.129v-53.014l2.951-0.109c1.637,0,4.203,1.351,4.577,3.792
			c0.417,2.684,2.475,3.642,4.255,3.642c1.785,0,3.837-0.958,4.253-3.645c0.006-0.036,0.602-3.421,3.3-3.421h2.763l0.03,2.822
			V213.743z M377.969,208.215h11.063v-35.838c-1.415,0.778-3.055,1.209-4.813,1.209c-2.395,0-4.559-0.797-6.25-2.17V208.215z"/>
		<path fill="#FFFFFF" d="M384.219,173.586c-4.084,0-7.52-2.326-9.026-5.883c-1.815,2.103-4.39,3.31-7.239,3.31
			c-2.961,0-5.85-1.318-7.734-3.537c-1.292-1.518-2.043-3.355-2.211-5.34c-1.484,0.905-3.147,1.38-4.896,1.38
			c-3.454,0-6.741-1.867-8.578-4.874c-1.333-2.186-1.716-4.684-1.142-7.124c-4.523,1.072-9.416-1.543-11.25-5.993
			c-1.188-2.89-0.923-6.023,0.64-8.625c-4.185-0.342-7.587-3.302-8.607-7.575c-0.881-3.716,0.289-7.269,3.026-9.61
			c-3.561-1.51-5.878-4.938-5.878-9.023c0-4.087,2.317-7.517,5.874-9.026c-2.733-2.341-3.903-5.898-3.022-9.607
			c1.021-4.275,4.423-7.236,8.611-7.578c-1.566-2.602-1.831-5.733-0.644-8.625c1.834-4.447,6.727-7.063,11.25-5.996
			c-0.574-2.438-0.191-4.936,1.142-7.117c1.834-3.009,5.122-4.875,8.575-4.875c1.751,0,3.414,0.475,4.898,1.383
			c0.168-1.988,0.919-3.828,2.211-5.347c1.885-2.214,4.773-3.535,7.734-3.535c2.85,0,5.424,1.203,7.239,3.308
			c1.507-3.556,4.942-5.879,9.026-5.879c4.088,0,7.518,2.323,9.03,5.879c1.813-2.102,4.385-3.308,7.236-3.308
			c2.964,0,5.854,1.321,7.737,3.535c1.292,1.519,2.041,3.358,2.209,5.347c1.486-0.908,3.144-1.383,4.898-1.383
			c3.453,0,6.74,1.866,8.568,4.875c1.336,2.182,1.723,4.682,1.147,7.117c4.532-1.069,9.419,1.549,11.25,5.996
			c1.194,2.892,0.926,6.023-0.643,8.625c4.187,0.342,7.593,3.299,8.61,7.578c0.885,3.709-0.289,7.267-3.025,9.607
			c3.557,1.51,5.877,4.942,5.877,9.026c0,4.085-2.32,7.514-5.88,9.021c2.739,2.345,3.913,5.897,3.028,9.61
			c-1.018,4.276-4.424,7.236-8.61,7.578c1.568,2.604,1.834,5.735,0.643,8.625c-1.831,4.447-6.712,7.065-11.25,5.993
			c0.575,2.44,0.188,4.938-1.147,7.124c-1.828,3.007-5.115,4.872-8.568,4.874c-1.755,0-3.412-0.475-4.898-1.38
			c-0.172,1.984-0.923,3.822-2.209,5.34c-1.884,2.215-4.773,3.537-7.737,3.537c-2.849,0-5.423-1.207-7.236-3.313
			C391.736,171.26,388.307,173.586,384.219,173.586z M375.594,160.664c2.199,0,4.037,1.575,4.37,3.745
			c0.417,2.684,2.475,3.645,4.255,3.645c1.785,0,3.837-0.961,4.253-3.649c0.33-2.165,2.171-3.74,4.373-3.74
			c1.663,0,3.17,0.929,3.931,2.424c1.05,2.082,2.777,2.389,3.71,2.389c1.339,0,2.689-0.606,3.526-1.586
			c0.781-0.924,1.074-2.075,0.853-3.427c-0.21-1.285,0.144-2.58,0.981-3.557c1.61-1.893,4.732-2.043,6.506-0.259
			c2.1,2.114,5.411,1.433,6.83-0.891c0.535-0.879,0.984-2.307,0.052-4.11c-0.71-1.381-0.651-2.991,0.151-4.306
			c1.173-1.927,3.777-2.677,5.801-1.635c0.686,0.354,1.379,0.535,2.058,0.535c1.917,0,3.358-1.418,3.939-2.822
			c0.39-0.958,0.782-2.822-1.006-4.602c-1.271-1.255-1.657-3.143-0.976-4.8c0.775-1.887,2.66-3.02,4.794-2.684
			c2.855,0.472,4.477-1.568,4.884-3.297c0.184-0.764,0.557-3.37-2.256-4.791c-1.719-0.871-2.669-2.729-2.371-4.63
			c0.298-1.902,1.781-3.383,3.684-3.678c2.689-0.412,3.648-2.465,3.648-4.249c0-1.783-0.959-3.836-3.648-4.255
			c-1.899-0.293-3.38-1.764-3.684-3.668c-0.298-1.905,0.648-3.764,2.371-4.631c2.818-1.427,2.439-4.033,2.256-4.801
			c-0.413-1.728-2.047-3.738-4.884-3.291c-2.144,0.354-4.016-0.796-4.794-2.683c-0.682-1.657-0.295-3.544,0.984-4.807
			c1.779-1.774,1.393-3.64,0.997-4.595c-0.578-1.406-2.022-2.825-3.939-2.825c-0.679,0-1.372,0.181-2.063,0.537
			c-2.018,1.044-4.622,0.29-5.795-1.64c-0.806-1.314-0.861-2.925-0.151-4.305c0.933-1.802,0.483-3.226-0.052-4.104
			c-1.416-2.327-4.73-3.005-6.83-0.892c-1.773,1.79-4.901,1.631-6.506-0.259c-0.838-0.979-1.191-2.274-0.981-3.557
			c0.222-1.353-0.071-2.506-0.853-3.433c-0.84-0.979-2.188-1.587-3.526-1.587c-0.938,0-2.663,0.311-3.71,2.389
			c-0.761,1.499-2.268,2.428-3.931,2.428c-2.202,0-4.043-1.577-4.373-3.742c-0.416-2.684-2.468-3.646-4.253-3.646
			c-1.78,0-3.838,0.962-4.255,3.648c-0.333,2.162-2.171,3.739-4.37,3.739l0,0c-1.666-0.004-3.173-0.933-3.931-2.431
			c-1.044-2.075-2.772-2.386-3.71-2.386c-1.336,0-2.688,0.608-3.521,1.587c-0.788,0.927-1.077,2.082-0.855,3.433
			c0.206,1.28-0.153,2.575-0.981,3.554c-1.61,1.89-4.732,2.049-6.511,0.262c-2.101-2.113-5.411-1.436-6.83,0.892
			c-0.534,0.879-0.979,2.303-0.05,4.104c0.707,1.38,0.654,2.99-0.148,4.305c-1.173,1.93-3.768,2.684-5.797,1.64
			c-0.689-0.356-1.386-0.537-2.062-0.537c-1.916,0-3.358,1.419-3.939,2.825c-0.396,0.955-0.787,2.82,1,4.595
			c1.274,1.263,1.663,3.149,0.977,4.807c-0.776,1.887-2.649,3.024-4.789,2.683c-2.863-0.472-4.477,1.563-4.892,3.291
			c-0.178,0.768-0.555,3.374,2.264,4.801c1.717,0.864,2.672,2.726,2.371,4.631c-0.304,1.898-1.784,3.375-3.688,3.668
			c-2.687,0.419-3.644,2.472-3.644,4.255c0,1.784,0.957,3.837,3.646,4.249c1.905,0.295,3.386,1.775,3.687,3.678
			c0.298,1.901-0.654,3.763-2.377,4.63c-2.813,1.421-2.436,4.027-2.258,4.791c0.412,1.729,2.052,3.752,4.892,3.297
			c2.12-0.336,4.013,0.797,4.789,2.684c0.687,1.657,0.298,3.545-0.977,4.808c-1.787,1.774-1.396,3.638-1,4.594
			c0.581,1.404,2.023,2.822,3.939,2.822c0.676,0,1.372-0.181,2.064-0.539c2.011-1.033,4.621-0.288,5.794,1.639
			c0.8,1.314,0.855,2.925,0.148,4.306c-0.93,1.808-0.484,3.233,0.05,4.11c1.419,2.323,4.732,3.001,6.83,0.891
			c1.778-1.791,4.903-1.637,6.511,0.259c0.828,0.979,1.188,2.277,0.979,3.557c-0.219,1.352,0.07,2.503,0.858,3.432
			c0.832,0.975,2.185,1.581,3.521,1.581c0.938,0,2.666-0.307,3.716-2.389C372.421,161.597,373.928,160.664,375.594,160.664z"/>
		<path fill="#FFFFFF" d="M391.798,144.6c-1.527,0-2.767-1.239-2.767-2.767c0-13.724,11.164-24.894,24.895-24.894
			c1.525,0,2.766,1.238,2.766,2.766s-1.24,2.767-2.766,2.767c-10.678,0-19.361,8.687-19.361,19.361
			C394.564,143.36,393.325,144.6,391.798,144.6z"/>
		<path fill="#FFFFFF" d="M375.202,152.897c-1.527,0-2.767-1.238-2.767-2.767c0-10.674-8.684-19.362-19.359-19.362
			c-1.53,0-2.766-1.237-2.766-2.765c0-1.528,1.235-2.767,2.766-2.767c13.725,0,24.893,11.171,24.893,24.894
			C377.969,151.659,376.732,152.897,375.202,152.897z"/>
		<path fill="#FFFFFF" d="M380.736,122.472c-1.533,0-2.768-1.239-2.768-2.767c0-10.675-8.686-19.359-19.359-19.359
			c-1.531,0-2.767-1.235-2.767-2.766c0-1.527,1.235-2.767,2.767-2.767c13.723,0,24.891,11.168,24.891,24.892
			C383.5,121.232,382.262,122.472,380.736,122.472z"/>
		<path fill="#FFFFFF" d="M383.5,100.346c-1.528,0-2.764-1.235-2.764-2.766c0-13.727,11.162-24.895,24.892-24.895
			c1.528,0,2.767,1.241,2.767,2.767c0,1.53-1.238,2.769-2.767,2.769c-10.675,0-19.358,8.684-19.358,19.359
			C386.27,99.11,385.027,100.346,383.5,100.346z"/>
		<path fill="#FFFFFF" d="M424.986,100.346c-6.102,0-11.061-4.963-11.061-11.063c0-1.528,1.235-2.766,2.766-2.766
			c1.521,0,2.767,1.237,2.767,2.766c0,3.052,2.479,5.531,5.528,5.531c1.531,0,2.767,1.239,2.767,2.767
			C427.753,99.11,426.518,100.346,424.986,100.346z"/>
		<path fill="#FFFFFF" d="M400.093,111.407c-1.521,0-2.766-1.239-2.766-2.767c0-6.098,4.966-11.061,11.067-11.061
			c1.527,0,2.763,1.238,2.763,2.766s-1.235,2.764-2.763,2.764c-3.053,0-5.536,2.482-5.536,5.531
			C402.858,110.168,401.621,111.407,400.093,111.407z"/>
		<path fill="#FFFFFF" d="M375.202,80.986c-6.099,0-11.064-4.966-11.064-11.063c0-1.53,1.245-2.766,2.769-2.766
			c1.528,0,2.764,1.235,2.764,2.766c0,3.049,2.482,5.529,5.532,5.529c1.53,0,2.767,1.241,2.767,2.769S376.732,80.986,375.202,80.986
			z"/>
		<path fill="#FFFFFF" d="M344.778,116.939c-1.53,0-2.766-1.239-2.766-2.767c0-1.524,1.235-2.766,2.766-2.766
			c3.05,0,5.532-2.48,5.532-5.529c0-1.53,1.235-2.769,2.766-2.769c1.525,0,2.767,1.238,2.767,2.769
			C355.843,111.979,350.88,116.939,344.778,116.939z"/>
		<path fill="#FFFFFF" d="M411.157,144.6c-1.527,0-2.763-1.239-2.763-2.767c0-6.098,4.965-11.064,11.063-11.064
			c1.524,0,2.767,1.239,2.767,2.767s-1.242,2.766-2.767,2.766c-3.053,0-5.532,2.483-5.532,5.532
			C413.926,143.36,412.688,144.6,411.157,144.6z"/>
		<path fill="#FFFFFF" d="M366.906,213.743c-1.523,0-2.769-1.238-2.769-2.763v-2.766c0-1.531,1.245-2.767,2.769-2.767
			c1.528,0,2.764,1.235,2.764,2.767v2.766C369.67,212.505,368.435,213.743,366.906,213.743z"/>
		<path fill="#FFFFFF" d="M358.609,213.743c-1.531,0-2.767-1.238-2.767-2.763v-2.766c0-1.531,1.235-2.767,2.767-2.767
			c1.523,0,2.762,1.235,2.762,2.767v2.766C361.371,212.505,360.133,213.743,358.609,213.743z"/>
		<path fill="#FFFFFF" d="M350.311,213.743c-1.527,0-2.769-1.238-2.769-2.763v-2.766c0-1.531,1.241-2.767,2.769-2.767
			c1.531,0,2.766,1.235,2.766,2.767v2.766C353.076,212.505,351.842,213.743,350.311,213.743z"/>
		<path fill="#FFFFFF" d="M342.013,213.743c-1.527,0-2.77-1.238-2.77-2.763v-2.766c0-1.531,1.242-2.767,2.77-2.767
			c1.524,0,2.766,1.235,2.766,2.767v2.766C344.778,212.505,343.537,213.743,342.013,213.743z"/>
		<path fill="#FFFFFF" d="M333.712,213.743c-1.524,0-2.764-1.238-2.764-2.763v-2.766c0-1.531,1.239-2.767,2.764-2.767
			c1.53,0,2.769,1.235,2.769,2.767v2.766C336.48,212.505,335.242,213.743,333.712,213.743z"/>
		<path fill="#FFFFFF" d="M416.691,213.743c-1.53,0-2.766-1.238-2.766-2.763v-2.766c0-1.531,1.235-2.767,2.766-2.767
			c1.521,0,2.767,1.235,2.767,2.767v2.766C419.458,212.505,418.213,213.743,416.691,213.743z"/>
		<path fill="#FFFFFF" d="M408.395,213.743c-1.531,0-2.767-1.238-2.767-2.763v-2.766c0-1.531,1.235-2.767,2.767-2.767
			c1.527,0,2.763,1.235,2.763,2.767v2.766C411.157,212.505,409.922,213.743,408.395,213.743z"/>
		<path fill="#FFFFFF" d="M400.093,213.743c-1.521,0-2.766-1.238-2.766-2.763v-2.766c0-1.531,1.244-2.767,2.766-2.767
			c1.528,0,2.766,1.235,2.766,2.767v2.766C402.858,212.505,401.621,213.743,400.093,213.743z"/>
		<path fill="#FFFFFF" d="M441.584,213.743c-1.531,0-2.767-1.238-2.767-2.763v-2.766c0-1.531,1.235-2.767,2.767-2.767
			c1.527,0,2.768,1.235,2.768,2.767v2.766C444.352,212.505,443.111,213.743,441.584,213.743z"/>
		<path fill="#FFFFFF" d="M433.285,213.743c-1.527,0-2.769-1.238-2.769-2.763v-2.766c0-1.531,1.241-2.767,2.769-2.767
			s2.77,1.235,2.77,2.767v2.766C436.055,212.505,434.813,213.743,433.285,213.743z"/>
		<path fill="#FFFFFF" d="M424.986,213.743c-1.523,0-2.762-1.238-2.762-2.763v-2.766c0-1.531,1.238-2.767,2.762-2.767
			c1.531,0,2.767,1.235,2.767,2.767v2.766C427.753,212.505,426.518,213.743,424.986,213.743z"/>
		<path fill="#FFFFFF" d="M466.478,213.743c-1.528,0-2.77-1.238-2.77-2.763v-2.766c0-1.531,1.241-2.767,2.77-2.767
			c1.524,0,2.766,1.235,2.766,2.767v2.766C469.243,212.505,468.002,213.743,466.478,213.743z"/>
		<path fill="#FFFFFF" d="M458.176,213.743c-1.527,0-2.763-1.238-2.763-2.763v-2.766c0-1.531,1.235-2.767,2.763-2.767
			c1.531,0,2.767,1.235,2.767,2.767v2.766C460.942,212.505,459.707,213.743,458.176,213.743z"/>
		<path fill="#FFFFFF" d="M449.885,213.743c-1.527,0-2.77-1.238-2.77-2.763v-2.766c0-1.531,1.242-2.767,2.77-2.767
			c1.523,0,2.762,1.235,2.762,2.767v2.766C452.646,212.505,451.408,213.743,449.885,213.743z"/>
		<path fill="#FFFFFF" d="M463.708,86.517c-1.527,0-2.766-1.242-2.766-2.767c0-10.675,8.688-19.361,19.362-19.361
			c1.527,0,2.769,1.241,2.769,2.769s-1.241,2.766-2.769,2.766c-7.626,0-13.827,6.201-13.827,13.827
			C466.478,85.274,465.238,86.517,463.708,86.517z"/>
		<path fill="#FFFFFF" d="M463.708,86.517c-1.527,0-2.766-1.242-2.766-2.767c0-6.101-4.96-11.064-11.058-11.064
			c-1.527,0-2.77-1.238-2.77-2.763c0-1.53,1.242-2.766,2.77-2.766c9.146,0,16.593,7.443,16.593,16.593
			C466.478,85.274,465.238,86.517,463.708,86.517z"/>
		<path fill="#FFFFFF" d="M311.885,42.85c1.523,0,2.766-1.235,2.766-2.764c0-10.678-8.688-19.362-19.365-19.362
			c-1.524,0-2.764,1.239-2.764,2.767s1.239,2.766,2.764,2.766c7.625,0,13.83,6.205,13.83,13.83
			C309.115,41.614,310.357,42.85,311.885,42.85z"/>
		<path fill="#FFFFFF" d="M311.885,42.85c1.523,0,2.766-1.235,2.766-2.764c0-6.104,4.96-11.063,11.061-11.063
			c1.528,0,2.77-1.239,2.77-2.767s-1.241-2.766-2.77-2.766c-9.15,0-16.596,7.443-16.596,16.596
			C309.115,41.614,310.357,42.85,311.885,42.85z"/>
	</g>
</g>
</svg>
