<?xml version="1.0" encoding="utf-8"?>
<!-- Generator: Adobe Illustrator 16.0.0, SVG Export Plug-In . SVG Version: 6.00 Build 0)  -->
<!DOCTYPE svg PUBLIC "-//W3C//DTD SVG 1.1//EN" "http://www.w3.org/Graphics/SVG/1.1/DTD/svg11.dtd">
<svg version="1.1" id="Layer_1" xmlns="http://www.w3.org/2000/svg" xmlns:xlink="http://www.w3.org/1999/xlink" x="0px" y="0px"
	 width="566.929px" height="566.929px" viewBox="0 0 566.929 566.929" enable-background="new 0 0 566.929 566.929"
	 xml:space="preserve">
<g>
	<path fill="#394F61" d="M284.035,551.751l-0.003-7.337c7.167-0.006,14.4-0.303,21.498-0.887l0.602,7.313
		C298.836,551.439,291.401,551.746,284.035,551.751z M261.945,550.866c-7.333-0.595-14.717-1.5-21.948-2.694l1.192-7.239
		c7.034,1.161,14.217,2.042,21.347,2.619L261.945,550.866z M328.079,548.118l-1.204-7.239c7.048-1.171,14.131-2.65,21.052-4.403
		l1.798,7.113C342.608,545.39,335.325,546.914,328.079,548.118z M218.341,543.67c-7.121-1.791-14.256-3.908-21.204-6.285
		l2.375-6.942c6.758,2.313,13.696,4.369,20.622,6.112L218.341,543.67z M370.925,537.276l-2.387-6.938
		c6.743-2.319,13.479-4.952,20.021-7.829l2.951,6.718C384.786,532.184,377.857,534.893,370.925,537.276z M176.51,529.347
		c-6.728-2.95-13.417-6.221-19.883-9.719l3.493-6.453c6.286,3.404,12.792,6.584,19.335,9.453L176.51,529.347z M411.364,519.498
		l-3.5-6.448c6.272-3.406,12.482-7.118,18.458-11.029l4.021,6.136C424.201,512.181,417.813,515.996,411.364,519.498z
		 M137.623,508.298c-6.142-4.014-12.199-8.338-18.005-12.856l4.507-5.79c5.646,4.393,11.538,8.601,17.511,12.504L137.623,508.298z
		 M448.332,495.287l-4.512-5.786c5.63-4.392,11.15-9.073,16.403-13.915l4.973,5.396C459.793,485.96,454.122,490.772,448.332,495.287
		z M102.735,481.149c-5.403-4.97-10.668-10.227-15.651-15.628l5.392-4.978c4.85,5.257,9.972,10.371,15.226,15.203L102.735,481.149z
		 M480.835,465.342l-5.399-4.972c4.845-5.26,9.523-10.782,13.912-16.414l5.791,4.511
		C490.624,454.256,485.813,459.934,480.835,465.342z M72.769,448.661c-4.515-5.784-8.848-11.831-12.878-17.977l6.133-4.023
		c3.922,5.977,8.137,11.859,12.527,17.484L72.769,448.661z M508.005,430.471l-6.142-4.021c3.916-5.979,7.624-12.197,11.032-18.477
		l6.449,3.496C515.844,417.926,512.027,424.318,508.005,430.471z M48.536,411.71c-3.504-6.445-6.783-13.122-9.743-19.845l6.714-2.96
		c2.881,6.539,6.068,13.035,9.475,19.302L48.536,411.71z M529.075,391.593l-6.718-2.949c2.87-6.536,5.503-13.283,7.825-20.051
		l6.939,2.38C534.735,377.935,532.027,384.871,529.075,391.593z M30.734,371.283c-2.39-6.935-4.519-14.065-6.327-21.194l7.111-1.806
		c1.761,6.933,3.831,13.866,6.153,20.61L30.734,371.283z M543.425,349.771l-7.116-1.797c1.749-6.918,3.225-14.004,4.39-21.054
		l7.24,1.197C546.738,335.371,545.22,342.655,543.425,349.771z M19.867,328.441c-1.205-7.225-2.123-14.607-2.735-21.941l7.313-0.609
		c0.593,7.135,1.488,14.317,2.66,21.343L19.867,328.441z M550.644,306.172l-7.313-0.599c0.581-7.098,0.875-14.329,0.875-21.493
		v-0.638h7.337v0.638C551.543,291.442,551.242,298.876,550.644,306.172z M23.544,284.399h-7.338v-0.319
		c0-7.261,0.294-14.584,0.874-21.77l7.313,0.59c-0.562,6.99-0.849,14.116-0.849,21.18V284.399z M543.28,261.956
		c-0.602-7.126-1.504-14.305-2.687-21.339l7.237-1.217c1.215,7.231,2.146,14.614,2.763,21.941L543.28,261.956z M27,241.551
		l-7.241-1.19c1.191-7.251,2.701-14.539,4.489-21.658l7.115,1.788C29.625,227.412,28.157,234.497,27,241.551z M536.15,219.573
		c-1.762-6.926-3.841-13.856-6.173-20.602l6.934-2.4c2.4,6.939,4.535,14.065,6.352,21.188L536.15,219.573z M37.466,199.865
		l-6.944-2.372c2.373-6.949,5.073-13.889,8.024-20.63l6.721,2.941C42.398,186.359,39.774,193.109,37.466,199.865z M522.117,178.966
		c-2.885-6.525-6.08-13.014-9.499-19.288l6.442-3.511c3.515,6.449,6.8,13.124,9.767,19.835L522.117,178.966z M54.705,160.465
		l-6.456-3.49c3.49-6.454,7.297-12.85,11.318-19.012l6.145,4.009C61.801,147.966,58.099,154.189,54.705,160.465z M501.552,141.237
		c-3.919-5.965-8.141-11.841-12.548-17.47l5.779-4.521c4.528,5.786,8.868,11.826,12.898,17.961L501.552,141.237z M78.209,124.455
		l-5.794-4.503c4.505-5.795,9.309-11.479,14.281-16.894l5.403,4.964C87.263,113.289,82.59,118.819,78.209,124.455z M475.063,107.383
		c-4.851-5.245-9.978-10.353-15.245-15.185l4.959-5.406c5.413,4.966,10.688,10.219,15.675,15.61L475.063,107.383z M107.296,92.787
		l-4.979-5.392c5.403-4.988,11.073-9.807,16.853-14.325l4.518,5.782C118.064,83.245,112.551,87.934,107.296,92.787z M443.377,78.315
		c-5.646-4.382-11.544-8.583-17.527-12.482l4.006-6.149c6.151,4.012,12.218,8.331,18.021,12.839L443.377,78.315z M141.163,66.315
		l-4.026-6.135c6.132-4.026,12.513-7.852,18.966-11.362l3.507,6.444C153.335,58.679,147.129,62.397,141.163,66.315z M407.351,54.837
		c-6.287-3.396-12.798-6.567-19.348-9.43l2.938-6.723c6.736,2.942,13.429,6.202,19.896,9.696L407.351,54.837z M178.903,45.776
		l-2.96-6.715c6.722-2.965,13.645-5.68,20.576-8.072l2.394,6.937C192.173,40.251,185.44,42.892,178.903,45.776z M367.939,37.618
		c-6.764-2.308-13.708-4.355-20.626-6.088l1.78-7.119c7.119,1.783,14.256,3.89,21.214,6.261L367.939,37.618z M219.52,31.761
		l-1.809-7.111c7.11-1.807,14.393-3.339,21.645-4.556l1.211,7.237C233.515,28.514,226.434,30.005,219.52,31.761z M326.253,27.178
		c-7.046-1.152-14.229-2.024-21.353-2.595l0.583-7.314c7.326,0.587,14.711,1.483,21.954,2.668L326.253,27.178z M261.905,24.66
		l-0.609-7.313c7.299-0.608,14.733-0.927,22.093-0.938l0.014,7.337C276.24,23.76,269.009,24.067,261.905,24.66z"/>
	<g>
		<path fill="#394F61" d="M406.523,414.75H161.227c-9.57,0-17.354-7.783-17.354-17.353V170.764c0-9.57,7.783-17.354,17.354-17.354
			h245.297c9.569,0,17.353,7.783,17.353,17.354v226.634C423.876,406.967,416.093,414.75,406.523,414.75z M161.227,162.743
			c-4.421,0-8.021,3.602-8.021,8.021v226.634c0,4.418,3.6,8.02,8.021,8.02h245.297c4.422,0,8.021-3.602,8.021-8.02V170.764
			c0-4.419-3.6-8.021-8.021-8.021H161.227z"/>
		<path fill="#394F61" d="M391.21,237.411H176.537c-2.577,0-4.665-2.085-4.665-4.668v-46.665c0-2.581,2.088-4.666,4.665-4.666
			H391.21c2.58,0,4.67,2.085,4.67,4.666v46.665C395.88,235.326,393.79,237.411,391.21,237.411z M181.205,228.079h205.34v-37.334
			h-205.34V228.079z"/>
		<path fill="#394F61" d="M190.538,293.413c-10.293,0-18.666-8.371-18.666-18.666c0-10.296,8.373-18.669,18.666-18.669
			c10.298,0,18.669,8.373,18.669,18.669C209.207,285.042,200.836,293.413,190.538,293.413z M190.538,265.412
			c-5.145,0-9.333,4.188-9.333,9.335c0,5.143,4.188,9.333,9.333,9.333c5.146,0,9.338-4.19,9.338-9.333
			C199.876,269.6,195.685,265.412,190.538,265.412z"/>
		<path fill="#394F61" d="M237.207,293.413c-10.294,0-18.667-8.371-18.667-18.666c0-10.296,8.373-18.669,18.667-18.669
			c10.296,0,18.665,8.373,18.665,18.669C255.872,285.042,247.503,293.413,237.207,293.413z M237.207,265.412
			c-5.145,0-9.333,4.188-9.333,9.335c0,5.143,4.188,9.333,9.333,9.333c5.147,0,9.333-4.19,9.333-9.333
			C246.54,269.6,242.354,265.412,237.207,265.412z"/>
		<path fill="#9FCA3B" d="M283.875,293.413c-10.295,0-18.667-8.371-18.667-18.666c0-10.296,8.372-18.669,18.667-18.669
			c10.294,0,18.667,8.373,18.667,18.669C302.542,285.042,294.169,293.413,283.875,293.413z M283.875,265.412
			c-5.146,0-9.332,4.188-9.332,9.335c0,5.143,4.186,9.333,9.332,9.333c5.145,0,9.334-4.19,9.334-9.333
			C293.209,269.6,289.02,265.412,283.875,265.412z"/>
		<path fill="#394F61" d="M190.538,340.078c-10.293,0-18.666-8.37-18.666-18.662c0-10.298,8.373-18.667,18.666-18.667
			c10.298,0,18.669,8.369,18.669,18.667C209.207,331.708,200.836,340.078,190.538,340.078z M190.538,312.082
			c-5.145,0-9.333,4.188-9.333,9.334c0,5.145,4.188,9.333,9.333,9.333c5.146,0,9.338-4.188,9.338-9.333
			C199.876,316.27,195.685,312.082,190.538,312.082z"/>
		<path fill="#394F61" d="M237.207,340.078c-10.294,0-18.667-8.37-18.667-18.662c0-10.298,8.373-18.667,18.667-18.667
			c10.296,0,18.665,8.369,18.665,18.667C255.872,331.708,247.503,340.078,237.207,340.078z M237.207,312.082
			c-5.145,0-9.333,4.188-9.333,9.334c0,5.145,4.188,9.333,9.333,9.333c5.147,0,9.333-4.188,9.333-9.333
			C246.54,316.27,242.354,312.082,237.207,312.082z"/>
		<path fill="#9FCA3B" d="M283.875,340.078c-10.295,0-18.667-8.37-18.667-18.662c0-10.298,8.372-18.667,18.667-18.667
			c10.294,0,18.667,8.369,18.667,18.667C302.542,331.708,294.169,340.078,283.875,340.078z M283.875,312.082
			c-5.146,0-9.332,4.188-9.332,9.334c0,5.145,4.186,9.333,9.332,9.333c5.145,0,9.334-4.188,9.334-9.333
			C293.209,316.27,289.02,312.082,283.875,312.082z"/>
		<path fill="#394F61" d="M190.538,386.748c-10.293,0-18.666-8.369-18.666-18.665c0-10.294,8.373-18.667,18.666-18.667
			c10.298,0,18.669,8.373,18.669,18.667C209.207,378.379,200.836,386.748,190.538,386.748z M190.538,358.748
			c-5.145,0-9.333,4.188-9.333,9.335c0,5.145,4.188,9.332,9.333,9.332c5.146,0,9.338-4.188,9.338-9.332
			C199.876,362.937,195.685,358.748,190.538,358.748z"/>
		<path fill="#394F61" d="M237.207,386.748c-10.294,0-18.667-8.369-18.667-18.665c0-10.294,8.373-18.667,18.667-18.667
			c10.296,0,18.665,8.373,18.665,18.667C255.872,378.379,247.503,386.748,237.207,386.748z M237.207,358.748
			c-5.145,0-9.333,4.188-9.333,9.335c0,5.145,4.188,9.332,9.333,9.332c5.147,0,9.333-4.188,9.333-9.332
			C246.54,362.937,242.354,358.748,237.207,358.748z"/>
		<path fill="#9FCA3B" d="M283.875,386.748c-10.295,0-18.667-8.369-18.667-18.665c0-10.294,8.372-18.667,18.667-18.667
			c10.294,0,18.667,8.373,18.667,18.667C302.542,378.379,294.169,386.748,283.875,386.748z M283.875,358.748
			c-5.146,0-9.332,4.188-9.332,9.335c0,5.145,4.186,9.332,9.332,9.332c5.145,0,9.334-4.188,9.334-9.332
			C293.209,362.937,289.02,358.748,283.875,358.748z"/>
		<path fill="#9FCA3B" d="M386.545,382.082h-65.337c-2.577,0-4.666-2.087-4.666-4.667v-65.333c0-2.58,2.089-4.667,4.666-4.667
			h65.337c2.577,0,4.665,2.087,4.665,4.667v65.333C391.21,379.995,389.122,382.082,386.545,382.082z M325.877,372.749h56v-56.003
			h-56V372.749z"/>
		<path fill="#394F61" d="M386.545,293.413h-65.337c-2.577,0-4.666-2.086-4.666-4.666v-28.002c0-2.577,2.089-4.667,4.666-4.667
			h65.337c2.577,0,4.665,2.09,4.665,4.667v28.002C391.21,291.327,389.122,293.413,386.545,293.413z M325.877,284.08h56v-18.668h-56
			V284.08z"/>
		<path fill="#9FCA3B" d="M372.544,223.409c-1.197,0-2.39-0.454-3.3-1.364l-18.671-18.667c-1.819-1.824-1.819-4.775,0-6.599
			c1.824-1.824,4.78-1.824,6.6,0l18.67,18.666c1.824,1.824,1.824,4.775,0,6.6C374.93,222.955,373.737,223.409,372.544,223.409z"/>
		<path fill="#9FCA3B" d="M353.877,223.409c-1.192,0-2.39-0.454-3.304-1.364c-1.819-1.824-1.819-4.775,0-6.6l18.671-18.666
			c1.824-1.824,4.775-1.824,6.599,0c1.824,1.823,1.824,4.774,0,6.599l-18.67,18.667C356.263,222.955,355.07,223.409,353.877,223.409
			z"/>
		<path fill="#394F61" d="M335.211,223.409c-1.195,0-2.393-0.454-3.303-1.364l-18.666-18.667c-1.823-1.824-1.823-4.775,0-6.599
			c1.826-1.824,4.778-1.824,6.602,0l18.665,18.666c1.822,1.824,1.822,4.775,0,6.6C337.599,222.955,336.403,223.409,335.211,223.409z
			"/>
		<path fill="#394F61" d="M316.542,223.409c-1.191,0-2.388-0.454-3.3-1.364c-1.823-1.824-1.823-4.775,0-6.6l18.666-18.666
			c1.824-1.824,4.777-1.824,6.601,0c1.822,1.823,1.822,4.774,0,6.599l-18.665,18.667
			C318.93,222.955,317.739,223.409,316.542,223.409z"/>
		<path fill="#9FCA3B" d="M297.874,223.409c-1.191,0-2.387-0.454-3.297-1.364l-18.67-18.667c-1.82-1.824-1.82-4.775,0-6.599
			c1.823-1.824,4.78-1.824,6.6,0l18.665,18.666c1.825,1.824,1.825,4.775,0,6.6C300.262,222.955,299.07,223.409,297.874,223.409z"/>
		<path fill="#9FCA3B" d="M279.211,223.409c-1.196,0-2.392-0.454-3.304-1.364c-1.82-1.824-1.82-4.775,0-6.6l18.67-18.666
			c1.818-1.824,4.776-1.824,6.595,0c1.825,1.823,1.825,4.774,0,6.599l-18.665,18.667
			C281.597,222.955,280.401,223.409,279.211,223.409z"/>
		<path fill="#394F61" d="M260.542,223.409c-1.196,0-2.39-0.454-3.302-1.364l-18.664-18.667c-1.823-1.824-1.823-4.775,0-6.599
			c1.817-1.824,4.775-1.824,6.598,0l18.668,18.666c1.824,1.824,1.824,4.775,0,6.6C262.931,222.955,261.737,223.409,260.542,223.409z
			"/>
		<path fill="#394F61" d="M241.873,223.409c-1.192,0-2.387-0.454-3.297-1.364c-1.823-1.824-1.823-4.775,0-6.6l18.664-18.666
			c1.825-1.824,4.776-1.824,6.602,0c1.824,1.823,1.824,4.774,0,6.599l-18.668,18.667
			C244.26,222.955,243.067,223.409,241.873,223.409z"/>
	</g>
</g>
</svg>
