<?xml version="1.0" encoding="utf-8"?>
<!-- Generator: Adobe Illustrator 16.0.0, SVG Export Plug-In . SVG Version: 6.00 Build 0)  -->
<!DOCTYPE svg PUBLIC "-//W3C//DTD SVG 1.1//EN" "http://www.w3.org/Graphics/SVG/1.1/DTD/svg11.dtd">
<svg version="1.1" id="Layer_1" xmlns="http://www.w3.org/2000/svg" xmlns:xlink="http://www.w3.org/1999/xlink" x="0px" y="0px"
	 width="566.929px" height="566.929px" viewBox="0 0 566.929 566.929" enable-background="new 0 0 566.929 566.929"
	 xml:space="preserve">
<path fill="#FFFFFF" d="M283.468,537.028c-14.805,0-29.631-1.272-44.074-3.788l5.063-29.06c25.7,4.47,52.761,4.453,78.452-0.077
	l5.117,29.05C313.424,535.732,298.436,537.028,283.468,537.028z M156.013,503.002c-25.84-14.904-48.705-34.059-67.976-56.906
	l22.56-19.016c17.053,20.233,37.293,37.184,60.148,50.378L156.013,503.002z M411.326,502.768l-14.785-25.521
	c22.83-13.232,43.039-30.215,60.047-50.478l22.6,18.966C459.969,468.623,437.139,487.815,411.326,502.768z M43.55,369.424
	c-10.227-27.928-15.443-57.299-15.504-87.287l29.494-0.071c0.062,26.552,4.67,52.526,13.703,77.218L43.55,369.424z M523.549,368.962
	l-27.715-10.084c8.988-24.716,13.551-50.705,13.551-77.266l-0.006-0.975h29.496l0.008,0.709
	C538.883,311.617,533.725,341.006,523.549,368.962z M70.938,204.786l-27.739-10.028c10.141-28.037,25.012-53.894,44.213-76.866
	l22.631,18.92C93.06,157.136,79.896,179.999,70.938,204.786z M495.52,203.521c-9.107-24.725-22.395-47.502-39.492-67.727
	l22.525-19.045c19.326,22.85,34.35,48.619,44.652,76.576L495.52,203.521z M169.996,86.215l-14.841-25.489
	c25.838-15.045,53.853-25.325,83.254-30.559l5.171,29.034C217.593,63.835,192.837,72.92,169.996,86.215z M395.781,85.543
	c-22.926-13.163-47.734-22.107-73.756-26.576l5-29.065c29.434,5.053,57.51,15.169,83.443,30.06L395.781,85.543z"/>
</svg>
