<?xml version="1.0" encoding="utf-8"?>
<!-- Generator: Adobe Illustrator 16.0.0, SVG Export Plug-In . SVG Version: 6.00 Build 0)  -->
<!DOCTYPE svg PUBLIC "-//W3C//DTD SVG 1.1//EN" "http://www.w3.org/Graphics/SVG/1.1/DTD/svg11.dtd">
<svg version="1.1" id="Layer_1" xmlns="http://www.w3.org/2000/svg" xmlns:xlink="http://www.w3.org/1999/xlink" x="0px" y="0px"
	 width="566.929px" height="566.929px" viewBox="0 0 566.929 566.929" enable-background="new 0 0 566.929 566.929"
	 xml:space="preserve">
<g>
	<path fill="#394F61" d="M529.146,283.465c0,135.681-109.999,245.676-245.687,245.676c-135.68,0-245.676-109.995-245.676-245.676
		c0-135.68,109.996-245.676,245.676-245.676C419.146,37.789,529.146,147.785,529.146,283.465z"/>
	<g>
		<g>
			<polygon fill="#FFFFFF" points="382.313,380.095 184.601,380.095 184.601,280.849 170.825,280.849 170.825,393.873 
				396.088,393.873 396.088,280.849 382.313,280.849 			"/>
			<polygon fill="#FFFFFF" points="274.729,199.631 274.729,333.951 288.506,333.951 288.506,198.66 346.473,255.109 
				356.079,245.228 281.965,173.068 210.786,243.593 220.488,253.386 			"/>
		</g>
	</g>
</g>
</svg>
