<?xml version="1.0" encoding="utf-8"?>
<!-- Generator: Adobe Illustrator 16.0.0, SVG Export Plug-In . SVG Version: 6.00 Build 0)  -->
<!DOCTYPE svg PUBLIC "-//W3C//DTD SVG 1.1//EN" "http://www.w3.org/Graphics/SVG/1.1/DTD/svg11.dtd">
<svg version="1.1" id="Layer_1" xmlns="http://www.w3.org/2000/svg" xmlns:xlink="http://www.w3.org/1999/xlink" x="0px" y="0px"
	 width="566.929px" height="566.929px" viewBox="0 0 566.929 566.929" enable-background="new 0 0 566.929 566.929"
	 xml:space="preserve">
<g>
	<path fill="#394F61" d="M283.621,547.179l-0.005-7.229c7.061-0.005,14.188-0.3,21.181-0.876l0.594,7.205
		C298.202,546.871,290.878,547.173,283.621,547.179z M261.856,546.306c-7.224-0.586-14.499-1.479-21.624-2.654l1.176-7.133
		c6.931,1.144,14.007,2.012,21.031,2.58L261.856,546.306z M327.013,543.599l-1.187-7.133c6.942-1.153,13.922-2.613,20.741-4.339
		l1.772,7.01C341.328,540.911,334.152,542.413,327.013,543.599z M218.897,539.215c-7.016-1.765-14.045-3.85-20.891-6.191l2.34-6.841
		c6.658,2.28,13.492,4.307,20.316,6.021L218.897,539.215z M369.224,532.917l-2.35-6.837c6.645-2.283,13.281-4.878,19.725-7.711
		l2.908,6.618C382.882,527.899,376.056,530.568,369.224,532.917z M177.685,525.104c-6.629-2.907-13.218-6.128-19.589-9.574
		l3.442-6.358c6.192,3.354,12.603,6.484,19.049,9.312L177.685,525.104z M409.066,515.402l-3.448-6.354
		c6.181-3.356,12.299-7.012,18.188-10.867l3.96,6.047C421.714,508.19,415.423,511.952,409.066,515.402z M139.373,504.368
		c-6.051-3.955-12.019-8.218-17.739-12.668l4.441-5.705c5.563,4.329,11.368,8.475,17.251,12.318L139.373,504.368z M445.487,491.548
		l-4.444-5.701c5.548-4.328,10.985-8.938,16.162-13.709l4.898,5.316C456.78,482.358,451.192,487.1,445.487,491.548z
		 M105.002,477.618c-5.323-4.895-10.51-10.074-15.42-15.396l5.312-4.901c4.777,5.177,9.824,10.217,15,14.977L105.002,477.618z
		 M477.511,462.045l-5.32-4.896c4.773-5.182,9.385-10.624,13.706-16.173l5.705,4.443
		C487.155,451.123,482.415,456.718,477.511,462.045z M75.478,445.61c-4.448-5.697-8.716-11.654-12.688-17.709l6.043-3.965
		c3.863,5.888,8.017,11.684,12.342,17.226L75.478,445.61z M504.277,427.688l-6.05-3.959c3.857-5.893,7.513-12.018,10.868-18.205
		l6.354,3.445C512.003,415.331,508.244,421.63,504.277,427.688z M51.604,409.206c-3.452-6.348-6.683-12.926-9.6-19.552l6.616-2.914
		c2.836,6.442,5.979,12.84,9.334,19.014L51.604,409.206z M525.036,389.388l-6.618-2.907c2.828-6.438,5.422-13.085,7.712-19.753
		l6.836,2.344C530.614,375.93,527.945,382.767,525.036,389.388z M34.065,369.378c-2.354-6.833-4.452-13.857-6.233-20.881
		l7.006-1.778c1.733,6.828,3.772,13.66,6.062,20.306L34.065,369.378z M539.173,348.186l-7.009-1.772
		c1.722-6.816,3.175-13.795,4.325-20.741l7.135,1.179C542.44,333.995,540.944,341.171,539.173,348.186z M23.358,327.171
		c-1.188-7.119-2.093-14.395-2.693-21.619l7.203-0.598c0.584,7.028,1.468,14.103,2.621,21.026L23.358,327.171z M546.288,305.23
		l-7.204-0.59c0.571-6.993,0.862-14.119,0.862-21.176v-0.628h7.229v0.628C547.175,290.719,546.876,298.04,546.288,305.23z
		 M26.981,283.779h-7.229v-0.314c0-7.155,0.29-14.37,0.86-21.447l7.205,0.579c-0.554,6.887-0.836,13.907-0.836,20.868V283.779z
		 M539.033,261.668c-0.592-7.021-1.481-14.095-2.646-21.024l7.129-1.2c1.197,7.126,2.114,14.398,2.721,21.617L539.033,261.668z
		 M30.386,241.562l-7.135-1.172c1.175-7.145,2.662-14.324,4.424-21.336l7.011,1.762C32.973,227.633,31.525,234.615,30.386,241.562z
		 M532.011,219.91c-1.738-6.821-3.787-13.65-6.084-20.296l6.83-2.363c2.365,6.835,4.471,13.858,6.26,20.874L532.011,219.91z
		 M40.696,200.496l-6.842-2.337c2.34-6.848,4.999-13.686,7.906-20.325l6.622,2.898C45.556,187.188,42.971,193.838,40.696,200.496z
		 M518.182,179.904c-2.842-6.428-5.988-12.822-9.358-19.003l6.347-3.459c3.466,6.356,6.701,12.93,9.622,19.542L518.182,179.904z
		 M57.683,161.678l-6.361-3.438c3.438-6.359,7.188-12.662,11.15-18.733l6.055,3.95C64.673,149.362,61.024,155.493,57.683,161.678z
		 M497.921,142.732c-3.862-5.875-8.021-11.666-12.359-17.212l5.692-4.455c4.461,5.701,8.736,11.654,12.708,17.695L497.921,142.732z
		 M80.838,126.199l-5.708-4.438c4.438-5.708,9.17-11.306,14.07-16.643l5.323,4.893C89.758,115.2,85.153,120.646,80.838,126.199z
		 M471.823,109.381c-4.777-5.168-9.831-10.2-15.018-14.959l4.885-5.327c5.336,4.89,10.528,10.065,15.443,15.377L471.823,109.381z
		 M109.495,94.998l-4.907-5.309c5.323-4.917,10.909-9.665,16.604-14.116l4.452,5.697C120.104,85.599,114.671,90.219,109.495,94.998z
		 M440.606,80.743c-5.563-4.319-11.373-8.456-17.268-12.3l3.946-6.055c6.062,3.951,12.035,8.205,17.753,12.646L440.606,80.743z
		 M142.86,68.919l-3.967-6.043c6.041-3.967,12.328-7.736,18.686-11.197l3.456,6.351C154.852,61.396,148.739,65.058,142.86,68.919z
		 M405.113,57.609c-6.196-3.344-12.607-6.47-19.061-9.291l2.895-6.622c6.636,2.898,13.23,6.112,19.6,9.552L405.113,57.609z
		 M180.042,48.683l-2.915-6.615c6.623-2.919,13.442-5.595,20.272-7.953l2.358,6.833C193.116,43.24,186.483,45.843,180.042,48.683z
		 M366.286,40.645c-6.666-2.273-13.506-4.289-20.324-5.997l1.755-7.012c7.015,1.756,14.046,3.832,20.902,6.168L366.286,40.645z
		 M220.06,34.877l-1.783-7.007c7.006-1.782,14.181-3.29,21.324-4.488l1.193,7.13C233.847,31.676,226.87,33.144,220.06,34.877z
		 M325.214,30.359c-6.941-1.133-14.019-1.995-21.037-2.556l0.574-7.205c7.217,0.575,14.494,1.461,21.631,2.626L325.214,30.359z
		 M261.818,27.881l-0.601-7.205c7.189-0.6,14.515-0.913,21.766-0.925l0.014,7.229C275.941,26.994,268.815,27.295,261.818,27.881z"/>
	<g>
		<path fill="#394F61" d="M474.645,428.481H340.782V294.619h133.862V428.481z M351.939,417.325h111.549V305.773H351.939V417.325z"/>
		<rect x="402.136" y="300.196" fill="#9FCA3B" width="11.154" height="89.241"/>
		<polygon fill="#9FCA3B" points="407.712,397.325 370.304,359.915 378.19,352.027 407.712,381.55 437.236,352.027 445.123,359.915 
					"/>
		<path fill="#9FCA3B" d="M279.43,434.058c-12.305,0-22.311-10.008-22.311-22.311c0-12.301,10.006-22.31,22.311-22.31
			c12.304,0,22.309,10.009,22.309,22.31C301.738,424.05,291.733,434.058,279.43,434.058z M279.43,400.593
			c-6.152,0-11.157,5.002-11.157,11.154c0,6.153,5.005,11.154,11.157,11.154c6.147,0,11.153-5.001,11.153-11.154
			C290.583,405.595,285.577,400.593,279.43,400.593z"/>
		<path fill="#394F61" d="M312.894,383.858H190.188c-3.084,0-5.578-2.496-5.578-5.575c0-3.081,2.494-5.579,5.578-5.579h122.705
			c3.086,0,5.579,2.498,5.579,5.579C318.473,381.362,315.979,383.858,312.894,383.858z"/>
		<path fill="#394F61" d="M349.676,450.792H209.175c-13.544,0-24.564-11.025-24.564-24.576V140.707
			c0-13.548,11.021-24.57,24.564-24.57h140.501c13.547,0,24.574,11.022,24.574,24.57v142.757c0,3.079-2.498,5.578-5.579,5.578
			c-3.084,0-5.578-2.499-5.578-5.578V140.707c0-7.395-6.02-13.415-13.417-13.415H209.175c-7.396,0-13.41,6.02-13.41,13.415v285.509
			c0,7.4,6.014,13.421,13.41,13.421h140.501c3.084,0,5.579,2.496,5.579,5.576C355.255,448.294,352.76,450.792,349.676,450.792z"/>
		<path fill="#394F61" d="M368.671,160.756H190.188c-3.084,0-5.578-2.495-5.578-5.577c0-3.08,2.494-5.577,5.578-5.577h178.482
			c3.081,0,5.579,2.497,5.579,5.577C374.25,158.261,371.752,160.756,368.671,160.756z"/>
		<path fill="#9FCA3B" d="M279.43,144.025h-22.311c-3.083,0-5.579-2.498-5.579-5.577c0-3.082,2.496-5.577,5.579-5.577h22.311
			c3.082,0,5.577,2.496,5.577,5.577C285.007,141.527,282.512,144.025,279.43,144.025z"/>
		<path fill="#9FCA3B" d="M301.738,144.025h-5.576c-3.083,0-5.579-2.498-5.579-5.577c0-3.082,2.496-5.577,5.579-5.577h5.576
			c3.084,0,5.579,2.496,5.579,5.577C307.317,141.527,304.822,144.025,301.738,144.025z"/>
	</g>
</g>
</svg>
