<?xml version="1.0" encoding="utf-8"?>
<!-- Generator: Adobe Illustrator 16.0.0, SVG Export Plug-In . SVG Version: 6.00 Build 0)  -->
<!DOCTYPE svg PUBLIC "-//W3C//DTD SVG 1.1//EN" "http://www.w3.org/Graphics/SVG/1.1/DTD/svg11.dtd">
<svg version="1.1" id="Layer_1" xmlns="http://www.w3.org/2000/svg" xmlns:xlink="http://www.w3.org/1999/xlink" x="0px" y="0px"
	 width="566.929px" height="566.929px" viewBox="0 0 566.929 566.929" enable-background="new 0 0 566.929 566.929"
	 xml:space="preserve">
<g>
	<g>
		<path fill="#FFFFFF" stroke="#FFFFFF" stroke-miterlimit="10" d="M283.476,539.902c-136.358,0-247.285-110.892-247.285-247.228
			c0-61.077,22.434-119.646,63.179-165.083l17.181,15.453c-36.94,41.131-57.261,94.307-57.261,149.63
			c0,123.59,100.573,224.187,224.187,224.187c123.626,0,224.165-100.597,224.165-224.187c0-56.327-20.32-106.632-60.354-149.466
			l16.889-15.78c43.547,46.615,66.563,103.737,66.563,165.246C530.739,429.011,419.823,539.902,283.476,539.902z"/>
	</g>
	<rect x="271.91" y="27.029" fill="#FFFFFF" stroke="#FFFFFF" stroke-miterlimit="10" width="23.098" height="213.847"/>
</g>
</svg>
