<?xml version="1.0" encoding="utf-8"?>
<!-- Generator: Adobe Illustrator 16.0.0, SVG Export Plug-In . SVG Version: 6.00 Build 0)  -->
<!DOCTYPE svg PUBLIC "-//W3C//DTD SVG 1.1//EN" "http://www.w3.org/Graphics/SVG/1.1/DTD/svg11.dtd">
<svg version="1.1" id="Layer_1" xmlns="http://www.w3.org/2000/svg" xmlns:xlink="http://www.w3.org/1999/xlink" x="0px" y="0px"
	 width="566.929px" height="566.929px" viewBox="0 0 566.929 566.929" enable-background="new 0 0 566.929 566.929"
	 xml:space="preserve">
<g>
	<g>
		<path fill="#394F61" d="M491.639,550.863c-31.707,0-57.497-25.791-57.497-57.497s25.79-57.497,57.497-57.497
			s57.496,25.791,57.496,57.497S523.346,550.863,491.639,550.863z M491.639,445.452c-26.419,0-47.914,21.495-47.914,47.914
			s21.495,47.915,47.914,47.915c26.418,0,47.913-21.496,47.913-47.915S518.057,445.452,491.639,445.452z"/>
		<path fill="#EB2227" d="M513.801,477.092l-37.387,39.16c-1.826,1.918-4.856,1.989-6.773,0.163
			c-1.916-1.827-1.993-4.855-0.164-6.773l37.387-39.159c1.822-1.918,4.854-1.993,6.77-0.165
			C515.553,472.145,515.626,475.174,513.801,477.092z"/>
		<path fill="#EB2227" d="M507.912,515.528l-39.159-37.386c-1.919-1.826-1.993-4.855-0.165-6.772
			c1.829-1.918,4.857-1.993,6.773-0.165l39.159,37.386c1.92,1.825,1.993,4.854,0.165,6.772
			C512.859,517.282,509.829,517.355,507.912,515.528z"/>
	</g>
	<path fill="#394F61" d="M283.289,546.748l-0.003-7.273c7.105-0.006,14.275-0.303,21.313-0.882l0.597,7.249
		C297.961,546.439,290.592,546.743,283.289,546.748z M261.392,545.871c-7.267-0.59-14.588-1.488-21.757-2.672l1.182-7.177
		c6.975,1.15,14.094,2.023,21.162,2.596L261.392,545.871z M326.951,543.146l-1.193-7.177c6.985-1.16,14.007-2.629,20.869-4.366
		l1.782,7.054C341.354,540.442,334.134,541.953,326.951,543.146z M218.17,538.735c-7.062-1.775-14.134-3.873-21.021-6.229
		l2.354-6.883c6.699,2.295,13.575,4.333,20.442,6.059L218.17,538.735z M369.423,532.399l-2.364-6.879
		c6.685-2.299,13.363-4.909,19.846-7.76l2.928,6.66C383.164,527.351,376.297,530.035,369.423,532.399z M176.701,524.538
		c-6.67-2.925-13.301-6.166-19.709-9.635l3.463-6.396c6.23,3.375,12.681,6.524,19.167,9.37L176.701,524.538z M409.51,514.775
		l-3.469-6.392c6.219-3.378,12.376-7.056,18.3-10.936l3.984,6.083C422.235,507.521,415.905,511.304,409.51,514.775z
		 M138.153,503.674c-6.089-3.98-12.093-8.27-17.849-12.744l4.469-5.742c5.598,4.355,11.437,8.527,17.359,12.396L138.153,503.674z
		 M103.569,476.759c-5.355-4.924-10.575-10.136-15.516-15.492l5.345-4.932c4.808,5.209,9.885,10.28,15.092,15.07L103.569,476.759z
		 M73.863,444.553c-4.477-5.732-8.771-11.727-12.766-17.817l6.079-3.99c3.888,5.925,8.066,11.757,12.419,17.332L73.863,444.553z
		 M505.31,426.521l-6.087-3.983c3.881-5.93,7.558-12.091,10.936-18.317l6.393,3.466C513.083,414.086,509.3,420.424,505.31,426.521z
		 M49.842,407.925c-3.474-6.388-6.724-13.007-9.658-19.673l6.654-2.932c2.856,6.481,6.017,12.918,9.393,19.13L49.842,407.925z
		 M526.197,387.983l-6.66-2.924c2.844-6.479,5.455-13.166,7.76-19.875l6.879,2.357C531.809,374.443,529.123,381.32,526.197,387.983z
		 M32.194,367.852c-2.369-6.876-4.478-13.943-6.271-21.01l7.051-1.791c1.743,6.87,3.795,13.746,6.097,20.431L32.194,367.852z
		 M540.422,346.526l-7.055-1.782c1.734-6.858,3.196-13.88,4.354-20.87l7.177,1.188C543.709,332.249,542.202,339.47,540.422,346.526z
		 M21.424,325.382c-1.197-7.163-2.108-14.481-2.714-21.751l7.249-0.603c0.588,7.073,1.477,14.19,2.638,21.157L21.424,325.382z
		 M547.58,303.307l-7.249-0.593c0.575-7.038,0.867-14.206,0.867-21.307v-0.632h7.272v0.632
		C548.471,288.705,548.171,296.073,547.58,303.307z M25.065,281.722h-7.272v-0.314c0-7.198,0.291-14.459,0.867-21.58l7.249,0.583
		c-0.559,6.93-0.844,13.993-0.844,20.997V281.722z M540.278,259.475c-0.594-7.064-1.489-14.182-2.661-21.154l7.174-1.205
		c1.205,7.17,2.126,14.486,2.736,21.75L540.278,259.475z M28.493,239.246l-7.179-1.179c1.182-7.19,2.678-14.413,4.451-21.468
		l7.052,1.772C31.095,225.231,29.64,232.256,28.493,239.246z M533.214,217.461c-1.75-6.864-3.81-13.736-6.123-20.422l6.873-2.379
		c2.381,6.878,4.497,13.943,6.3,21.003L533.214,217.461z M38.867,197.925l-6.885-2.352c2.355-6.889,5.03-13.768,7.955-20.45
		l6.663,2.916C43.758,184.536,41.156,191.227,38.867,197.925z M519.299,177.208c-2.858-6.468-6.024-12.901-9.414-19.121l6.385-3.48
		c3.486,6.395,6.744,13.011,9.682,19.661L519.299,177.208z M55.957,158.867l-6.399-3.46c3.458-6.396,7.233-12.737,11.22-18.847
		l6.091,3.975C62.99,146.477,59.322,152.646,55.957,158.867z M498.914,139.807c-3.887-5.912-8.069-11.738-12.438-17.318l5.729-4.482
		c4.487,5.736,8.789,11.727,12.786,17.806L498.914,139.807z M79.256,123.171l-5.743-4.464c4.464-5.744,9.228-11.378,14.157-16.746
		l5.355,4.921C88.23,112.103,83.598,117.584,79.256,123.171z M472.655,106.248c-4.808-5.198-9.891-10.264-15.111-15.052l4.917-5.359
		c5.366,4.921,10.593,10.127,15.537,15.473L472.655,106.248z M108.091,91.778l-4.938-5.343c5.356-4.946,10.976-9.724,16.705-14.202
		l4.479,5.732C118.765,82.321,113.3,86.967,108.091,91.778z M441.244,77.434c-5.598-4.346-11.441-8.509-17.373-12.376l3.971-6.093
		c6.1,3.975,12.109,8.257,17.864,12.724L441.244,77.434z M141.662,65.537l-3.992-6.081c6.079-3.992,12.405-7.782,18.802-11.265
		l3.477,6.39C153.728,57.967,147.576,61.652,141.662,65.537z M405.532,54.159c-6.231-3.366-12.685-6.512-19.177-9.349l2.912-6.664
		c6.678,2.916,13.313,6.15,19.722,9.611L405.532,54.159z M179.073,45.177l-2.934-6.655c6.663-2.939,13.524-5.631,20.397-8.003
		l2.372,6.876C192.227,39.7,185.555,42.318,179.073,45.177z M366.467,37.09c-6.708-2.287-13.59-4.317-20.449-6.035l1.766-7.056
		c7.058,1.766,14.132,3.854,21.029,6.206L366.467,37.09z M219.337,31.285l-1.794-7.051c7.05-1.791,14.267-3.31,21.457-4.516
		l1.199,7.175C233.209,28.065,226.189,29.542,219.337,31.285z M325.142,26.74c-6.985-1.142-14.106-2.008-21.169-2.572l0.579-7.25
		c7.261,0.58,14.584,1.471,21.763,2.645L325.142,26.74z M261.354,24.245l-0.604-7.249c7.235-0.604,14.604-0.918,21.899-0.93
		l0.015,7.273C275.563,23.353,268.395,23.657,261.354,24.245z"/>
	<g>
		<path fill="#9FCA3B" d="M343.419,299.071c-35.72,0-64.782-29.062-64.782-64.784c0-35.72,29.063-64.781,64.782-64.781
			c35.723,0,64.784,29.062,64.784,64.781C408.203,270.01,379.142,299.071,343.419,299.071z M343.419,181.283
			c-29.227,0-53.003,23.779-53.003,53.004c0,29.227,23.776,53.005,53.003,53.005c29.229,0,53.005-23.778,53.005-53.005
			C396.424,205.063,372.648,181.283,343.419,181.283z"/>
		<path fill="#9FCA3B" d="M343.419,275.514c-22.729,0-41.226-18.494-41.226-41.227s18.496-41.225,41.226-41.225
			s41.226,18.492,41.226,41.225S366.148,275.514,343.419,275.514z M343.419,204.841c-16.236,0-29.446,13.211-29.446,29.446
			c0,16.236,13.21,29.447,29.446,29.447c16.235,0,29.446-13.211,29.446-29.447C372.865,218.052,359.654,204.841,343.419,204.841z"/>
		<path fill="#9FCA3B" d="M343.419,251.956c-9.742,0-17.668-7.925-17.668-17.669c0-9.739,7.926-17.667,17.668-17.667
			s17.667,7.928,17.667,17.667C361.086,244.031,353.161,251.956,343.419,251.956"/>
		<path fill="#9FCA3B" d="M225.632,299.071c-35.72,0-64.781-29.062-64.781-64.784c0-35.72,29.062-64.781,64.781-64.781
			c35.724,0,64.784,29.062,64.784,64.781C290.416,270.01,261.355,299.071,225.632,299.071z M225.632,181.283
			c-29.229,0-53.005,23.779-53.005,53.004c0,29.227,23.775,53.005,53.005,53.005s53.005-23.778,53.005-53.005
			C278.637,205.063,254.861,181.283,225.632,181.283z"/>
		<path fill="#9FCA3B" d="M225.632,275.514c-22.729,0-41.226-18.494-41.226-41.227s18.496-41.225,41.226-41.225
			s41.226,18.492,41.226,41.225S248.361,275.514,225.632,275.514z M225.632,204.841c-16.235,0-29.446,13.211-29.446,29.446
			c0,16.236,13.211,29.447,29.446,29.447c16.236,0,29.447-13.211,29.447-29.447C255.079,218.052,241.868,204.841,225.632,204.841z"
			/>
		<path fill="#9FCA3B" d="M225.632,251.956c-9.742,0-17.667-7.925-17.667-17.669c0-9.739,7.925-17.667,17.667-17.667
			s17.668,7.928,17.668,17.667C243.3,244.031,235.374,251.956,225.632,251.956"/>
		<path fill="#9FCA3B" d="M284.525,316.742c-1.564,0-3.061-0.622-4.162-1.726l-27.078-27.08c-1.261-1.26-1.881-3.02-1.693-4.789
			c0.191-1.771,1.17-3.36,2.664-4.324c9.295-5.992,16.392-14.566,20.521-24.783c0.294-0.733,0.735-1.4,1.293-1.96l4.293-4.288
			c2.299-2.296,6.025-2.296,8.328,0l4.289,4.288c0.558,0.56,1.002,1.227,1.293,1.96c4.13,10.217,11.227,18.791,20.521,24.783
			c1.496,0.964,2.473,2.553,2.664,4.324c0.188,1.77-0.433,3.529-1.69,4.789l-27.077,27.08
			C287.586,316.12,286.09,316.742,284.525,316.742z M266.49,284.482l18.035,18.042l18.038-18.042
			c-7.731-6.282-13.872-14.211-18.038-23.311C280.363,270.271,274.219,278.2,266.49,284.482z"/>
		<path fill="#9FCA3B" d="M431.759,446.305H101.957v-11.779h329.802c3.251,0,5.892-2.643,5.892-5.89c0-3.246-2.641-5.89-5.892-5.89
			H101.957v-11.777h329.802c9.745,0,17.671,7.926,17.671,17.667C449.43,438.38,441.504,446.305,431.759,446.305z"/>
		<rect x="213.853" y="387.412" fill="#9FCA3B" width="11.779" height="41.224"/>
		<path fill="#9FCA3B" d="M284.566,181.126c-0.012,0-0.023,0-0.029,0c-2.725-0.015-5.118-1.746-5.744-4.38
			c-0.408-1.555-0.186-3.289,0.655-4.662c0.855-1.394,2.231-2.455,3.837-2.778c0.85-0.169,1.854-0.151,2.695,0.05
			c3.102,0.756,5.057,3.852,4.383,6.968C289.775,179.037,287.339,181.126,284.566,181.126z"/>
		<path fill="#9FCA3B" d="M284.525,469.862c-16.26,0-45.647-7.667-71.77-24.495c-2.192-1.418-3.198-4.109-2.457-6.614
			c0.738-2.508,3.037-4.228,5.646-4.228h137.148c2.609,0,4.912,1.72,5.646,4.228c0.744,2.505-0.265,5.196-2.455,6.614
			C330.164,462.195,300.779,469.862,284.525,469.862z M239.181,446.305c18.899,8.47,36.32,11.778,45.345,11.778
			c9.02,0,26.439-3.309,45.333-11.778H239.181z"/>
		<path fill="#9FCA3B" d="M380.773,422.746H188.271c-1.689,0-3.295-0.725-4.418-1.988c-18.364-20.797-28.895-50.123-28.895-80.462
			c-0.332-1.205-3.697-7.272-6.146-11.704c-6.173-11.14-10.25-18.855-10.709-24.382c-0.721-8.736-1.99-17.646-3.258-25.974
			c-7.951-52.121,13.047-104.368,54.802-136.352l31.563-24.17c1.873-1.438,4.409-1.611,6.458-0.463l35.25,19.741
			c9.172,5.133,16.621,12.718,21.606,21.769c4.991-9.058,12.446-16.653,21.63-21.789l35.241-19.721
			c2.052-1.151,4.583-0.966,6.458,0.466l31.596,24.229c41.717,31.974,62.697,84.2,54.755,136.299
			c-1.268,8.335-2.537,17.257-3.258,25.976c-0.453,5.524-4.536,13.239-10.706,24.376c-2.452,4.429-5.814,10.496-6.19,12.21
			c0.041,29.821-10.495,59.15-28.859,79.95C384.068,422.021,382.467,422.746,380.773,422.746z M190.979,410.969h187.086
			c15.437-18.542,24.247-44.137,24.247-70.673c0-3.497,2.337-7.862,7.628-17.407c3.575-6.458,8.986-16.221,9.263-19.637
			c0.756-9.075,2.061-18.234,3.36-26.78c7.293-47.853-11.974-95.815-50.277-125.179l-28.521-21.869l-31.857,17.828
			c-10.13,5.665-17.6,15.125-20.81,26.229c0.244,0.82,0.271,1.51,0.265,1.81c-0.006,0.911-0.35,5.484-6.358,5.974
			c-0.312,0.027-0.647,0.027-0.956,0c-6.012-0.489-6.355-5.063-6.361-5.974c-0.006-0.3,0.023-0.989,0.265-1.807
			c-3.21-11.1-10.668-20.553-20.786-26.214L225.3,129.42l-28.488,21.815c-38.342,29.37-57.626,77.354-50.324,125.228
			c1.3,8.536,2.607,17.688,3.36,26.774c0.282,3.419,5.688,13.185,9.266,19.647c5.291,9.546,7.625,13.914,7.625,17.411
			C166.738,366.838,175.543,392.43,190.979,410.969z"/>
		<rect x="231.521" y="405.079" fill="#9FCA3B" width="11.779" height="23.557"/>
		<rect x="196.186" y="405.079" fill="#9FCA3B" width="11.779" height="23.557"/>
		<rect x="343.419" y="387.412" fill="#9FCA3B" width="11.779" height="41.224"/>
		<rect x="361.086" y="405.079" fill="#9FCA3B" width="11.779" height="23.557"/>
		<rect x="325.751" y="405.079" fill="#9FCA3B" width="11.779" height="23.557"/>
		<path fill="#9FCA3B" d="M313.684,422.749h-58.316c-2.67,0-4.998-1.79-5.688-4.368c-9.116-34.076-29.885-55.623-63.506-65.878
			c-3.451-1.052-6.806-1.498-10.354-1.973c-5.832-0.775-11.864-1.581-17.747-5.225c-1.352-0.843-2.29-2.181-2.634-3.692
			c-0.535-1.199-2.445-4.661-3.998-7.48c-6.987-12.658-12.813-23.646-13.337-29.92c-0.738-8.94-2.066-18.146-3.26-25.974
			c-5.145-33.719,1.878-68.313,19.771-97.416c1.6-2.604,4.939-3.563,7.667-2.174c13.602,6.861,19.726,22.697,14.245,36.837
			l-10.985-4.255c2.593-6.689,0.835-14.02-4.048-18.83c-14.087,25.553-19.41,55.161-15.013,84.062
			c1.231,8.02,2.596,17.478,3.366,26.777c0.35,4.274,8.154,18.408,11.905,25.199c2.04,3.709,3.34,6.063,4.146,7.736
			c3.354,1.598,7.16,2.105,11.479,2.68c3.684,0.492,7.858,1.047,12.235,2.381c35.841,10.934,59.44,34.385,70.193,69.735h49.439
			c10.756-35.351,34.353-58.802,70.193-69.735c8.063-2.459,16.162-6.115,24.111-10.887c0.841-1.511,2.157-3.475,4.147-6.431
			c3.34-4.976,11.174-16.626,11.506-20.673c0.773-9.288,2.135-18.749,3.366-26.777c4.395-28.881-0.92-58.472-14.989-84.016
			c-4.865,4.802-6.623,12.117-4.065,18.797l-10.997,4.218c-5.412-14.126,0.726-29.937,14.274-36.772
			c2.74-1.389,6.067-0.431,7.673,2.175c17.864,29.096,24.875,63.675,19.746,97.376c-1.262,8.229-2.525,17.065-3.264,25.973
			c-0.544,6.564-6.429,15.78-13.479,26.272c-1.369,2.035-3.042,4.525-3.601,5.535c-0.397,1.388-1.3,2.604-2.561,3.39
			c-9.31,5.769-18.876,10.174-28.43,13.087c-33.621,10.255-54.39,31.802-63.506,65.878
			C318.685,420.959,316.354,422.749,313.684,422.749z"/>
		<path fill="#9FCA3B" d="M295.126,418.299l-11.491-2.612c11.323-49.805,41.243-82.433,88.928-96.978
			c20.52-6.258,34.873-17.604,42.666-33.719c16.301-33.683-0.555-77.562-0.729-78.001l10.962-4.296
			c0.782,1.987,18.888,49.158,0.373,87.429c-9.283,19.188-26.054,32.598-49.833,39.854
			C332.647,343.197,305.438,372.912,295.126,418.299z"/>
		<path fill="#9FCA3B" d="M273.919,418.287c-10.315-45.378-37.524-75.093-80.867-88.316c-23.782-7.257-40.553-20.663-49.836-39.852
			c-18.515-38.268-0.409-85.438,0.373-87.426l10.968,4.293c-0.17,0.439-17,44.466-0.711,78.055
			c7.799,16.086,22.147,27.41,42.646,33.662c47.679,14.548,77.59,47.176,88.919,96.974L273.919,418.287z"/>
		<path fill="#9FCA3B" d="M331.64,328.519h-11.776c0-3.249-2.64-5.892-5.891-5.892c-3.249,0-5.889,2.643-5.889,5.892h-11.779
			c0-9.744,7.926-17.669,17.668-17.669C323.714,310.85,331.64,318.774,331.64,328.519z"/>
		<path fill="#9FCA3B" d="M302.193,357.965h-11.777c0-3.248-2.64-5.891-5.891-5.891c-3.248,0-5.889,2.643-5.889,5.891h-11.779
			c0-9.743,7.926-17.669,17.668-17.669S302.193,348.222,302.193,357.965z"/>
		<path fill="#9FCA3B" d="M272.746,328.519H260.97c0-3.249-2.64-5.892-5.891-5.892c-3.249,0-5.889,2.643-5.889,5.892h-11.779
			c0-9.744,7.926-17.669,17.668-17.669C264.82,310.85,272.746,318.774,272.746,328.519z"/>
	</g>
</g>
</svg>
