<?xml version="1.0" encoding="utf-8"?>
<!-- Generator: Adobe Illustrator 16.0.0, SVG Export Plug-In . SVG Version: 6.00 Build 0)  -->
<!DOCTYPE svg PUBLIC "-//W3C//DTD SVG 1.1//EN" "http://www.w3.org/Graphics/SVG/1.1/DTD/svg11.dtd">
<svg version="1.1" id="Layer_1" xmlns="http://www.w3.org/2000/svg" xmlns:xlink="http://www.w3.org/1999/xlink" x="0px" y="0px"
	 width="566.929px" height="566.929px" viewBox="0 0 566.929 566.929" enable-background="new 0 0 566.929 566.929"
	 xml:space="preserve">
<g>
	<g>
		<path fill-rule="evenodd" clip-rule="evenodd" d="M277.194,277.237c0,4.165,0,8.329,0,12.711c4.174,0,8.333,0,12.675,0
			c0,4.378,0,8.548,0,12.869c13.002,0,25.819,0,38.799,0c0-4.211,0-8.429,0-12.837c-4.231,0-8.396,0-12.811,0
			c0-4.419,0-8.658,0-12.895l-0.055,0.047c4.25,0,8.501,0,13.029,0c0-4.456,0-8.678,0-13.198c8.785,0,17.292,0,25.799,0
			l-0.066-0.065c0,4.356,0,8.708,0,13.238c4.661,0,8.826,0,13.191,0c0,4.33,0,8.484,0,12.736c8.832,0,17.453,0,26.078,0
			c0,4.296,0,8.594,0,13.271c4.298,0,8.527,0,12.756,0l-0.052-0.041c0,4.186,0,8.368,0,12.757c-4.237,0-8.397,0-12.766,0
			c0,4.356,0,8.517,0,12.86c-8.749,0-17.288,0-25.931,0c0-4.287,0-8.53-0.004-12.778c4.232-0.002,8.465-0.002,12.669-0.002
			c0-4.465,0-8.626,0-12.794c-4.292,0-8.445,0-12.604,0c0,4.381,0,8.622,0,12.863c-4.309,0-8.613,0-13.133,0
			c0-4.404,0-8.561,0-12.86c-4.361,0-8.518,0-12.965,0c0,0.663,0,1.366,0,2.07c0,7.178,0.002,14.354-0.01,21.532
			c0,0.86-0.104,1.72-0.16,2.578l0.033-0.044c-0.955-0.128-1.908-0.351-2.866-0.364c-3.247-0.047-6.491-0.017-9.951-0.017
			c0-4.406,0-8.576,0-12.863c-4.374,0-8.534,0-12.847,0c0,17.174,0,34.36,0,51.733c4.21,0,8.379,0,12.686,0
			c0,4.341,0,8.497,0,12.886c-8.503,0-16.976,0-25.67,0c0,8.711,0,17.191,0,26.081c-4.571,0-8.925,0-13.274,0
			c0-4.291,0-8.578,0-12.843c-4.293,0-8.446,0-12.608,0c0,4.302,0,8.456,0,12.778c4.308,0,8.484,0,12.666,0
			c0.033,7.782,0.068,15.564,0.103,23.347c0.003,0.782,0,1.565,0,2.582c4.396,0,8.609,0,12.907,0c0,4.394,0,8.548,0,12.917
			c-4.279,0-8.441,0-13.141,0c0,4.554,0,8.896,0,13.244l0.043-0.039c-4.166,0-8.329,0-12.675,0c0-4.545,0-8.71,0-13.027
			c-4.396,0-8.604,0-13.048,0c0,8.583,0,17.063,0,25.649c-17.307,0-34.383,0-51.757,0c0-4.188,0-8.396,0-12.773
			c-4.459,0-8.627,0-12.932,0c0-8.66,0-17.146,0-26.129c4.365,0,8.785,0,13.199,0.005c-0.106,2.971-0.229,5.938-0.31,8.912
			c-0.04,1.361-0.009,2.723-0.009,4.304c4.517,0,8.673,0,12.996,0c0,4.389,0,8.557,0,12.724c8.719,0,17.254,0,25.965,0
			c0-8.66,0-17.153,0-25.829c4.334,0,8.5,0,12.701,0c0-12.999,0-25.808,0-38.682c-8.609,0-17.088,0-25.646,0
			c0,4.298,0,8.461,0,12.867c4.338,0,8.561,0,12.724,0c0,4.404,0,8.563,0,12.928c-8.624,0-17.113,0-25.858,0
			c0,4.419,0,8.635,0,12.813c-4.372,0-8.486,0-12.603,0c-0.094-0.442-0.267-0.882-0.267-1.324c-0.012-12.1-0.01-24.199-0.003-36.299
			c0-0.262,0.052-0.524,0.109-1.063c4.194,0,8.399,0,12.825,0c0-4.581,0-8.886,0-13.188l-0.06,0.064c17.252,0,34.501,0,52.089,0
			c0-4.391,0-8.552-0.002-12.722c0.721-0.048,1.447-0.132,2.172-0.134c7.124-0.011,14.247-0.003,21.372-0.011
			c0.696,0,1.396-0.063,2.087-0.096c0-4.391,0-8.55,0-12.922c-0.86,0-1.575,0-2.293,0c-7.056,0-14.114,0.009-21.17-0.013
			c-0.709,0-1.42-0.167-2.135-0.254c-0.004-4.146-0.004-8.298-0.004-12.537c-4.598,0-8.803,0-13.09,0c0,4.265,0,8.411,0,12.496
			c4.457,0,8.798,0,13.133,0c-0.004,4.511-0.01,9.022-0.016,13.535c-0.724-0.069-1.445-0.195-2.166-0.195
			c-7.252-0.015-14.504-0.009-21.756-0.009c-0.703,0-1.406,0-2.275,0c0-4.458,0-8.628,0-12.85c-4.371,0-8.57,0-12.996,0
			c0,4.33,0,8.491,0,12.869c-4.465,0-8.707,0-12.95,0l0.054,0.057c0-4.287,0-8.574,0-13.247c-4.41,0-8.621,0-12.832,0l0.043,0.039
			c0-4.208,0-8.419,0-12.832c-4.675,0-8.961,0-13.248,0l0.055,0.057c0-4.28,0.003-8.561,0.003-12.841l-0.075,0.078
			c0.451-0.081,0.899-0.234,1.352-0.236c7.691-0.016,15.383-0.018,23.074,0.004c0.49,0.002,0.98,0.229,1.475,0.349
			c0.004,4.15,0.004,8.303,0.004,12.503c4.55,0,8.706,0,12.938,0c0-4.3,0-8.498,0-12.864c-3.544,0-6.922-0.026-10.3,0.02
			c-0.894,0.011-1.787,0.251-2.678,0.384c0.073-4.484,0.146-8.969,0.218-13.453l-0.057,0.057c4.244,0,8.49,0,12.953,0
			c0-8.671,0-17.158,0-25.79c4.371,0,8.524,0,12.936,0c0,8.495,0,17.036,0,25.684c4.408,0,8.566,0,12.956,0
			c0-12.85,0-25.658,0-38.497c4.587,0,8.94,0,13.293,0L277.194,277.237z M302.762,341.789c0-8.726,0-17.26,0-25.758
			c-8.654,0-17.141,0-25.641,0c0,4.305,0,8.47,0,12.863c4.265,0,8.425,0,12.845,0c0,4.437,0,8.649,0,12.895
			C294.352,341.789,298.473,341.789,302.762,341.789z"/>
		<path fill-rule="evenodd" clip-rule="evenodd" d="M341.635,329.3c0.623-0.144,1.248-0.401,1.872-0.41
			c3.65-0.037,7.298-0.018,11.166-0.018c0,4.358,0,8.522,0,12.881c13.042,0,25.864,0,38.905,0c0,4.35,0,8.511,0,12.841
			c8.701,0,17.18,0,25.835,0c0-4.191,0-8.396,0-12.774c-4.253,0-8.428,0-12.711,0c0-4.328,0-8.491,0-12.877
			c4.223,0,8.385,0,12.838,0c0-4.429,0-8.642,0-12.95c4.456,0,8.616,0,12.95,0c0,4.25,0,8.42,0,12.811c4.332,0,8.498,0,12.799,0
			c0,4.511,0,8.8,0,13.089l0.07-0.065c-4.232,0-8.464,0-12.682,0c0,13.102,0,25.916,0,38.827c4.314,0,8.498,0,12.685,0l-0.067-0.063
			c0,4.422,0,8.843,0,13.264l0.07-0.064c-4.227,0-8.449,0-12.854,0c0,4.356,0,8.511,0,12.917c-4.387,0-8.591,0-12.924,0
			c0,1.045,0,1.839,0,2.632c0,11.03-0.002,22.063,0.006,33.092c0,0.993,0.092,1.986,0.141,2.975l0.088-0.076
			c-4.187,0.065-8.373,0.152-12.56,0.183c-4.444,0.03-8.888,0.007-13.578,0.007c0-8.685,0-17.165,0-25.767
			c-4.417,0-8.582,0-12.987,0c0,8.541,0,17.023,0,25.738c-4.389,0-8.545,0-12.822,0c0,4.397,0,8.563,0,12.937
			c4.135,0,8.295,0,12.613,0c0,4.358,0,8.513,0,12.839c-8.463,0-16.997,0-25.764,0c0-0.833,0-1.613,0-2.396
			c0-11.386,0.006-22.77-0.016-34.153c0-0.771-0.212-1.54-0.32-2.308c4.413,0.005,8.824,0.005,13.225,0.005
			c0-4.287,0-8.442,0-12.677c-4.295,0-8.457,0-12.886,0c0,2.407,0.039,4.712-0.013,7.02c-0.045,1.893-0.199,3.783-0.306,5.676
			c-4.187,0.062-8.376,0.122-12.563,0.183l0.067,0.059c-0.036-5.191-0.094-10.384-0.106-15.575
			c-0.018-6.993-0.006-13.988-0.006-20.981c0-0.718,0-1.438,0-2.378c4.335,0,8.491,0,12.784,0c0-8.711,0-17.197,0-25.893
			c-4.187,0-8.349,0-12.751,0c0-4.417,0-8.637,0-13.069c-4.401,0-8.566,0-12.862,0c0-4.373,0-8.532,0-12.871
			c4.202,0,8.373,0,12.705,0c0-4.339,0-8.498-0.003-12.652C341.668,329.256,341.635,329.3,341.635,329.3z M406.523,367.929
			c-13.014,0-25.826,0-38.633,0c0,12.947,0,25.758,0,38.566c12.947,0,25.758,0,38.633,0
			C406.523,393.598,406.523,380.835,406.523,367.929z"/>
		<path fill-rule="evenodd" clip-rule="evenodd" d="M341.786,186.402c4.241,0,8.481,0,12.933,0c0-4.506,0-8.671,0-12.981
			c4.367,0,8.527,0,12.932,0c0,21.444,0,42.907,0,64.489c0.73,0.084,1.233,0.197,1.736,0.197c7.458,0.011,14.916-0.024,22.377,0.036
			c1.445,0.012,1.997-0.349,1.948-1.891c-0.106-3.586-0.033-7.18-0.033-11.011c-4.331,0-8.549,0-12.896,0c0-8.734,0-17.226,0-25.877
			c8.485,0,16.974,0,25.747,0c0,12.789,0,25.651,0,38.645c0.927,0.043,1.575,0.102,2.223,0.104
			c7.192,0.005,14.387,0.016,21.578-0.015c0.686-0.002,1.369-0.245,2.061-0.375c0.003,0.004-0.023-0.035-0.023-0.035
			c0.06,0.861,0.169,1.72,0.169,2.578c0.013,11.449,0.007,22.896,0.007,34.345c0,0.72,0,1.442,0,2.368c4.301,0,8.461,0,12.774,0
			c0,4.356,0,8.509,0,12.864c-4.12,0-8.282,0-12.672,0c0,4.415,0,8.633,0,13.229c-8.858,0-17.482,0-26.107,0l0.052,0.041
			c-0.021-4.423-0.043-8.847-0.063-13.271c4.292,0,8.588,0,12.911,0c0-12.997,0-25.808,0-38.631c-4.316,0-8.485,0-12.852,0
			c0,4.265,0,8.426,0,12.806c-4.353,0-8.509,0-12.752,0c0,4.528,0,8.828,0,13.128c-4.352,0-8.704,0-13.232,0
			c0-4.586,0-8.75,0-13.128c-1.894,0-3.605,0.012-5.316-0.002c-6.908-0.045-13.814-0.098-20.721-0.147l0.066,0.065
			c0-4.229,0-8.457,0-12.88c-4.354,0-8.513,0-12.745,0c0-4.367,0-8.537,0-13.004c4.293,0,8.503,0,12.663,0
			c0-13.104,0-25.907,0-38.931c-4.33,0-8.486,0-12.709,0c0-4.404,0-8.591,0-12.778L341.786,186.402z"/>
		<path fill-rule="evenodd" clip-rule="evenodd" d="M95.621,186.182c0-30.242,0-60.322,0-90.512c30.181,0,60.26,0,90.489,0
			c0,30.145,0,60.265,0,90.512C155.966,186.182,125.896,186.182,95.621,186.182z M108.55,108.52c0,21.64,0,43.109,0,64.598
			c21.604,0,43.068,0,64.504,0c0-21.614,0-43.077,0-64.598C151.509,108.52,130.144,108.52,108.55,108.52z"/>
		<path fill-rule="evenodd" clip-rule="evenodd" d="M471.261,186.196c-30.179,0-60.254,0-90.47,0c0-30.145,0-60.213,0-90.464
			c30.098,0,60.215,0,90.47,0C471.261,125.843,471.261,155.966,471.261,186.196z M458.346,173.154c0-21.61,0-43.075,0-64.53
			c-21.611,0-43.074,0-64.555,0c0,21.581,0,42.998,0,64.53C415.32,173.154,436.74,173.154,458.346,173.154z"/>
		<path fill-rule="evenodd" clip-rule="evenodd" d="M186.153,380.828c0,30.182,0,60.251,0,90.467c-30.145,0-60.221,0-90.466,0
			c0-30.075,0-60.2,0-90.467C125.751,380.828,155.826,380.828,186.153,380.828z M173.097,458.417c0-21.58,0-43.044,0-64.541
			c-21.594,0-43.057,0-64.51,0c0,21.616,0,43.08,0,64.541C130.171,458.417,151.591,458.417,173.097,458.417z"/>
		<path fill-rule="evenodd" clip-rule="evenodd" d="M186.432,237.793c2.097,0.108,4.196,0.256,6.295,0.31
			c2.054,0.057,4.108,0.014,6.386,0.014c0-8.637,0-17.115,0-25.893c3.648,0,7.08,0,10.512,0c2.557-0.002,2.557-0.002,2.561-2.608
			c0-3.381,0-6.759,0-10.392c-4.405,0-8.615,0-12.924,0c0-13.008,0-25.76,0-38.688c8.519,0,17.053,0,25.808,0
			c0,4.185,0,8.418,0,12.648l0.054-0.041c-4.225,0-8.451,0-12.805,0c0,4.547,0,8.744,0,13.253c4.354,0,8.58,0,12.805,0l-0.054-0.046
			c0,4.185,0,8.37,0,12.826c4.364,0,8.579,0,12.878,0c0,26.063,0,51.854,0,77.757c-8.559,0-16.982,0-25.705,0
			c0-4.226,0-8.437,0-13.075c-4.58,0-8.875,0-13.174,0l0.075,0.076c0-4.216,0-8.427,0-12.844c-4.41,0-8.627,0-12.841,0l0.066,0.065
			c0.037-4.474,0.072-8.944,0.105-13.413C186.471,237.747,186.432,237.793,186.432,237.793z M212.287,250.957
			c4.399,0,8.556,0,12.708,0c0-4.311,0-8.475,0-12.72c-4.277,0-8.442,0-12.708,0C212.287,242.524,212.287,246.689,212.287,250.957z"
			/>
		<path fill-rule="evenodd" clip-rule="evenodd" d="M225.128,380.586c-8.572,0-17.146,0-25.931,0c0-4.237,0-8.396,0-12.78
			c-17.349,0-34.489,0-51.751,0c0-4.389,0-8.555,0-12.941c4.221,0,8.383,0,12.705,0c0-4.371,0-8.527,0-12.854
			c-8.454,0-16.994,0-25.709,0c0,8.474,0,16.97,0,25.621c-4.323,0-8.479,0-13.008,0c0-1.05,0-2.145,0-3.237c0-2.333,0-4.662,0-6.995
			c-0.004-2.63-0.004-2.633-2.539-2.633c-6.995,0-13.986,0-20.979,0c-0.719,0-1.439,0-2.275,0c0-4.354,0-8.513,0-12.864
			c8.52,0,17.014,0,25.793,0c0-0.9,0-1.611,0-2.32c0-7.192-0.013-14.385,0.015-21.579c0.003-0.771,0.215-1.542,0.333-2.312
			l-0.018,0.02c4.11,0,8.219,0,12.565,0c0,4.519,0,8.736,0,13.049c4.407,0,8.575,0,12.966,0c0-4.271,0-8.441,0-12.737
			c4.38,0,8.543,0,12.95,0c0,4.179,0,8.4,0,12.85c0.96,0,1.679,0,2.394,0c7.128,0,14.252-0.008,21.381,0.009
			c0.785,0.003,1.568,0.158,2.354,0.239l-0.076-0.078c0.07,4.323,0.141,8.645,0.207,12.969c-4.359-0.002-8.717-0.002-13.154-0.002
			c0,4.224,0,8.374,0,12.6c4.329,0,8.531,0,12.912,0c0-1.002-0.016-1.854,0-2.708c0.061-3.309,0.133-6.618,0.196-9.927
			c4.229-0.03,8.455-0.061,12.681-0.091l-0.055-0.057c0,4.241,0,8.485,0,12.832c4.626,0,8.937,0,13.248,0l-0.043-0.039
			c0,4.353,0,8.706,0,13.247c4.459,0,8.646,0,12.832,0l-0.054-0.057c0,4.28,0,8.561,0,12.841L225.128,380.586z"/>
		<path fill-rule="evenodd" clip-rule="evenodd" d="M303.102,199.109c-4.312,0-8.622,0-13.114,0c0,8.769,0,17.258,0,25.893
			c-4.341,0-8.5,0-12.941,0c0-4.146,0-8.355,0-12.652c-4.586,0-8.891,0-13.199,0l0.045,0.045c0-4.311,0-8.626,0-13.143
			c-4.262,0-8.421,0-12.795,0c0-13.09,0-25.979,0-38.87l-0.055,0.059c4.217,0.033,8.434,0.063,12.653,0.094
			c0.097,0.702,0.27,1.405,0.27,2.112c0.021,7.111,0.013,14.227,0.013,21.339c0,0.704,0,1.413,0,2.152c4.486,0,8.69,0,12.904,0
			c0-8.643,0-17.119,0-25.575c-4.489,0-8.852,0-13.213,0c0.103-0.844,0.293-1.685,0.293-2.528
			c0.018-15.651,0.016-31.301,0.016-46.952c0-0.782,0-1.567,0-2.486c4.359,0,8.523,0,12.949,0c0,8.506,0,17.05,0,25.84
			c8.896,0,17.532,0,26.165,0l-0.072-0.061c0,4.28-0.003,8.563-0.003,12.843l0.063-0.069c-4.354,0-8.707,0-13.041,0
			c0,13.347,0,26.15,0,39.254c4.432,0,8.736,0,13.041,0l-0.063-0.064c0,4.28,0,8.564,0,12.845L303.102,199.109z"/>
		<path fill-rule="evenodd" clip-rule="evenodd" d="M173.142,277.075c-12.842,0-25.682,0-38.699,0c0-4.37,0-8.539,0-12.883
			c-4.377,0-8.579,0-13.002,0c0,4.241,0,8.413,0,12.715c-8.695,0-17.174,0-25.789,0c0-12.869,0-25.69,0-38.652
			c4.184,0,8.346,0,12.695,0c0,4.204,0,8.369,0,12.845c0.955,0,1.721,0,2.487,0c24.313,0,48.628,0,72.938,0.003
			c0.866,0,1.729,0.034,2.596,0.054l-0.066-0.065c-0.004,4.281-0.004,8.563-0.004,12.844l0.062-0.065c-4.339,0-8.68,0-13.263,0
			c0,4.779,0,9.022,0,13.267L173.142,277.075z"/>
		<path fill-rule="evenodd" clip-rule="evenodd" d="M329.023,147.218c4.178,0,8.352,0,12.763,0c0,13.286,0,26.235,0,39.185
			l0.054-0.061c-4.276,0-8.558-0.004-12.838-0.004l0.066,0.063c0-4.337,0-8.671,0-13.004c-4.729,0-8.879,0-13.269,0
			c0,4.415,0,8.711,0,13.002l0.058-0.057c-4.28-0.002-8.561-0.004-12.841-0.004l0.063,0.064c-0.049-0.729-0.14-1.45-0.143-2.179
			c-0.009-11.631-0.009-23.263,0-34.896c0.003-0.727,0.094-1.453,0.143-2.18l-0.063,0.069c4.28-0.004,8.561-0.004,12.841-0.004
			l-0.055-0.063c0,4.352,0,8.703,0,13.127c4.466,0,8.619,0,13.029,0c0-0.989-0.018-1.901,0.004-2.813
			c0.068-3.439,0.15-6.876,0.229-10.314L329.023,147.218z"/>
		<path fill-rule="evenodd" clip-rule="evenodd" d="M458.504,393.809c0,12.834,0,25.669,0,38.694c4.266,0,8.424,0,12.735,0
			c0,4.396,0,8.595,0,12.901c-0.521,0.044-0.972,0.106-1.421,0.106c-11.979,0.007-23.957,0.007-35.932-0.002
			c-0.457,0-0.914-0.115-1.369-0.176l0.058,0.067c0-8.552,0-17.104,0-25.878c4.423,0,8.579,0,12.79,0c0-8.728,0-17.231,0-25.733
			l-0.07,0.064c4.424,0,8.846,0,13.27,0L458.504,393.809z"/>
		<path fill-rule="evenodd" clip-rule="evenodd" d="M341.846,432.613c0,8.571,0,17.144,0,25.813c-4.425,0-8.588,0-12.974,0
			c0-4.266,0-8.431,0-12.811c-4.384,0-8.546,0-12.866,0c0-17.362,0-34.499,0-51.766c4.184,0,8.346,0,12.748,0
			c0,12.841,0,25.66,0,38.818c4.541,0,8.846,0,13.156,0.002C341.913,432.672,341.846,432.613,341.846,432.613z"/>
		<path fill-rule="evenodd" clip-rule="evenodd" d="M458.625,341.947c0,8.507,0,17.011,0,25.726c4.119,0,8.273,0,12.6,0
			c0,8.732,0,17.261,0,26.136c-4.254,0-8.486,0-12.721,0l0.061,0.045c0-4.341,0-8.682,0-13.264c-4.678,0-8.973,0-13.27,0
			l0.067,0.063c0.036-8.498,0.095-16.992,0.103-25.489c0.007-4.447-0.066-8.893-0.105-13.338l-0.07,0.065
			c4.463,0.039,8.925,0.075,13.387,0.117L458.625,341.947z"/>
		<path fill-rule="evenodd" clip-rule="evenodd" d="M341.844,108.439c0-4.188,0-8.374,0-12.722c8.594,0,17.128,0,25.785,0
			c0,12.845,0,25.653,0,38.577c-8.563,0-17.052,0-25.785,0c0-4.227,0-8.457,0-12.688l-0.055,0.039c4.266,0,8.531,0,12.808,0
			c0-4.686,0-8.834,0-13.257c-4.353,0-8.581,0-12.811,0L341.844,108.439z"/>
		<path fill-rule="evenodd" clip-rule="evenodd" d="M315.861,225.162c0-4.241,0-8.482,0-12.94c-4.372,0-8.528,0-12.76,0
			c0-4.518,0-8.814,0-13.112l-0.085,0.073c4.214,0,8.427,0,12.841,0c0-4.41,0-8.625,0-12.841l-0.058,0.057
			c4.423,0,8.847,0,13.269,0.002l-0.066-0.063c-0.058,0.791-0.16,1.583-0.16,2.376c-0.01,11.321-0.006,22.645-0.006,33.966
			c0,0.78,0,1.559,0,2.428c-4.521,0-8.777,0-13.033,0L315.861,225.162z"/>
		<path fill-rule="evenodd" clip-rule="evenodd" d="M134.405,225.079c-8.578,0-17.154,0-25.858,0c0-8.58,0-17.071,0-25.721
			c8.491,0,16.979,0,25.802,0c0,8.541,0,17.16,0,25.777L134.405,225.079z"/>
		<path fill-rule="evenodd" clip-rule="evenodd" d="M432.518,445.333c0,8.63,0,17.26,0,25.994c-12.975,0-25.776,0-38.709,0
			c0-4.229,0-8.383,0-12.732c8.513,0,16.998,0,26.014,0c0-4.549,0-8.908,0-13.267l-0.088,0.076c4.28-0.002,8.561-0.002,12.841-0.004
			L432.518,445.333z"/>
		<path fill-rule="evenodd" clip-rule="evenodd" d="M237.679,108.235c0.131,0.366,0.371,0.735,0.371,1.104
			c0.021,8.255,0.014,16.51,0.014,24.917c-4.319,0-8.533,0-12.938,0c0-4.196,0-8.359,0-12.752c-4.345,0-8.504,0-12.8,0
			c0-8.715,0-17.197,0-25.816c4.193,0,8.355,0,12.714,0c0,4.165,0,8.326,0,12.563c4.348,0,8.498,0,12.648,0L237.679,108.235z"/>
		<path fill-rule="evenodd" clip-rule="evenodd" d="M458.676,342.009c-0.063-3.921-0.15-7.839-0.178-11.757
			c-0.031-4.712-0.01-9.422-0.01-14.305c-4.362,0-8.53,0-12.855,0c0-4.326,0-8.479,0-12.803c8.484,0,16.963,0,25.604,0
			c0,12.761,0,25.576,0,38.797c-4.162,0-8.389,0-12.615,0.002C458.625,341.947,458.676,342.009,458.676,342.009z"/>
		<path fill-rule="evenodd" clip-rule="evenodd" d="M173.015,303.208c-0.785-0.078-1.566-0.222-2.348-0.224
			c-11.26-0.015-22.52-0.011-33.777-0.011c-0.778,0-1.561,0-2.43,0c0-4.41,0-8.582,0-13.027c0.755,0,1.463,0,2.166,0
			c11.394,0,22.783,0.002,34.178-0.011c0.717,0,1.433-0.137,2.153-0.208c0.003,0.002-0.018-0.022-0.018-0.022
			c0.009,4.517,0.018,9.034,0.03,13.546C172.972,303.249,173.015,303.208,173.015,303.208z"/>
		<path fill-rule="evenodd" clip-rule="evenodd" d="M225.149,315.825c-4.24,0-8.479,0-12.947,0c0-4.27,0-8.422,0-12.782
			c-4.377,0-8.536,0-12.869,0c0-4.406,0-8.61,0-12.958c8.48,0,16.962,0,25.756,0c0,8.576,0,17.187,0.004,25.797L225.149,315.825z"/>
		<path fill-rule="evenodd" clip-rule="evenodd" d="M303.053,121.625c-4.305,0-8.609,0-13.029,0c0-8.871,0-17.352,0-25.948
			c8.582,0,17.073,0,25.691,0c0,4.18,0,8.339,0,12.71c-4.141,0-8.297,0-12.707,0c0,4.567,0,8.926,0,13.284L303.053,121.625z"/>
		<path fill-rule="evenodd" clip-rule="evenodd" d="M303.008,121.671c1.848-0.067,3.695-0.181,5.543-0.189
			c6.037-0.023,12.074-0.02,18.113,0.007c0.848,0.005,1.695,0.188,2.541,0.291l-0.033-0.03c-0.112,0.427-0.321,0.858-0.321,1.287
			c-0.019,7.741-0.013,15.48-0.003,23.217c0.003,0.321,0.115,0.645,0.176,0.965l0.042-0.066c-4.419,0-8.843,0-13.263,0l0.055,0.063
			c0-4.23,0-8.461,0-12.839c-4.471,0-8.654,0-12.838,0l0.072,0.061c-0.012-4.27-0.023-8.541-0.039-12.811L303.008,121.671z"/>
		<path fill-rule="evenodd" clip-rule="evenodd" d="M121.782,315.691c-3.523,0.064-7.043,0.134-10.566,0.197
			c-0.848,0.015-1.699,0.002-2.738,0.002c0,4.341,0,8.511,0,12.83c-4.341,0-8.494,0-12.805,0c0-8.491,0-16.968,0-25.598
			c8.473,0,16.955,0,25.764,0c0,3.166-0.027,6.334,0.016,9.5c0.012,1.032,0.199,2.062,0.309,3.09
			C121.765,315.711,121.782,315.691,121.782,315.691z"/>
		<path fill-rule="evenodd" clip-rule="evenodd" d="M445.181,225.008c0.097-2.502,0.218-5.007,0.284-7.511
			c0.043-1.652,0.01-3.307,0.01-5.115c8.66,0,17.141,0,25.771,0c0,8.463,0,16.939,0,25.58c-4.165,0-8.319,0-12.663,0
			c0-4.148,0-8.315,0-12.99c-4.602,0-9.021,0-13.441,0L445.181,225.008z"/>
		<path fill-rule="evenodd" clip-rule="evenodd" d="M315.857,277.086c-4.187,0-8.373,0-12.668,0
			c-0.104-0.573-0.246-1.004-0.246-1.438c-0.012-7.855-0.009-15.716,0-23.574c0-0.325,0.088-0.652,0.137-0.979l-0.061,0.052
			c4.22,0,8.439,0,12.783,0c0,8.784,0,17.386,0,25.987L315.857,277.086z"/>
		<path fill-rule="evenodd" clip-rule="evenodd" d="M289.672,458.737c1.188-0.069,2.375-0.194,3.566-0.197
			c7.448-0.017,14.897-0.008,22.477-0.008c0,4.293,0,8.449,0,12.756c-8.53,0-17.067,0-25.992,0c0-4.263,0-8.429-0.002-12.594
			C289.715,458.698,289.672,458.737,289.672,458.737z"/>
		<path fill-rule="evenodd" clip-rule="evenodd" d="M432.678,224.984c-4.298,0-8.596,0-12.98,0c0-8.557,0-17.046,0-25.658
			c4.266,0,8.426,0,12.936,0c0,8.6,0,17.158-0.003,25.719C432.627,225.052,432.678,224.984,432.678,224.984z"/>
		<path fill-rule="evenodd" clip-rule="evenodd" d="M147.002,225.025c0.105-2.025,0.257-4.051,0.31-6.08
			c0.051-2.171,0.012-4.346,0.012-6.722c1.424,0,2.605,0,3.789,0c6.632,0,13.266-0.005,19.896,0.011c0.722,0,1.439,0.115,2.16,0.178
			l-0.039-0.046c-0.07,4.315-0.139,8.631-0.206,12.943l0.042-0.032c-7.752-0.044-15.498-0.081-23.247-0.137
			c-0.924-0.005-1.845-0.104-2.766-0.161C146.956,224.984,147.002,225.025,147.002,225.025z"/>
		<path fill-rule="evenodd" clip-rule="evenodd" d="M458.661,263.763c2.911,0.085,5.823,0.181,8.733,0.248
			c1.248,0.03,2.5,0.006,3.872,0.006c0,8.697,0,17.187,0,25.802c-4.199,0-8.355,0-12.551,0c-0.069-0.191-0.194-0.371-0.194-0.547
			c-0.015-8.191-0.021-16.384-0.012-24.576c0-0.325,0.125-0.646,0.191-0.969L458.661,263.763z"/>
		<path fill-rule="evenodd" clip-rule="evenodd" d="M173.169,212.412c0-4.305,0-8.606,0-13.06c4.43,0,8.631,0,12.963,0
			c0,4.199,0,8.352,0,13.014c-4.32,0-8.66,0-13.005,0C173.13,212.366,173.169,212.412,173.169,212.412z"/>
		<path fill-rule="evenodd" clip-rule="evenodd" d="M303.08,251.094c-4.308,0-8.612,0-13.048,0c0-4.326,0-8.485,0-13.155
			c4.335,0,8.686,0,13.038,0l-0.045-0.037c0,4.417-0.003,8.829-0.006,13.244L303.08,251.094z"/>
		<path fill-rule="evenodd" clip-rule="evenodd" d="M251.097,160.382c-4.25,0-8.498,0-12.885,0c0-4.316,0-8.478,0-12.832
			c4.188,0,8.389,0,12.83,0c0,4.302,0,8.596,0,12.891L251.097,160.382z"/>
		<path fill-rule="evenodd" clip-rule="evenodd" d="M225.068,173.185c4.237,0,8.476,0,12.862,0c0,4.453,0,8.608,0,13.166
			c-4.296,0-8.579,0-12.862,0l0.054,0.046c0-4.417,0-8.837,0-13.253L225.068,173.185z"/>
		<path fill-rule="evenodd" clip-rule="evenodd" d="M172.924,225.31c4.365,0,8.728,0,13.499,0c0,4.179,0,8.333,0.003,12.485
			c0.006-0.002,0.045-0.048,0.048-0.052c-1.227,0.125-2.456,0.338-3.689,0.359c-3.102,0.053-6.207,0.016-9.809,0.016
			c0-4.441,0-8.646-0.006-12.846C172.966,225.277,172.924,225.31,172.924,225.31z"/>
		<path fill-rule="evenodd" clip-rule="evenodd" d="M458.701,263.727c-4.299,0-8.598,0-13.063,0c0-4.014,0-8.164,0-12.473
			c4.197,0,8.406,0,13.017,0c0,4.189,0,8.353,0.003,12.514C458.661,263.763,458.701,263.727,458.701,263.727z"/>
		<path fill-rule="evenodd" clip-rule="evenodd" d="M199.067,263.858c0,4.307,0,8.613,0,13.219c-4.296,0-8.525,0-12.757,0
			l0.049,0.059c0-4.422,0-8.845,0-13.267l-0.062,0.065c4.281,0,8.564,0,12.845,0L199.067,263.858z"/>
		<path fill-rule="evenodd" clip-rule="evenodd" d="M277.23,277.278c0-4.345,0-8.695,0-13.148c4.155,0,8.304,0,12.563,0
			c0,4.271,0,8.431,0,13.099c-4.198,0-8.403,0-12.602,0.005C277.194,277.237,277.23,277.278,277.23,277.278z"/>
		<path fill-rule="evenodd" clip-rule="evenodd" d="M186.311,277.077c0,4.174,0,8.353,0,12.633c-4.568,0-8.97,0-13.371-0.002
			c0-0.003,0.021,0.021,0.018,0.02c0.061-4.218,0.122-8.434,0.185-12.652l-0.045,0.061c4.42,0,8.842,0,13.263,0L186.311,277.077z"/>
		<path fill-rule="evenodd" clip-rule="evenodd" d="M186.493,315.706c-4.354,0-8.705,0-13.473,0c0-4.2,0-8.353-0.003-12.5
			c-0.003,0.002-0.046,0.043-0.048,0.045c4.338,0.002,8.679,0.002,13.48,0.002c0,4.099,0,8.301,0,12.503L186.493,315.706z"/>
		<path fill-rule="evenodd" clip-rule="evenodd" d="M237.688,108.251c0.131-0.881,0.357-1.761,0.369-2.644
			c0.046-3.242,0.019-6.488,0.019-9.893c4.356,0,8.555,0,12.868,0c0,4.175,0,8.322,0,12.522c-4.441,0-8.852,0-13.262-0.002
			C237.679,108.235,237.688,108.251,237.688,108.251z"/>
		<path fill-rule="evenodd" clip-rule="evenodd" d="M186.45,315.756c4.156,0,8.313,0,12.617,0c0,4.662,0,9.012,0,13.364l0.075-0.078
			c-4.28,0-8.563,0-12.845,0l0.076,0.078c0.037-4.47,0.076-8.938,0.115-13.409C186.493,315.706,186.45,315.756,186.45,315.756z"/>
		<path fill-rule="evenodd" clip-rule="evenodd" d="M329.205,121.779c-0.125-1.501-0.327-2.999-0.357-4.502
			c-0.058-2.841-0.016-5.684-0.016-8.836c4.45,0,8.731,0,13.012-0.002l-0.058-0.05c0,4.421,0.003,8.838,0.003,13.257l0.055-0.039
			c-4.227,0.046-8.453,0.091-12.676,0.137C329.172,121.749,329.205,121.779,329.205,121.779z"/>
		<path fill-rule="evenodd" clip-rule="evenodd" d="M212.063,134.576c0,4.244,0,8.396,0,12.666c-4.284,0-8.44,0-12.751,0
			c0-4.191,0-8.344,0-12.666C203.456,134.576,207.665,134.576,212.063,134.576z"/>
		<path fill-rule="evenodd" clip-rule="evenodd" d="M445.141,224.972c0.113,1.832,0.279,3.662,0.322,5.498
			c0.057,2.444,0.015,4.89,0.015,7.83c-4.499-0.208-8.804-0.407-13.108-0.609c-0.002-0.002,0.024,0.037,0.021,0.033
			c0.049-3.52,0.094-7.037,0.158-10.554c0.012-0.727,0.081-1.453,0.129-2.184c0-0.002-0.051,0.065-0.048,0.059
			c4.187-0.013,8.374-0.021,12.554-0.035C445.181,225.008,445.141,224.972,445.141,224.972z"/>
		<path fill-rule="evenodd" clip-rule="evenodd" d="M303.07,237.938c0-4.164,0-8.325,0-12.776c4.242,0,8.516,0,12.791,0
			l-0.059-0.055c0,4.296,0,8.592,0,12.794c-4.428,0-8.6,0-12.777,0L303.07,237.938z"/>
		<path fill-rule="evenodd" clip-rule="evenodd" d="M134.349,225.136c4.219-0.034,8.439-0.069,12.656-0.106
			c-0.003-0.004-0.049-0.045-0.052-0.05c0.122,1.299,0.33,2.594,0.354,3.896c0.055,2.978,0.019,5.961,0.019,9.093
			c-4.36,0-8.519,0-12.924,0c0-4.285,0-8.587,0-12.89C134.405,225.079,134.349,225.136,134.349,225.136z"/>
		<path fill-rule="evenodd" clip-rule="evenodd" d="M263.847,212.35c0,4.174,0,8.348,0,12.66c-4.146,0-8.303,0-12.623,0
			c0-4.13,0-8.33,0-12.615c4.234,0,8.451,0,12.668,0L263.847,212.35z"/>
		<path fill-rule="evenodd" clip-rule="evenodd" d="M471.309,458.664c0,4.218,0,8.32,0,12.596c-4.189,0-8.385,0-12.702,0
			c0-4.161,0-8.309,0-12.596C462.781,458.664,466.928,458.664,471.309,458.664z"/>
		<path fill-rule="evenodd" clip-rule="evenodd" fill="#FFFFFF" d="M445.348,160.266c0-12.952,0-25.765,0-38.662
			c-12.938,0-25.746,0-38.64,0c0,12.938,0,25.753,0,38.662C419.586,160.266,432.348,160.266,445.348,160.266z"/>
		<path fill-rule="evenodd" clip-rule="evenodd" d="M393.752,277.072c4.168,0,8.336,0,12.841,0c0,4.311,0,8.576,0,12.844
			c-4.28,0.002-8.562,0.002-12.841,0.002C393.752,285.638,393.752,281.353,393.752,277.072z"/>
		<path fill-rule="evenodd" clip-rule="evenodd" d="M393.524,393.64c-4.339,0-8.452,0-12.72,0c0-4.292,0-8.5,0-12.831
			c4.23,0,8.394,0,12.72,0C393.524,385.046,393.524,389.257,393.524,393.64z"/>
		<path fill-rule="evenodd" clip-rule="evenodd" d="M160.226,121.604c0,12.997,0,25.76,0,38.638c-12.908,0-25.721,0-38.661,0
			c0-12.889,0-25.697,0-38.638C134.46,121.604,147.271,121.604,160.226,121.604z"/>
		<path fill-rule="evenodd" clip-rule="evenodd" d="M445.348,160.266c-13,0-25.762,0-38.64,0c0-12.909,0-25.724,0-38.662
			c12.894,0,25.701,0,38.64,0C445.348,134.501,445.348,147.313,445.348,160.266z"/>
		<path fill-rule="evenodd" clip-rule="evenodd" d="M121.543,445.333c0-12.839,0-25.602,0-38.534c12.823,0,25.634,0,38.608,0
			c0,12.732,0,25.544,0,38.534C147.401,445.333,134.597,445.333,121.543,445.333z"/>
	</g>
	
		<rect x="23.956" y="24.022" fill-rule="evenodd" clip-rule="evenodd" fill="none" stroke="#394F61" stroke-width="2" stroke-miterlimit="10" width="519.019" height="518.885"/>
</g>
</svg>
