<?xml version="1.0" encoding="utf-8"?>
<!-- Generator: Adobe Illustrator 16.0.0, SVG Export Plug-In . SVG Version: 6.00 Build 0)  -->
<!DOCTYPE svg PUBLIC "-//W3C//DTD SVG 1.1//EN" "http://www.w3.org/Graphics/SVG/1.1/DTD/svg11.dtd">
<svg version="1.1" id="Layer_1" xmlns="http://www.w3.org/2000/svg" xmlns:xlink="http://www.w3.org/1999/xlink" x="0px" y="0px"
	 width="566.929px" height="566.929px" viewBox="0 0 566.929 566.929" enable-background="new 0 0 566.929 566.929"
	 xml:space="preserve">
<g>
	<g>
		<path fill="#394F61" d="M443.165,528.08c-52.782,0-95.715-42.935-95.715-95.715s42.933-95.713,95.715-95.713
			c52.78,0,95.713,42.933,95.713,95.713S495.945,528.08,443.165,528.08z M443.165,352.604c-43.979,0-79.76,35.783-79.76,79.76
			c0,43.979,35.78,79.763,79.76,79.763s79.761-35.783,79.761-79.763C522.926,388.387,487.145,352.604,443.165,352.604z"/>
		<path fill="#394F61" d="M443.165,440.342c-4.41,0-7.975-3.567-7.975-7.978v-47.855c0-4.41,3.564-7.978,7.975-7.978
			s7.978,3.567,7.978,7.978v47.855C451.143,436.774,447.575,440.342,443.165,440.342z"/>
		<path fill="#394F61" d="M491.021,440.342h-47.855c-4.41,0-7.975-3.567-7.975-7.978s3.564-7.975,7.975-7.975h47.855
			c4.41,0,7.978,3.565,7.978,7.975S495.431,440.342,491.021,440.342z"/>
		<path fill="#9FCA3B" d="M283.643,528.08c-17.597,0-31.906-14.31-31.906-31.905s14.31-31.905,31.906-31.905
			c17.596,0,31.904,14.309,31.904,31.905S301.238,528.08,283.643,528.08z M283.643,480.222c-8.795,0-15.952,7.16-15.952,15.953
			s7.157,15.953,15.952,15.953c8.793,0,15.952-7.16,15.952-15.953S292.436,480.222,283.643,480.222z"/>
		<path fill="#394F61" d="M331.5,456.292H156.023c-4.409,0-7.973-3.565-7.973-7.975c0-4.41,3.563-7.975,7.973-7.975H331.5
			c4.405,0,7.975,3.565,7.975,7.975C339.475,452.727,335.905,456.292,331.5,456.292z"/>
		<path fill="#394F61" d="M384.093,552.007H183.193c-19.381,0-35.143-15.763-35.143-35.145V108.576
			c0-19.372,15.762-35.138,35.143-35.138h200.899c19.38,0,35.145,15.766,35.145,35.138v204.148c0,4.407-3.567,7.975-7.978,7.975
			c-4.409,0-7.973-3.568-7.973-7.975V108.576c0-10.578-8.61-19.185-19.194-19.185H183.193c-10.588,0-19.193,8.607-19.193,19.185
			v408.286c0,10.586,8.605,19.192,19.193,19.192h200.899c4.405,0,7.978,3.567,7.978,7.977
			C392.07,548.439,388.498,552.007,384.093,552.007z"/>
		<path fill="#394F61" d="M411.26,137.248H156.023c-4.409,0-7.973-3.567-7.973-7.975c0-4.41,3.563-7.978,7.973-7.978H411.26
			c4.41,0,7.978,3.567,7.978,7.978C419.237,133.68,415.67,137.248,411.26,137.248z"/>
		<path fill="#9FCA3B" d="M283.643,113.32h-31.906c-4.408,0-7.976-3.569-7.976-7.978s3.567-7.975,7.976-7.975h31.906
			c4.407,0,7.975,3.566,7.975,7.975S288.05,113.32,283.643,113.32z"/>
		<path fill="#9FCA3B" d="M315.547,113.32h-7.977c-4.408,0-7.976-3.569-7.976-7.978s3.567-7.975,7.976-7.975h7.977
			c4.408,0,7.976,3.566,7.976,7.975S319.955,113.32,315.547,113.32z"/>
	</g>
	<g>
		<path fill="#9FCA3B" d="M382.449,57.943l-1.859-1.027c-8.979-4.967-14.127-12.433-14.127-20.483
			c0-8.05,5.148-15.517,14.127-20.483l1.859-1.027l1.86,1.027c8.978,4.967,14.127,12.433,14.127,20.483
			c0,8.05-5.149,15.516-14.124,20.483L382.449,57.943z M382.449,19.487c-7.622,4.239-11.99,10.413-11.99,16.946
			c0,6.532,4.368,12.705,11.99,16.945c7.621-4.239,11.991-10.413,11.991-16.945C394.44,29.9,390.07,23.727,382.449,19.487z"/>
		<path fill="#394F61" d="M382.449,77.639c-1.104,0-1.998-0.894-1.998-1.998V43.672c0-1.103,0.895-1.998,1.998-1.998
			c1.104,0,1.998,0.896,1.998,1.998v31.969C384.447,76.745,383.554,77.639,382.449,77.639z"/>
		<path fill="#394F61" d="M382.449,45.67c-0.512,0-1.022-0.194-1.411-0.585l-5.994-5.994c-0.781-0.78-0.781-2.045,0-2.825
			c0.778-0.781,2.045-0.781,2.823,0l5.994,5.994c0.781,0.78,0.781,2.045,0,2.825C383.472,45.476,382.96,45.67,382.449,45.67z"/>
		<path fill="#394F61" d="M382.449,45.67c-0.512,0-1.022-0.194-1.411-0.585c-0.781-0.78-0.781-2.045,0-2.825l5.994-5.994
			c0.781-0.781,2.045-0.781,2.823,0c0.781,0.78,0.781,2.045,0,2.825l-5.994,5.994C383.472,45.476,382.96,45.67,382.449,45.67z"/>
		<path fill="#394F61" d="M382.449,45.67c-1.104,0-1.998-0.894-1.998-1.998v-9.99c0-1.103,0.895-1.998,1.998-1.998
			c1.104,0,1.998,0.896,1.998,1.998v9.99C384.447,44.776,383.554,45.67,382.449,45.67z"/>
		<path fill="#9FCA3B" d="M354.836,69.602l-1.555-0.859c-7.509-4.155-11.815-10.4-11.815-17.134c0-6.734,4.307-12.98,11.815-17.134
			l1.555-0.86l1.558,0.86c7.509,4.154,11.815,10.399,11.815,17.134c0,6.733-4.307,12.979-11.815,17.133L354.836,69.602z
			 M354.836,37.434c-6.376,3.546-10.029,8.71-10.029,14.175s3.653,10.627,10.029,14.174c6.376-3.545,10.03-8.709,10.03-14.174
			S361.212,40.98,354.836,37.434z"/>
		<path fill="#394F61" d="M354.836,86.076c-0.924,0-1.67-0.748-1.67-1.67V57.665c0-0.922,0.746-1.671,1.67-1.671
			s1.671,0.749,1.671,1.671v26.741C356.507,85.329,355.76,86.076,354.836,86.076z"/>
		<path fill="#394F61" d="M354.836,59.336c-0.429,0-0.854-0.164-1.18-0.49l-5.014-5.014c-0.655-0.653-0.655-1.71,0-2.363
			c0.65-0.653,1.71-0.653,2.362,0l5.014,5.014c0.653,0.651,0.653,1.71,0,2.363C355.691,59.172,355.265,59.336,354.836,59.336z"/>
		<path fill="#394F61" d="M354.836,59.336c-0.429,0-0.854-0.164-1.18-0.49c-0.653-0.653-0.653-1.711,0-2.363l5.014-5.014
			c0.652-0.653,1.71-0.653,2.362,0c0.653,0.653,0.653,1.71,0,2.363l-5.014,5.014C355.691,59.172,355.265,59.336,354.836,59.336z"/>
		<path fill="#394F61" d="M354.836,59.336c-0.924,0-1.67-0.749-1.67-1.672v-8.357c0-0.922,0.746-1.671,1.67-1.671
			s1.671,0.749,1.671,1.671v8.357C356.507,58.587,355.76,59.336,354.836,59.336z"/>
	</g>
</g>
</svg>
