<?xml version="1.0" encoding="utf-8"?>
<!-- Generator: Adobe Illustrator 16.0.0, SVG Export Plug-In . SVG Version: 6.00 Build 0)  -->
<!DOCTYPE svg PUBLIC "-//W3C//DTD SVG 1.1//EN" "http://www.w3.org/Graphics/SVG/1.1/DTD/svg11.dtd">
<svg version="1.1" id="Layer_1" xmlns="http://www.w3.org/2000/svg" xmlns:xlink="http://www.w3.org/1999/xlink" x="0px" y="0px"
	 width="566.929px" height="566.929px" viewBox="0 0 566.929 566.929" enable-background="new 0 0 566.929 566.929"
	 xml:space="preserve">
<g>
	<g>
		<path fill="#394F61" d="M442.477,527.98c-52.997,0-96.106-43.11-96.106-96.105c0-52.996,43.109-96.105,96.106-96.105
			c52.998,0,96.105,43.109,96.105,96.105C538.582,484.87,495.475,527.98,442.477,527.98z M442.477,351.785
			c-44.159,0-80.085,35.931-80.085,80.089c0,44.158,35.926,80.087,80.085,80.087c44.16,0,80.087-35.929,80.087-80.087
			C522.563,387.716,486.637,351.785,442.477,351.785z"/>
		<path fill="#9FCA3B" d="M282.3,527.98c-17.668,0-32.035-14.366-32.035-32.036c0-17.667,14.367-32.036,32.035-32.036
			s32.036,14.369,32.036,32.036C314.336,513.614,299.968,527.98,282.3,527.98z M282.3,479.926c-8.829,0-16.016,7.189-16.016,16.018
			c0,8.83,7.187,16.018,16.016,16.018c8.831,0,16.021-7.188,16.021-16.018C298.32,487.115,291.131,479.926,282.3,479.926z"/>
		<path fill="#394F61" d="M330.355,455.899H154.159c-4.427,0-8.005-3.579-8.005-8.008c0-4.427,3.578-8.008,8.005-8.008h176.196
			c4.424,0,8.006,3.581,8.006,8.008C338.361,452.32,334.779,455.899,330.355,455.899z"/>
		<path fill="#394F61" d="M383.163,552.007H181.441c-19.461,0-35.287-15.829-35.287-35.29V106.759
			c0-19.451,15.826-35.281,35.287-35.281h201.722c19.458,0,35.288,15.83,35.288,35.281v204.982c0,4.426-3.582,8.009-8.009,8.009
			c-4.429,0-8.006-3.583-8.006-8.009V106.759c0-10.621-8.646-19.263-19.273-19.263H181.441c-10.631,0-19.272,8.642-19.272,19.263
			v409.958c0,10.631,8.642,19.271,19.272,19.271h201.722c4.423,0,8.011,3.583,8.011,8.01
			C391.174,548.425,387.586,552.007,383.163,552.007z"/>
		<path fill="#394F61" d="M410.442,135.548H154.159c-4.427,0-8.005-3.583-8.005-8.008c0-4.427,3.578-8.009,8.005-8.009h256.283
			c4.427,0,8.009,3.582,8.009,8.009C418.451,131.966,414.869,135.548,410.442,135.548z"/>
		<path fill="#9FCA3B" d="M282.3,111.523h-32.035c-4.427,0-8.009-3.583-8.009-8.01s3.582-8.008,8.009-8.008H282.3
			c4.428,0,8.009,3.582,8.009,8.008S286.728,111.523,282.3,111.523z"/>
		<path fill="#9FCA3B" d="M314.336,111.523h-8.01c-4.425,0-8.006-3.583-8.006-8.01s3.581-8.008,8.006-8.008h8.01
			c4.427,0,8.009,3.582,8.009,8.008S318.763,111.523,314.336,111.523z"/>
		<path fill="#EB2227" d="M481.729,407.303l-66.213,69.351c-3.231,3.397-8.601,3.525-11.994,0.289
			c-3.394-3.235-3.529-8.598-0.292-11.995l66.212-69.351c3.228-3.397,8.596-3.53,11.989-0.292
			C484.83,398.542,484.962,403.906,481.729,407.303z"/>
		<path fill="#EB2227" d="M471.301,475.374l-69.353-66.208c-3.399-3.236-3.528-8.602-0.29-11.996
			c3.237-3.396,8.599-3.53,11.994-0.292l69.352,66.21c3.399,3.232,3.528,8.598,0.29,11.994
			C480.062,478.479,474.695,478.609,471.301,475.374z"/>
	</g>
	<g>
		<path fill="#9FCA3B" d="M381.514,55.92l-1.868-1.032c-9.015-4.987-14.185-12.484-14.185-20.568s5.17-15.58,14.184-20.566
			l1.869-1.032l1.866,1.032c9.015,4.987,14.185,12.483,14.185,20.567s-5.17,15.581-14.182,20.567L381.514,55.92z M381.514,17.306
			c-7.654,4.256-12.04,10.455-12.04,17.015s4.386,12.757,12.04,17.015c7.651-4.257,12.039-10.456,12.039-17.015
			S389.165,21.563,381.514,17.306z"/>
		<path fill="#394F61" d="M381.514,75.696c-1.109,0-2.008-0.898-2.008-2.006v-32.1c0-1.108,0.898-2.006,2.008-2.006
			c1.108,0,2.005,0.898,2.005,2.006v32.1C383.519,74.798,382.622,75.696,381.514,75.696z"/>
		<path fill="#394F61" d="M381.514,43.597c-0.515,0-1.027-0.196-1.419-0.588l-6.019-6.018c-0.784-0.784-0.784-2.054,0-2.837
			c0.783-0.783,2.053-0.783,2.836,0l6.019,6.019c0.784,0.783,0.784,2.053,0,2.836C382.538,43.4,382.025,43.597,381.514,43.597z"/>
		<path fill="#394F61" d="M381.514,43.597c-0.515,0-1.027-0.196-1.419-0.588c-0.785-0.783-0.785-2.053,0-2.836l6.02-6.019
			c0.784-0.783,2.052-0.783,2.835,0c0.784,0.784,0.784,2.054,0,2.837l-6.019,6.018C382.538,43.4,382.025,43.597,381.514,43.597z"/>
		<path fill="#394F61" d="M381.514,43.597c-1.109,0-2.008-0.898-2.008-2.006V31.559c0-1.108,0.898-2.006,2.008-2.006
			c1.108,0,2.005,0.898,2.005,2.006V41.59C383.519,42.699,382.622,43.597,381.514,43.597z"/>
		<path fill="#9FCA3B" d="M353.787,67.626l-1.561-0.863c-7.541-4.171-11.866-10.442-11.866-17.205
			c0-6.761,4.325-13.032,11.864-17.203l1.563-0.863l1.563,0.863c7.54,4.171,11.865,10.442,11.865,17.204
			c0,6.762-4.325,13.033-11.864,17.204L353.787,67.626z M353.787,35.327c-6.402,3.561-10.07,8.746-10.07,14.232
			c0,5.487,3.668,10.671,10.07,14.233c6.401-3.561,10.07-8.746,10.07-14.233C363.857,44.072,360.188,38.888,353.787,35.327z"/>
		<path fill="#394F61" d="M353.787,84.168c-0.928,0-1.679-0.751-1.679-1.678V55.64c0-0.927,0.751-1.678,1.679-1.678
			s1.678,0.751,1.678,1.678V82.49C355.465,83.417,354.715,84.168,353.787,84.168z"/>
		<path fill="#394F61" d="M353.787,57.318c-0.431,0-0.858-0.164-1.187-0.492l-5.034-5.034c-0.656-0.656-0.656-1.718,0-2.373
			c0.655-0.656,1.718-0.656,2.373,0l5.033,5.034c0.657,0.654,0.657,1.717,0,2.373C354.646,57.154,354.216,57.318,353.787,57.318z"/>
		<path fill="#394F61" d="M353.787,57.318c-0.431,0-0.858-0.164-1.187-0.492c-0.655-0.655-0.655-1.718,0-2.373l5.036-5.034
			c0.655-0.656,1.716-0.656,2.372,0c0.655,0.655,0.655,1.717,0,2.373l-5.036,5.034C354.646,57.154,354.216,57.318,353.787,57.318z"
			/>
		<path fill="#394F61" d="M353.787,57.318c-0.928,0-1.679-0.752-1.679-1.679v-8.391c0-0.926,0.751-1.678,1.679-1.678
			s1.678,0.752,1.678,1.678v8.391C355.465,56.566,354.715,57.318,353.787,57.318z"/>
	</g>
</g>
</svg>
