<?xml version="1.0" encoding="utf-8"?>
<!-- Generator: Adobe Illustrator 16.0.0, SVG Export Plug-In . SVG Version: 6.00 Build 0)  -->
<!DOCTYPE svg PUBLIC "-//W3C//DTD SVG 1.1//EN" "http://www.w3.org/Graphics/SVG/1.1/DTD/svg11.dtd">
<svg version="1.1" id="Layer_1" xmlns="http://www.w3.org/2000/svg" xmlns:xlink="http://www.w3.org/1999/xlink" x="0px" y="0px"
	 width="566.929px" height="566.929px" viewBox="0 0 566.929 566.929" enable-background="new 0 0 566.929 566.929"
	 xml:space="preserve">
<g>
	<g>
		<path fill="#9FCA3B" d="M431.956,251.028H419.79c-3.363,0-6.085-2.723-6.085-6.086c0-3.365,2.722-6.083,6.085-6.083h12.167
			c3.363,0,6.087,2.718,6.087,6.083C438.043,248.306,435.319,251.028,431.956,251.028z M395.448,251.028h-12.167
			c-3.364,0-6.085-2.723-6.085-6.086c0-3.365,2.721-6.083,6.085-6.083h12.167c3.363,0,6.087,2.718,6.087,6.083
			C401.535,248.306,398.811,251.028,395.448,251.028z"/>
		<path fill="#9FCA3B" d="M103.391,293.62c-3.364,0-6.084-2.722-6.084-6.088c0-4.649,0.661-9.262,1.954-13.698
			c0.944-3.228,4.307-5.074,7.546-4.137c3.228,0.943,5.08,4.318,4.138,7.545c-0.976,3.335-1.468,6.797-1.468,10.29
			C109.476,290.898,106.755,293.62,103.391,293.62z M118.092,261.426c-1.7,0-3.392-0.713-4.602-2.098
			c-2.196-2.538-1.924-6.382,0.615-8.588c3.511-3.041,7.432-5.566,11.649-7.491c3.057-1.408,6.668-0.052,8.062,3.001
			c1.399,3.061,0.058,6.666-2.998,8.063c-3.169,1.451-6.107,3.342-8.742,5.626C120.924,260.939,119.504,261.426,118.092,261.426z
			 M225.14,251.028c-3.355,0-6.113-2.723-6.113-6.086c0-3.365,2.693-6.083,6.053-6.083h0.06c3.364,0,6.086,2.718,6.086,6.083
			C231.226,248.306,228.504,251.028,225.14,251.028z M200.741,251.028h-12.166c-3.366,0-6.086-2.723-6.086-6.086
			c0-3.365,2.72-6.083,6.086-6.083h12.166c3.364,0,6.087,2.718,6.087,6.083C206.829,248.306,204.105,251.028,200.741,251.028z
			 M164.233,251.028H152.07c-3.368,0-6.088-2.723-6.088-6.086c0-3.365,2.72-6.083,6.088-6.083h12.163
			c3.367,0,6.087,2.718,6.087,6.083C170.32,248.306,167.6,251.028,164.233,251.028z"/>
		<path fill="#9FCA3B" d="M456.295,336.209h-12.169c-3.361,0-6.083-2.72-6.083-6.081c0-3.365,2.722-6.089,6.083-6.089h12.169
			c3.363,0,6.087,2.724,6.087,6.089C462.382,333.489,459.658,336.209,456.295,336.209z M419.79,336.209h-12.172
			c-3.361,0-6.083-2.72-6.083-6.081c0-3.365,2.722-6.089,6.083-6.089h12.172c3.36,0,6.084,2.724,6.084,6.089
			C425.874,333.489,423.15,336.209,419.79,336.209z M383.281,336.209h-12.169c-3.361,0-6.086-2.72-6.086-6.081
			c0-3.365,2.725-6.089,6.086-6.089h12.169c3.367,0,6.085,2.724,6.085,6.089C389.366,333.489,386.648,336.209,383.281,336.209z
			 M346.775,336.209h-12.169c-3.364,0-6.088-2.72-6.088-6.081c0-3.365,2.724-6.089,6.088-6.089h12.169
			c3.361,0,6.081,2.724,6.081,6.089C352.856,333.489,350.136,336.209,346.775,336.209z M310.267,336.209h-12.169
			c-3.364,0-6.086-2.72-6.086-6.081c0-3.365,2.722-6.089,6.086-6.089h12.169c3.363,0,6.081,2.724,6.081,6.089
			C316.348,333.489,313.63,336.209,310.267,336.209z M273.759,336.209H261.59c-3.365,0-6.086-2.72-6.086-6.081
			c0-3.365,2.722-6.089,6.086-6.089h12.169c3.363,0,6.083,2.724,6.083,6.089C279.842,333.489,277.122,336.209,273.759,336.209z
			 M237.251,336.209H225.08c-3.36,0-6.082-2.72-6.082-6.081c0-3.365,2.722-6.089,6.082-6.089h12.171
			c3.363,0,6.083,2.724,6.083,6.089C243.334,333.489,240.614,336.209,237.251,336.209z M200.741,336.209h-12.166
			c-3.366,0-6.086-2.72-6.086-6.081c0-3.365,2.72-6.089,6.086-6.089h12.166c3.364,0,6.087,2.724,6.087,6.089
			C206.829,333.489,204.105,336.209,200.741,336.209z M164.233,336.209H152.07c-3.368,0-6.088-2.72-6.088-6.081
			c0-3.365,2.72-6.089,6.088-6.089h12.163c3.367,0,6.087,2.724,6.087,6.089C170.32,333.489,167.6,336.209,164.233,336.209z
			 M128.283,332.373c-0.848,0-1.708-0.179-2.528-0.552c-4.217-1.931-8.133-4.451-11.645-7.496c-2.537-2.206-2.81-6.048-0.614-8.583
			c2.212-2.541,6.051-2.813,8.587-0.612c2.633,2.285,5.572,4.176,8.735,5.625c3.056,1.399,4.397,5.009,2.998,8.065
			C132.796,331.053,130.593,332.373,128.283,332.373z M105.106,305.616c-2.633,0-5.056-1.72-5.835-4.369
			c-1.304-4.436-1.965-9.049-1.965-13.715c0-3.361,2.72-6.083,6.084-6.083c3.365,0,6.085,2.722,6.085,6.083
			c0,3.502,0.492,6.96,1.468,10.284c0.951,3.226-0.898,6.606-4.121,7.551C106.248,305.539,105.673,305.616,105.106,305.616z"/>
		<path fill="#9FCA3B" d="M456.295,518.748h-12.169c-3.361,0-6.083-2.719-6.083-6.082c0-3.366,2.722-6.086,6.083-6.086h12.169
			c3.363,0,6.087,2.721,6.087,6.086C462.382,516.029,459.658,518.748,456.295,518.748z M419.79,518.748h-12.172
			c-3.361,0-6.083-2.719-6.083-6.082c0-3.366,2.722-6.086,6.083-6.086h12.172c3.36,0,6.084,2.721,6.084,6.086
			C425.874,516.029,423.15,518.748,419.79,518.748z M383.281,518.748h-12.169c-3.361,0-6.086-2.719-6.086-6.082
			c0-3.366,2.725-6.086,6.086-6.086h12.169c3.367,0,6.085,2.721,6.085,6.086C389.366,516.029,386.648,518.748,383.281,518.748z
			 M346.775,518.748h-12.169c-3.364,0-6.088-2.719-6.088-6.082c0-3.366,2.724-6.086,6.088-6.086h12.169
			c3.361,0,6.081,2.721,6.081,6.086C352.856,516.029,350.136,518.748,346.775,518.748z M310.267,518.748h-12.169
			c-3.364,0-6.086-2.719-6.086-6.082c0-3.366,2.722-6.086,6.086-6.086h12.169c3.363,0,6.081,2.721,6.081,6.086
			C316.348,516.029,313.63,518.748,310.267,518.748z M273.759,518.748H261.59c-3.365,0-6.086-2.719-6.086-6.082
			c0-3.366,2.722-6.086,6.086-6.086h12.169c3.363,0,6.083,2.721,6.083,6.086C279.842,516.029,277.122,518.748,273.759,518.748z
			 M237.251,518.748H225.08c-3.36,0-6.082-2.719-6.082-6.082c0-3.366,2.722-6.086,6.082-6.086h12.171
			c3.363,0,6.083,2.721,6.083,6.086C243.334,516.029,240.614,518.748,237.251,518.748z M200.741,518.748h-12.166
			c-3.366,0-6.086-2.719-6.086-6.082c0-3.366,2.72-6.086,6.086-6.086h12.166c3.364,0,6.087,2.721,6.087,6.086
			C206.829,516.029,204.105,518.748,200.741,518.748z M164.233,518.748H152.07c-3.368,0-6.088-2.719-6.088-6.082
			c0-3.366,2.72-6.086,6.088-6.086h12.163c3.367,0,6.087,2.721,6.087,6.086C170.32,516.029,167.6,518.748,164.233,518.748z
			 M128.283,514.91c-0.848,0-1.708-0.178-2.528-0.551c-4.217-1.932-8.133-4.453-11.645-7.495c-2.537-2.204-2.81-6.05-0.614-8.586
			c2.212-2.537,6.051-2.812,8.587-0.615c2.633,2.291,5.572,4.179,8.735,5.629c3.056,1.399,4.397,5.009,2.998,8.064
			C132.796,513.591,130.593,514.91,128.283,514.91z M105.106,488.15c-2.633,0-5.056-1.717-5.835-4.361
			c-1.304-4.438-1.965-9.053-1.965-13.717c0-3.36,2.72-6.086,6.084-6.086c3.365,0,6.085,2.726,6.085,6.086
			c0,3.5,0.492,6.957,1.468,10.281c0.951,3.226-0.898,6.608-4.121,7.552C106.248,488.076,105.673,488.15,105.106,488.15z"/>
		<path fill="#394F61" d="M462.382,543.085h-321.56c-23.994,0-43.517-19.526-43.517-43.519V263.195h12.169
			c0,20.135,16.374,36.508,36.506,36.508h316.401V543.085z M109.476,295.361v204.206c0,17.286,14.065,31.349,31.347,31.349H450.21
			V311.87H145.981C131.458,311.87,118.401,305.478,109.476,295.361z"/>
		<path fill="#394F61" d="M462.382,457.902h-79.101c-23.481,0-42.59-19.111-42.59-42.591c0-23.481,19.109-42.593,42.59-42.593
			h79.101V457.902z M383.281,384.887c-16.774,0-30.425,13.648-30.425,30.425c0,16.774,13.651,30.425,30.425,30.425h66.929v-60.85
			H383.281z"/>
		<path fill="#9FCA3B" d="M389.366,439.648c-13.424,0-24.34-10.913-24.34-24.336c0-13.424,10.917-24.339,24.34-24.339
			c13.423,0,24.338,10.915,24.338,24.339C413.705,428.735,402.789,439.648,389.366,439.648z M389.366,403.14
			c-6.708,0-12.17,5.463-12.17,12.172c0,6.708,5.462,12.166,12.17,12.166c6.707,0,12.169-5.458,12.169-12.166
			C401.535,408.603,396.073,403.14,389.366,403.14z"/>
		<path fill="#394F61" d="M437.348,311.87H203.9l-9.306-9.287l121.131-121.131c2.509-2.557,7.245-2.591,9.836,0.037l121.089,121.094
			L437.348,311.87z M214.683,299.704h211.879L320.625,193.767L214.683,299.704z"/>
		<path fill="#394F61" d="M221.125,311.87h-51.921l-9.306-9.287l121.126-121.131c2.706-2.662,7.26-2.585,9.841,0.037l21.01,21.015
			L211.816,302.572L221.125,311.87z M179.987,299.704h17.487l97.195-97.2l-8.747-8.737L179.987,299.704z"/>
		<path fill="#394F61" d="M462.382,311.87h-42.261l9.313-9.298l-88.049-88.051h120.998V311.87z M443.769,299.704h6.441v-73.014
			h-79.448L443.769,299.704z"/>
		<path fill="#394F61" d="M186.431,311.87h-40.449c-26.836,0-48.675-21.836-48.675-48.675c0-26.839,21.839-48.675,48.675-48.675
			h119.187l-88.048,88.051L186.431,311.87z M145.981,226.689c-20.132,0-36.506,16.375-36.506,36.506
			c0,20.135,16.374,36.508,36.506,36.508h16.796l73.01-73.014H145.981z"/>
		<path fill="#394F61" d="M389.995,311.87H251.249l-7.979-7.956l74.483-74.486l2.873-0.15c1.757,0,3.408,0.691,4.648,1.93
			l72.703,72.706L389.995,311.87z M264.692,299.704h111.864l-55.931-55.937L264.692,299.704z"/>
	</g>
	<g>
		<path fill="#9FCA3B" d="M358.811,190.212c-27.33,0-49.568-22.236-49.568-49.569c0-27.333,22.239-49.567,49.568-49.567
			c27.333,0,49.568,22.234,49.568,49.567C408.379,167.976,386.144,190.212,358.811,190.212z M358.811,98.156
			c-23.429,0-42.485,19.058-42.485,42.487c0,23.43,19.057,42.488,42.485,42.488c23.432,0,42.487-19.058,42.487-42.488
			C401.297,117.214,382.242,98.156,358.811,98.156z"/>
		<path fill="#394F61" d="M358.811,172.508c-0.904,0-1.812-0.344-2.502-1.037l-10.624-10.621c-1.384-1.384-1.384-3.624,0-5.006
			c1.384-1.383,3.625-1.383,5.01,0l10.621,10.622c1.384,1.383,1.384,3.625,0,5.006C360.624,172.164,359.718,172.508,358.811,172.508
			z"/>
		<path fill="#394F61" d="M358.811,172.508c-0.904,0-1.812-0.344-2.502-1.037c-1.384-1.381-1.384-3.623,0-5.006l10.621-10.622
			c1.382-1.383,3.625-1.383,5.007,0c1.385,1.383,1.385,3.622,0,5.006l-10.621,10.621
			C360.624,172.164,359.718,172.508,358.811,172.508z"/>
		<path fill="#394F61" d="M358.811,222.075c-1.958,0-3.538-1.583-3.538-3.54v-49.567c0-1.957,1.579-3.541,3.538-3.541
			c1.958,0,3.543,1.584,3.543,3.541v49.567C362.354,220.492,360.768,222.075,358.811,222.075z"/>
		<path fill="#394F61" d="M422.542,172.508c-0.906,0-1.812-0.344-2.5-1.037l-10.623-10.621c-1.386-1.384-1.386-3.624,0-5.006
			c1.382-1.383,3.621-1.383,5.007,0l10.621,10.622c1.384,1.383,1.384,3.625,0,5.006
			C424.354,172.164,423.447,172.508,422.542,172.508z"/>
		<path fill="#394F61" d="M422.542,172.508c-0.906,0-1.812-0.344-2.5-1.037c-1.388-1.381-1.388-3.623,0-5.006l10.618-10.622
			c1.382-1.383,3.625-1.383,5.007,0c1.384,1.383,1.384,3.622,0,5.006l-10.621,10.621
			C424.354,172.164,423.447,172.508,422.542,172.508z"/>
		<path fill="#394F61" d="M422.542,222.075c-1.956,0-3.539-1.583-3.539-3.54v-49.567c0-1.957,1.583-3.541,3.539-3.541
			c1.958,0,3.542,1.584,3.542,3.541v49.567C426.083,220.492,424.499,222.075,422.542,222.075z"/>
		<path fill="#9FCA3B" d="M466.081,183.131h-82.82c-1.574,0-2.96-1.044-3.397-2.56c-0.437-1.517,0.181-3.137,1.514-3.98
			c12.474-7.843,19.919-21.284,19.919-35.948c0-7.904-2.228-15.655-6.447-22.422c-0.558-0.899-0.688-2.002-0.349-3.004l23.444-69.49
			c0.487-1.442,1.835-2.41,3.353-2.41c1.52,0,2.871,0.967,3.357,2.41l44.781,132.733c0.367,1.08,0.186,2.268-0.476,3.194
			C468.295,182.582,467.225,183.131,466.081,183.131z M393.467,176.05h67.687L421.299,57.931l-19.565,57.998
			c4.354,7.54,6.645,16.05,6.645,24.714C408.379,154.183,402.946,166.828,393.467,176.05z"/>
		<path fill="#394F61" d="M335.355,71.641h-41.159c-9.273,0-16.818-8.112-16.818-18.084c0-9.235,6.474-16.873,14.796-17.948
			c2.583-3.676,9.806-11.765,23.266-11.765c9.983,0,20.613,5.468,21.978,20.533c6.101,1.063,10.77,6.729,10.77,13.543
			C348.188,65.485,342.432,71.641,335.355,71.641z M315.439,30.923c-12.819,0-18.064,9.651-18.112,9.747
			c-0.615,1.162-1.818,1.888-3.131,1.888c-5.369,0-9.738,4.936-9.738,10.999c0,6.069,4.369,11.002,9.738,11.002h41.159
			c3.175,0,5.754-2.976,5.754-6.639c0-3.661-2.58-6.638-5.754-6.638h-1.33c-1.956,0-3.537-1.583-3.537-3.54
			C330.489,33.109,321.06,30.923,315.439,30.923z"/>
	</g>
</g>
</svg>
