<?xml version="1.0" encoding="utf-8"?>
<!-- Generator: Adobe Illustrator 16.0.0, SVG Export Plug-In . SVG Version: 6.00 Build 0)  -->
<!DOCTYPE svg PUBLIC "-//W3C//DTD SVG 1.1//EN" "http://www.w3.org/Graphics/SVG/1.1/DTD/svg11.dtd">
<svg version="1.1" id="Layer_1" xmlns="http://www.w3.org/2000/svg" xmlns:xlink="http://www.w3.org/1999/xlink" x="0px" y="0px"
	 width="566.929px" height="298.124px" viewBox="0 0 566.929 298.124" enable-background="new 0 0 566.929 298.124"
	 xml:space="preserve">
<g>
	<g>
		<path fill="#394F61" d="M87.721,108.202v23.837H19.627V34.913h29.814v73.289H87.721z"/>
		<path fill="#394F61" d="M127.921,34.913v97.126H98.109V34.913H127.921z"/>
		<path fill="#394F61" d="M250.449,34.913v97.126h-27.677V62.591l-17.963,69.448h-18.931l-18.675-69.448v69.448h-22.344V34.913
			h38.954l14.09,51.587l13.447-51.587H250.449z"/>
		<path fill="#394F61" d="M340.46,108.843v23.196h-73.075V34.913h73.075v22.414h-43.832v14.089h35.436v21.557h-35.436v15.87H340.46z
			"/>
		<path fill="#394F61" d="M148.77,174.807l-25.755,97.126H97.962l-13.585-53.581l-12.83,53.581H45.436l-25.809-97.126H47.68
			l13.587,55.901l13.257-55.901h23.408l14.416,56.011l13.604-56.011H148.77z"/>
		<path fill="#394F61" d="M207.094,271.933l-5.488-19.143h-26.017l-5.833,19.143h-24.205l29.983-97.126h31.525l30.459,97.126
			H207.094z M180.654,231.584h15.713l-7.857-28.172L180.654,231.584z"/>
		<path fill="#394F61" d="M314.561,248.096v23.837h-68.094v-97.126h29.813v73.289H314.561z"/>
		<path fill="#394F61" d="M393.045,248.096v23.837h-68.099v-97.126h29.814v73.289H393.045z"/>
		<path fill="#394F61" d="M476.507,248.736v23.197h-73.074v-97.126h73.074v22.414h-43.834v14.086h35.438v21.561h-35.438v15.868
			H476.507z"/>
		<path fill="#394F61" d="M528.236,198.075v73.858h-28.249v-73.858h-20.14v-23.268h68.525v23.268H528.236z"/>
	</g>
	<g>
		<path fill="#E5EBB4" d="M485.58,53.118c0,0,14.474,7.418,16.088,7.829C503.274,61.336,485.58,53.118,485.58,53.118"/>
		<path fill="#E5EBB4" d="M494.033,53.867c0,0,21.016,8.285,22.757,7.081C518.562,59.737,494.033,53.867,494.033,53.867"/>
		<path fill="#E5EBB4" d="M418.014,53.118c0,0-24.072,6.456-23.273,7.942C395.538,62.542,418.014,53.118,418.014,53.118"/>
		<g>
			<path fill="#9FCA3B" d="M496.426,125.92h-83.044c-25.322,0-45.851-20.533-45.851-45.843V43.375h174.739v36.703
				C542.271,105.387,521.737,125.92,496.426,125.92"/>
			<path fill="#E5EBB4" d="M491.018,115.208h-72.229c-22.047,0-39.905-17.858-39.905-39.905V43.375h152.035v31.928
				C530.919,97.349,513.063,115.208,491.018,115.208"/>
			<path fill="#9FCA3B" d="M454.159,55.736l-18.541,49.111c-0.734,1.893,0.681,3.928,2.723,3.928h36.665
				c2.017,0,3.415-2.006,2.712-3.894L459.585,55.76C458.672,53.248,455.122,53.229,454.159,55.736"/>
			<path fill="#9FCA3B" d="M443.971,56.386l-16.123,48.68c-0.32,1.02-1.287,1.703-2.337,1.703h-4.513
				c-7.924,0-15.66-2.49-22.108-7.102l-5.922-4.275c-1.34-0.942-1.386-2.903-0.113-3.921l47.243-37.784
				C441.995,52.14,444.748,54.062,443.971,56.386"/>
			<path fill="#9FCA3B" d="M382.84,51.093l1.966,29.341c0.115,1.87,2.247,2.915,3.796,1.87l44.018-29.334
				c2.018-1.355,1.064-4.494-1.358-4.494h-45.967C383.881,48.476,382.758,49.671,382.84,51.093"/>
			<path fill="#9FCA3B" d="M464.908,54.652l19.418,51.1c0.509,1.349,1.839,2.177,3.256,2.059l10.646-0.907
				c6.843-0.566,13.222-3.774,17.765-8.916c1.166-1.341,1.036-3.393-0.327-4.558l-47.751-40.885
				C466.418,51.271,464.205,52.821,464.908,54.652"/>
			<path fill="#9FCA3B" d="M473.537,49.709l42.194,32.431c2.795,2.138,6.85,0.368,7.196-3.128l2.39-25.636
				c0.248-2.643-1.8-4.9-4.438-4.9h-46.921C473.292,48.476,472.999,49.313,473.537,49.709"/>
			<path fill="#E5EBB4" d="M435.425,60.947c0,0-30.087,26.518-27.131,28.94C411.21,92.294,435.425,60.947,435.425,60.947"/>
			<path fill="#E5EBB4" d="M458.653,67.779c0,0,0,29.34,2.411,30.938C463.473,100.324,458.653,67.779,458.653,67.779"/>
			<path fill="#E5EBB4" d="M454.899,65.6c0,0-9.914,25.349-8.313,24.419C448.203,89.077,454.899,65.6,454.899,65.6"/>
			<path fill="#E5EBB4" d="M473.261,60.947c0,0,19.153,37.494,20.772,37.836C495.625,99.123,473.261,60.947,473.261,60.947"/>
			<path fill="#394F61" d="M496.426,125.92v-6.109h-83.044c-10.997,0-20.886-4.426-28.088-11.637
				c-7.21-7.214-11.658-17.116-11.658-28.097V49.853l0.383-0.355h161.768l0.363,0.355v30.225c0,10.981-4.428,20.883-11.645,28.097
				c-7.191,7.211-17.095,11.637-28.079,11.637V125.92v6.118c28.68-0.007,51.933-23.264,51.947-51.961V49.853
				c-0.015-6.948-5.618-12.572-12.587-12.58H374.019c-6.969,0.007-12.582,5.631-12.582,12.58v30.225
				c0,28.697,23.243,51.954,51.945,51.961h83.044V125.92z"/>
		</g>
	</g>
</g>
</svg>
