<?xml version="1.0" encoding="utf-8"?>
<!-- Generator: Adobe Illustrator 16.0.0, SVG Export Plug-In . SVG Version: 6.00 Build 0)  -->
<!DOCTYPE svg PUBLIC "-//W3C//DTD SVG 1.1//EN" "http://www.w3.org/Graphics/SVG/1.1/DTD/svg11.dtd">
<svg version="1.1" id="Layer_1" xmlns="http://www.w3.org/2000/svg" xmlns:xlink="http://www.w3.org/1999/xlink" x="0px" y="0px"
	 width="566.929px" height="566.929px" viewBox="0 0 566.929 566.929" enable-background="new 0 0 566.929 566.929"
	 xml:space="preserve">
<g>
	<g>
		<path fill="#394F61" d="M492.499,551.589c-31.848,0-57.752-25.907-57.752-57.756c0-31.846,25.904-57.751,57.752-57.751
			c31.849,0,57.753,25.905,57.753,57.751C550.252,525.682,524.348,551.589,492.499,551.589z M492.499,445.706
			c-26.536,0-48.128,21.591-48.128,48.127c0,26.539,21.592,48.128,48.128,48.128c26.537,0,48.126-21.589,48.126-48.128
			C540.625,467.297,519.036,445.706,492.499,445.706z"/>
		<path fill="#9FCA3B" d="M490.251,519.414c-1.57,1.91-4.39,2.187-6.303,0.614l-20.757-17.059c-1.911-1.576-2.19-4.393-0.618-6.303
			c1.573-1.914,4.393-2.19,6.306-0.618l20.757,17.06C491.547,514.681,491.823,517.5,490.251,519.414z"/>
		<path fill="#9FCA3B" d="M522.422,480.354l-32.171,39.06c-1.57,1.91-4.39,2.187-6.303,0.614c-1.911-1.573-2.188-4.389-0.617-6.303
			l32.174-39.057c1.57-1.913,4.39-2.189,6.3-0.617C523.719,475.625,523.995,478.443,522.422,480.354z"/>
	</g>
	<path fill="#394F61" d="M282.174,546.023l-0.003-7.272c7.104-0.006,14.274-0.303,21.313-0.882l0.597,7.249
		C296.846,545.715,289.476,546.02,282.174,546.023z M260.275,545.147c-7.267-0.591-14.588-1.488-21.756-2.672l1.182-7.177
		c6.975,1.15,14.093,2.023,21.161,2.596L260.275,545.147z M325.835,542.423l-1.193-7.178c6.986-1.159,14.007-2.628,20.87-4.365
		l1.781,7.054C340.238,539.718,333.018,541.229,325.835,542.423z M217.054,538.012c-7.061-1.775-14.134-3.873-21.021-6.229
		l2.354-6.883c6.7,2.294,13.575,4.333,20.442,6.059L217.054,538.012z M368.308,531.675l-2.365-6.878
		c6.685-2.299,13.363-4.91,19.846-7.76l2.928,6.66C382.049,526.626,375.182,529.312,368.308,531.675z M175.585,523.814
		c-6.67-2.925-13.3-6.166-19.709-9.635l3.464-6.396c6.23,3.375,12.68,6.524,19.166,9.37L175.585,523.814z M408.394,514.052
		l-3.469-6.393c6.22-3.377,12.376-7.055,18.3-10.936l3.984,6.084C421.12,506.797,414.789,510.58,408.394,514.052z M137.037,502.95
		c-6.089-3.98-12.092-8.27-17.848-12.745l4.468-5.741c5.598,4.355,11.438,8.526,17.359,12.396L137.037,502.95z M102.454,476.035
		c-5.356-4.925-10.576-10.137-15.516-15.492l5.344-4.932c4.809,5.209,9.885,10.28,15.093,15.07L102.454,476.035z M72.747,443.829
		c-4.476-5.732-8.771-11.727-12.766-17.817l6.079-3.99c3.888,5.925,8.066,11.757,12.419,17.332L72.747,443.829z M504.193,425.797
		l-6.087-3.983c3.881-5.929,7.559-12.091,10.936-18.316l6.393,3.466C511.968,413.362,508.184,419.7,504.193,425.797z
		 M48.726,407.201c-3.474-6.389-6.723-13.007-9.658-19.673l6.655-2.933c2.855,6.482,6.016,12.919,9.393,19.131L48.726,407.201z
		 M525.081,387.26l-6.659-2.924c2.844-6.479,5.454-13.167,7.759-19.875l6.879,2.357C530.693,373.72,528.008,380.597,525.081,387.26z
		 M31.079,367.127c-2.37-6.876-4.478-13.942-6.272-21.01l7.051-1.79c1.743,6.87,3.795,13.746,6.097,20.431L31.079,367.127z
		 M539.307,345.803l-7.056-1.783c1.734-6.857,3.197-13.879,4.354-20.87l7.178,1.188
		C542.593,331.525,541.086,338.746,539.307,345.803z M20.308,324.658c-1.196-7.163-2.107-14.481-2.713-21.751l7.249-0.603
		c0.588,7.072,1.476,14.189,2.637,21.156L20.308,324.658z M546.465,302.582l-7.25-0.592c0.575-7.038,0.867-14.206,0.867-21.307
		v-0.633h7.273v0.633C547.355,287.981,547.056,295.35,546.465,302.582z M23.95,280.998h-7.273v-0.314
		c0-7.198,0.291-14.459,0.867-21.58l7.25,0.583c-0.559,6.929-0.844,13.993-0.844,20.997V280.998z M539.162,258.75
		c-0.594-7.063-1.488-14.181-2.66-21.153l7.173-1.205c1.205,7.17,2.127,14.486,2.736,21.75L539.162,258.75z M27.378,238.522
		l-7.179-1.179c1.182-7.19,2.678-14.413,4.45-21.469l7.053,1.773C29.979,224.508,28.524,231.532,27.378,238.522z M532.099,216.736
		c-1.751-6.863-3.811-13.735-6.124-20.422l6.873-2.378c2.382,6.878,4.498,13.943,6.3,21.003L532.099,216.736z M37.752,197.201
		l-6.885-2.352c2.354-6.89,5.029-13.769,7.954-20.45l6.663,2.916C42.642,183.813,40.04,190.503,37.752,197.201z M518.184,176.483
		c-2.859-6.467-6.025-12.9-9.414-19.121l6.385-3.48c3.486,6.396,6.743,13.012,9.682,19.662L518.184,176.483z M54.842,158.144
		l-6.4-3.46c3.459-6.397,7.233-12.738,11.22-18.847l6.091,3.975C61.875,145.753,58.206,151.922,54.842,158.144z M497.798,139.082
		c-3.886-5.911-8.069-11.737-12.438-17.317l5.729-4.482c4.487,5.736,8.79,11.726,12.786,17.805L497.798,139.082z M78.14,122.447
		l-5.742-4.465c4.464-5.744,9.228-11.378,14.157-16.745l5.354,4.921C87.114,111.379,82.481,116.86,78.14,122.447z M471.54,105.524
		c-4.809-5.198-9.891-10.264-15.111-15.053l4.916-5.358c5.366,4.921,10.593,10.127,15.538,15.473L471.54,105.524z M106.975,91.054
		l-4.937-5.343c5.355-4.945,10.975-9.723,16.704-14.201l4.48,5.732C117.649,81.598,112.185,86.243,106.975,91.054z M440.128,76.71
		c-5.598-4.347-11.441-8.509-17.372-12.376l3.97-6.093c6.1,3.975,12.11,8.257,17.864,12.724L440.128,76.71z M140.546,64.813
		l-3.992-6.081c6.079-3.992,12.405-7.783,18.803-11.265l3.476,6.39C152.612,57.243,146.461,60.929,140.546,64.813z M404.417,53.436
		c-6.232-3.366-12.685-6.512-19.178-9.349l2.912-6.664c6.678,2.916,13.313,6.149,19.723,9.611L404.417,53.436z M177.958,44.453
		l-2.934-6.655c6.662-2.94,13.523-5.631,20.396-8.004l2.372,6.876C191.111,38.977,184.438,41.594,177.958,44.453z M365.352,36.366
		c-6.708-2.287-13.59-4.317-20.45-6.035l1.766-7.056c7.058,1.766,14.133,3.854,21.03,6.206L365.352,36.366z M218.221,30.562
		l-1.793-7.051c7.05-1.792,14.267-3.31,21.457-4.516l1.199,7.175C232.093,27.341,225.073,28.818,218.221,30.562z M324.025,26.017
		c-6.984-1.142-14.105-2.008-21.168-2.572l0.579-7.25c7.261,0.58,14.583,1.471,21.762,2.644L324.025,26.017z M260.237,23.521
		l-0.604-7.25c7.234-0.603,14.604-0.917,21.898-0.929l0.015,7.272C274.448,22.629,267.278,22.934,260.237,23.521z"/>
	<g>
		<path fill="#9FCA3B" d="M342.303,298.348c-35.72,0-64.781-29.062-64.781-64.784c0-35.72,29.062-64.781,64.781-64.781
			c35.723,0,64.784,29.062,64.784,64.781C407.087,269.286,378.025,298.348,342.303,298.348z M342.303,180.56
			c-29.226,0-53.002,23.779-53.002,53.004c0,29.226,23.776,53.005,53.002,53.005c29.229,0,53.005-23.779,53.005-53.005
			C395.308,204.339,371.532,180.56,342.303,180.56z"/>
		<path fill="#9FCA3B" d="M342.303,274.789c-22.729,0-41.226-18.493-41.226-41.226s18.496-41.225,41.226-41.225
			s41.227,18.492,41.227,41.225S365.032,274.789,342.303,274.789z M342.303,204.117c-16.235,0-29.446,13.21-29.446,29.446
			c0,16.235,13.211,29.446,29.446,29.446c16.236,0,29.447-13.211,29.447-29.446C371.75,217.327,358.539,204.117,342.303,204.117z"/>
		<path fill="#9FCA3B" d="M342.303,251.232c-9.742,0-17.667-7.926-17.667-17.669c0-9.739,7.925-17.667,17.667-17.667
			s17.668,7.928,17.668,17.667C359.971,243.307,352.045,251.232,342.303,251.232"/>
		<path fill="#9FCA3B" d="M224.517,298.348c-35.721,0-64.782-29.062-64.782-64.784c0-35.72,29.062-64.781,64.782-64.781
			c35.723,0,64.784,29.062,64.784,64.781C289.301,269.286,260.239,298.348,224.517,298.348z M224.517,180.56
			c-29.229,0-53.006,23.779-53.006,53.004c0,29.226,23.776,53.005,53.006,53.005c29.229,0,53.005-23.779,53.005-53.005
			C277.521,204.339,253.745,180.56,224.517,180.56z"/>
		<path fill="#9FCA3B" d="M224.517,274.789c-22.729,0-41.227-18.493-41.227-41.226s18.497-41.225,41.227-41.225
			s41.226,18.492,41.226,41.225S247.246,274.789,224.517,274.789z M224.517,204.117c-16.236,0-29.447,13.21-29.447,29.446
			c0,16.235,13.211,29.446,29.447,29.446c16.235,0,29.446-13.211,29.446-29.446C253.963,217.327,240.752,204.117,224.517,204.117z"
			/>
		<path fill="#9FCA3B" d="M224.517,251.232c-9.742,0-17.668-7.926-17.668-17.669c0-9.739,7.926-17.667,17.668-17.667
			s17.667,7.928,17.667,17.667C242.184,243.307,234.259,251.232,224.517,251.232"/>
		<path fill="#9FCA3B" d="M283.409,316.019c-1.563,0-3.06-0.622-4.162-1.726l-27.077-27.081c-1.262-1.259-1.882-3.019-1.693-4.788
			c0.191-1.771,1.17-3.36,2.663-4.324c9.295-5.993,16.392-14.566,20.522-24.783c0.294-0.733,0.734-1.4,1.293-1.961l4.292-4.287
			c2.299-2.296,6.026-2.296,8.328,0l4.289,4.287c0.559,0.561,1.002,1.228,1.293,1.961c4.131,10.217,11.227,18.79,20.522,24.783
			c1.496,0.964,2.472,2.553,2.663,4.324c0.188,1.77-0.433,3.529-1.69,4.788l-27.077,27.081
			C286.47,315.396,284.974,316.019,283.409,316.019z M265.375,283.758l18.034,18.043l18.038-18.043
			c-7.731-6.281-13.872-14.21-18.038-23.31C279.247,269.548,273.104,277.477,265.375,283.758z"/>
		<path fill="#9FCA3B" d="M430.643,445.581H100.842v-11.779h329.801c3.252,0,5.892-2.643,5.892-5.89s-2.64-5.89-5.892-5.89H100.842
			v-11.777h329.801c9.745,0,17.671,7.925,17.671,17.667C448.313,437.656,440.388,445.581,430.643,445.581z"/>
		<rect x="212.737" y="386.688" fill="#9FCA3B" width="11.779" height="41.225"/>
		<path fill="#9FCA3B" d="M283.451,180.402c-0.012,0-0.024,0-0.03,0c-2.725-0.015-5.117-1.746-5.744-4.38
			c-0.408-1.556-0.185-3.29,0.656-4.662c0.855-1.394,2.231-2.455,3.836-2.778c0.85-0.169,1.855-0.151,2.695,0.05
			c3.102,0.756,5.057,3.851,4.384,6.967C288.66,178.313,286.223,180.402,283.451,180.402z"/>
		<path fill="#9FCA3B" d="M283.409,469.139c-16.259,0-45.646-7.667-71.769-24.495c-2.193-1.419-3.198-4.11-2.458-6.614
			c0.738-2.508,3.037-4.228,5.647-4.228h137.147c2.61,0,4.912,1.72,5.646,4.228c0.744,2.504-0.264,5.195-2.454,6.614
			C329.048,461.472,299.663,469.139,283.409,469.139z M238.065,445.581c18.898,8.47,36.319,11.778,45.344,11.778
			c9.02,0,26.439-3.309,45.333-11.778H238.065z"/>
		<path fill="#9FCA3B" d="M379.657,422.022H187.156c-1.69,0-3.296-0.725-4.419-1.988c-18.363-20.797-28.894-50.123-28.894-80.462
			c-0.332-1.205-3.698-7.272-6.146-11.704c-6.174-11.14-10.251-18.855-10.71-24.382c-0.72-8.736-1.99-17.646-3.257-25.974
			c-7.952-52.122,13.046-104.368,54.802-136.352l31.563-24.17c1.873-1.438,4.41-1.611,6.459-0.464l35.249,19.742
			c9.172,5.132,16.621,12.718,21.606,21.768c4.992-9.057,12.447-16.653,21.631-21.789l35.24-19.721
			c2.052-1.15,4.583-0.965,6.459,0.467l31.595,24.229c41.718,31.974,62.697,84.2,54.755,136.298
			c-1.268,8.336-2.537,17.258-3.257,25.977c-0.453,5.523-4.536,13.239-10.707,24.376c-2.451,4.429-5.814,10.496-6.19,12.21
			c0.041,29.821-10.495,59.15-28.859,79.95C382.953,421.298,381.351,422.022,379.657,422.022z M189.863,410.245H376.95
			c15.436-18.542,24.246-44.137,24.246-70.673c0-3.497,2.337-7.862,7.628-17.407c3.575-6.458,8.987-16.222,9.264-19.637
			c0.755-9.075,2.061-18.235,3.359-26.78c7.294-47.853-11.973-95.816-50.276-125.179l-28.521-21.87l-31.856,17.829
			c-10.131,5.665-17.601,15.125-20.811,26.229c0.244,0.82,0.271,1.51,0.265,1.81c-0.006,0.911-0.35,5.483-6.358,5.974
			c-0.312,0.027-0.646,0.027-0.955,0c-6.012-0.49-6.355-5.063-6.361-5.974c-0.006-0.3,0.023-0.989,0.265-1.807
			c-3.211-11.101-10.669-20.553-20.787-26.215l-31.866-17.85l-28.488,21.815c-38.342,29.37-57.626,77.354-50.324,125.227
			c1.3,8.537,2.608,17.688,3.36,26.775c0.282,3.418,5.688,13.184,9.266,19.646c5.292,9.547,7.626,13.915,7.626,17.412
			C165.623,366.114,174.427,391.706,189.863,410.245z"/>
		<rect x="230.404" y="404.355" fill="#9FCA3B" width="11.779" height="23.557"/>
		<rect x="195.069" y="404.355" fill="#9FCA3B" width="11.779" height="23.557"/>
		<rect x="342.303" y="386.688" fill="#9FCA3B" width="11.779" height="41.225"/>
		<rect x="359.971" y="404.355" fill="#9FCA3B" width="11.779" height="23.557"/>
		<rect x="324.636" y="404.355" fill="#9FCA3B" width="11.779" height="23.557"/>
		<path fill="#9FCA3B" d="M312.568,422.025h-58.317c-2.669,0-4.997-1.79-5.688-4.368c-9.115-34.077-29.885-55.623-63.506-65.878
			c-3.451-1.053-6.805-1.498-10.354-1.973c-5.832-0.776-11.864-1.582-17.746-5.226c-1.353-0.842-2.29-2.18-2.634-3.692
			c-0.535-1.199-2.446-4.66-3.998-7.479c-6.988-12.658-12.814-23.646-13.338-29.92c-0.737-8.941-2.066-18.146-3.26-25.974
			c-5.145-33.719,1.878-68.313,19.772-97.416c1.599-2.604,4.938-3.563,7.666-2.174c13.603,6.861,19.726,22.697,14.246,36.837
			l-10.985-4.255c2.593-6.689,0.835-14.02-4.048-18.83c-14.087,25.553-19.411,55.161-15.014,84.061
			c1.232,8.02,2.596,17.479,3.366,26.778c0.35,4.274,8.154,18.408,11.906,25.198c2.04,3.71,3.339,6.063,4.145,7.737
			c3.354,1.598,7.161,2.104,11.479,2.68c3.684,0.492,7.857,1.047,12.234,2.381c35.841,10.933,59.44,34.384,70.193,69.735h49.439
			c10.757-35.352,34.354-58.803,70.193-69.735c8.063-2.459,16.163-6.116,24.111-10.887c0.841-1.511,2.158-3.475,4.148-6.431
			c3.339-4.976,11.174-16.627,11.506-20.673c0.772-9.288,2.134-18.749,3.365-26.778c4.396-28.88-0.92-58.471-14.989-84.016
			c-4.865,4.803-6.623,12.117-4.065,18.798l-10.997,4.217c-5.412-14.125,0.726-29.936,14.275-36.771
			c2.739-1.39,6.067-0.431,7.672,2.175c17.864,29.096,24.876,63.675,19.746,97.375c-1.262,8.229-2.525,17.066-3.263,25.974
			c-0.544,6.564-6.43,15.78-13.479,26.271c-1.37,2.036-3.043,4.526-3.602,5.536c-0.396,1.387-1.299,2.604-2.561,3.389
			c-9.31,5.77-18.875,10.175-28.43,13.088c-33.621,10.255-54.39,31.801-63.505,65.878
			C317.568,420.235,315.237,422.025,312.568,422.025z"/>
		<path fill="#9FCA3B" d="M294.01,417.575l-11.491-2.612c11.324-49.806,41.244-82.433,88.929-96.979
			c20.519-6.257,34.873-17.603,42.666-33.718c16.301-33.683-0.556-77.562-0.729-78.001l10.962-4.297
			c0.782,1.987,18.888,49.159,0.374,87.43c-9.284,19.188-26.055,32.598-49.834,39.854
			C331.532,342.474,304.322,372.188,294.01,417.575z"/>
		<path fill="#9FCA3B" d="M272.804,417.563c-10.315-45.379-37.525-75.093-80.868-88.316c-23.781-7.257-40.553-20.663-49.836-39.853
			c-18.514-38.267-0.408-85.438,0.373-87.426l10.968,4.294c-0.17,0.439-17,44.466-0.711,78.054
			c7.799,16.086,22.147,27.411,42.646,33.662c47.679,14.549,77.59,47.176,88.919,96.975L272.804,417.563z"/>
		<path fill="#9FCA3B" d="M330.523,327.795h-11.776c0-3.249-2.64-5.892-5.891-5.892c-3.248,0-5.889,2.643-5.889,5.892h-11.779
			c0-9.744,7.926-17.669,17.668-17.669S330.523,318.051,330.523,327.795z"/>
		<path fill="#9FCA3B" d="M301.077,357.241h-11.776c0-3.248-2.64-5.892-5.892-5.892c-3.248,0-5.888,2.644-5.888,5.892h-11.779
			c0-9.743,7.926-17.669,17.667-17.669C293.151,339.572,301.077,347.498,301.077,357.241z"/>
		<path fill="#9FCA3B" d="M271.63,327.795h-11.775c0-3.249-2.641-5.892-5.892-5.892c-3.248,0-5.888,2.643-5.888,5.892h-11.779
			c0-9.744,7.925-17.669,17.667-17.669S271.63,318.051,271.63,327.795z"/>
	</g>
</g>
</svg>
