<?xml version="1.0" encoding="utf-8"?>
<!-- Generator: Adobe Illustrator 16.0.0, SVG Export Plug-In . SVG Version: 6.00 Build 0)  -->
<!DOCTYPE svg PUBLIC "-//W3C//DTD SVG 1.1//EN" "http://www.w3.org/Graphics/SVG/1.1/DTD/svg11.dtd">
<svg version="1.1" id="Layer_1" xmlns="http://www.w3.org/2000/svg" xmlns:xlink="http://www.w3.org/1999/xlink" x="0px" y="0px"
	 width="566.929px" height="566.929px" viewBox="0 0 566.929 566.929" enable-background="new 0 0 566.929 566.929"
	 xml:space="preserve">
<g>
	<path fill="#394F61" d="M283.618,540.147l-0.004-7.036c6.873-0.005,13.811-0.292,20.616-0.853l0.577,7.013
		C297.811,539.849,290.682,540.143,283.618,540.147z M262.435,539.3c-7.031-0.571-14.112-1.44-21.048-2.584l1.145-6.944
		c6.746,1.113,13.633,1.958,20.47,2.512L262.435,539.3z M325.854,536.664l-1.154-6.944c6.758-1.121,13.55-2.542,20.188-4.223
		l1.725,6.824C339.787,534.048,332.802,535.509,325.854,536.664z M220.621,532.396c-6.83-1.718-13.671-3.747-20.335-6.026
		l2.278-6.658c6.479,2.219,13.134,4.191,19.774,5.861L220.621,532.396z M366.94,526.267l-2.289-6.654
		c6.469-2.223,12.928-4.748,19.199-7.506l2.832,6.442C380.233,521.384,373.59,523.981,366.94,526.267z M180.507,518.662
		c-6.452-2.829-12.867-5.964-19.066-9.319l3.35-6.188c6.028,3.264,12.268,6.311,18.541,9.063L180.507,518.662z M405.72,509.219
		l-3.357-6.185c6.017-3.268,11.973-6.824,17.703-10.578l3.855,5.885C418.03,502.2,411.905,505.86,405.72,509.219z M143.217,498.479
		c-5.891-3.851-11.698-7.999-17.267-12.33l4.322-5.554c5.415,4.214,11.065,8.249,16.793,11.991L143.217,498.479z M441.17,486
		l-4.325-5.549c5.398-4.212,10.691-8.699,15.73-13.343l4.769,5.174C452.163,477.057,446.722,481.671,441.17,486z M109.761,472.442
		c-5.181-4.764-10.229-9.806-15.009-14.986l5.171-4.771c4.65,5.039,9.562,9.945,14.601,14.578L109.761,472.442z M472.339,457.284
		l-5.178-4.766c4.645-5.043,9.135-10.342,13.342-15.742l5.552,4.325C481.728,446.653,477.112,452.1,472.339,457.284z
		 M81.024,441.287c-4.329-5.546-8.484-11.343-12.35-17.235l5.882-3.86c3.761,5.731,7.803,11.372,12.013,16.767L81.024,441.287z
		 M498.392,423.844l-5.889-3.853c3.756-5.736,7.313-11.697,10.579-17.721l6.185,3.354
		C505.911,411.815,502.253,417.946,498.392,423.844z M57.786,405.854c-3.359-6.18-6.504-12.582-9.343-19.031l6.438-2.836
		c2.762,6.27,5.82,12.498,9.086,18.506L57.786,405.854z M518.599,386.563l-6.443-2.828c2.753-6.268,5.277-12.737,7.506-19.227
		l6.655,2.281C524.026,373.466,521.429,380.118,518.599,386.563z M40.716,367.089c-2.291-6.652-4.332-13.489-6.067-20.324
		l6.82-1.732c1.687,6.646,3.673,13.297,5.899,19.765L40.716,367.089z M532.358,346.46l-6.824-1.725
		c1.678-6.635,3.093-13.428,4.211-20.188l6.943,1.147C535.538,332.648,534.081,339.634,532.358,346.46z M30.296,326.005
		c-1.156-6.928-2.038-14.009-2.624-21.042l7.013-0.583c0.568,6.843,1.428,13.729,2.551,20.467L30.296,326.005z M539.283,304.65
		l-7.013-0.573c0.557-6.807,0.838-13.744,0.838-20.611v-0.611h7.037v0.611C540.146,290.526,539.854,297.651,539.283,304.65z
		 M33.82,283.771h-7.036v-0.305c0-6.965,0.281-13.987,0.838-20.876l7.013,0.563c-0.539,6.703-0.814,13.537-0.814,20.313V283.771z
		 M532.221,262.25c-0.575-6.834-1.441-13.719-2.575-20.463l6.94-1.168c1.165,6.937,2.056,14.014,2.647,21.041L532.221,262.25z
		 M37.134,242.679l-6.943-1.141c1.143-6.954,2.591-13.942,4.305-20.768l6.824,1.715C39.653,229.122,38.244,235.918,37.134,242.679z
		 M525.386,221.604c-1.692-6.64-3.686-13.286-5.922-19.756l6.648-2.3c2.302,6.653,4.352,13.489,6.094,20.317L525.386,221.604z
		 M47.17,202.708l-6.658-2.274c2.276-6.665,4.865-13.32,7.694-19.783l6.445,2.821C51.901,189.755,49.385,196.228,47.17,202.708z
		 M511.926,182.665c-2.766-6.256-5.829-12.48-9.108-18.496l6.178-3.367c3.372,6.186,6.523,12.585,9.365,19.021L511.926,182.665z
		 M63.703,164.925l-6.191-3.347c3.347-6.189,6.997-12.324,10.854-18.233l5.893,3.845C70.508,152.938,66.957,158.905,63.703,164.925z
		 M492.206,146.485c-3.76-5.719-7.808-11.355-12.031-16.753l5.541-4.336c4.342,5.549,8.504,11.343,12.369,17.224L492.206,146.485z
		 M86.241,130.392l-5.555-4.318c4.318-5.556,8.926-11.005,13.694-16.2l5.181,4.762C94.924,119.686,90.442,124.987,86.241,130.392z
		 M466.804,114.022c-4.65-5.03-9.568-9.928-14.617-14.561l4.755-5.185c5.191,4.76,10.247,9.797,15.03,14.968L466.804,114.022z
		 M114.135,100.023l-4.775-5.167c5.181-4.786,10.618-9.407,16.16-13.739l4.332,5.545C124.461,90.874,119.173,95.371,114.135,100.023
		z M436.418,86.148c-5.415-4.204-11.068-8.23-16.806-11.972l3.841-5.894c5.899,3.846,11.714,7.986,17.28,12.309L436.418,86.148z
		 M146.611,74.64l-3.861-5.882c5.88-3.862,11.999-7.53,18.187-10.898l3.364,6.181C158.282,67.316,152.332,70.881,146.611,74.64z
		 M401.872,63.631c-6.03-3.255-12.271-6.298-18.553-9.043l2.818-6.445c6.459,2.821,12.877,5.949,19.076,9.297L401.872,63.631z
		 M182.802,54.942l-2.838-6.438c6.445-2.841,13.084-5.446,19.732-7.741l2.295,6.651C195.526,49.645,189.07,52.178,182.802,54.942z
		 M364.079,47.119c-6.488-2.212-13.145-4.174-19.781-5.837l1.708-6.825c6.827,1.709,13.671,3.729,20.345,6.004L364.079,47.119z
		 M221.751,41.505l-1.734-6.82c6.818-1.735,13.801-3.202,20.756-4.369l1.161,6.94C235.172,38.389,228.381,39.818,221.751,41.505z
		 M324.103,37.107c-6.756-1.103-13.645-1.941-20.477-2.487l0.561-7.013c7.023,0.56,14.106,1.422,21.052,2.556L324.103,37.107z
		 M262.396,34.695l-0.584-7.012c6.999-0.584,14.128-0.888,21.185-0.9l0.014,7.037C276.144,33.832,269.208,34.125,262.396,34.695z"/>
	<g>
		<path fill="#394F61" d="M467.79,424.615H337.497V294.322H467.79V424.615z M348.356,413.757h108.574V305.179H348.356V413.757z"/>
		<rect x="397.214" y="332.054" fill="#9FCA3B" width="10.857" height="86.863"/>
		<polygon fill="#9FCA3B" points="402.643,324.378 439.056,360.79 431.378,368.466 402.643,339.731 373.906,368.466 366.23,360.79 
					"/>
		<path fill="#9FCA3B" d="M277.78,430.044c-11.977,0-21.716-9.742-21.716-21.717c0-11.973,9.739-21.715,21.716-21.715
			c11.976,0,21.714,9.742,21.714,21.715C299.494,420.302,289.756,430.044,277.78,430.044z M277.78,397.471
			c-5.988,0-10.86,4.868-10.86,10.856c0,5.989,4.872,10.857,10.86,10.857c5.983,0,10.855-4.868,10.855-10.857
			C288.636,402.339,283.764,397.471,277.78,397.471z"/>
		<path fill="#394F61" d="M310.351,381.182H190.917c-3.001,0-5.428-2.429-5.428-5.427s2.427-5.43,5.428-5.43h119.434
			c3.004,0,5.432,2.432,5.432,5.43S313.354,381.182,310.351,381.182z"/>
		<path fill="#394F61" d="M346.153,446.331H209.398c-13.183,0-23.909-10.732-23.909-23.92V144.513
			c0-13.187,10.727-23.915,23.909-23.915h136.755c13.186,0,23.918,10.728,23.918,23.915v138.951c0,2.998-2.43,5.43-5.43,5.43
			c-3.002,0-5.43-2.432-5.43-5.43V144.513c0-7.198-5.858-13.058-13.059-13.058H209.398c-7.2,0-13.053,5.86-13.053,13.058v277.898
			c0,7.203,5.853,13.063,13.053,13.063h136.755c3.002,0,5.431,2.43,5.431,5.427C351.584,443.899,349.155,446.331,346.153,446.331z"
			/>
		<path fill="#394F61" d="M364.642,164.028H190.917c-3.001,0-5.428-2.429-5.428-5.428c0-2.998,2.427-5.429,5.428-5.429h173.725
			c3,0,5.43,2.431,5.43,5.429C370.071,161.599,367.642,164.028,364.642,164.028z"/>
		<path fill="#9FCA3B" d="M277.78,147.742h-21.716c-3.001,0-5.431-2.431-5.431-5.428c0-3,2.43-5.429,5.431-5.429h21.716
			c3,0,5.429,2.429,5.429,5.429C283.209,145.312,280.78,147.742,277.78,147.742z"/>
		<path fill="#9FCA3B" d="M299.494,147.742h-5.429c-2.999,0-5.43-2.431-5.43-5.428c0-3,2.431-5.429,5.43-5.429h5.429
			c3.001,0,5.431,2.429,5.431,5.429C304.925,145.312,302.495,147.742,299.494,147.742z"/>
	</g>
</g>
</svg>
