<?xml version="1.0" encoding="utf-8"?>
<!-- Generator: Adobe Illustrator 16.0.0, SVG Export Plug-In . SVG Version: 6.00 Build 0)  -->
<!DOCTYPE svg PUBLIC "-//W3C//DTD SVG 1.1//EN" "http://www.w3.org/Graphics/SVG/1.1/DTD/svg11.dtd">
<svg version="1.1" id="Layer_1" xmlns="http://www.w3.org/2000/svg" xmlns:xlink="http://www.w3.org/1999/xlink" x="0px" y="0px"
	 width="566.929px" height="566.929px" viewBox="0 0 566.929 566.929" enable-background="new 0 0 566.929 566.929"
	 xml:space="preserve">
<g>
	<g>
		<path fill="#394F61" d="M442.502,527.997c-52.961,0-96.039-43.08-96.039-96.04c0-52.959,43.078-96.038,96.039-96.038
			s96.039,43.079,96.039,96.038C538.541,484.917,495.463,527.997,442.502,527.997z M442.502,351.923
			c-44.127,0-80.029,35.906-80.029,80.034c0,44.128,35.902,80.033,80.029,80.033c44.131,0,80.033-35.905,80.033-80.033
			C522.535,387.829,486.633,351.923,442.502,351.923z"/>
		<path fill="#9FCA3B" d="M442.566,486.213c-2.809,3.417-7.846,3.909-11.266,1.1l-37.096-30.49
			c-3.418-2.811-3.912-7.847-1.104-11.263c2.811-3.418,7.85-3.912,11.268-1.102l37.098,30.49
			C444.883,477.758,445.377,482.794,442.566,486.213z"/>
		<path fill="#9FCA3B" d="M500.063,416.412l-57.496,69.801c-2.809,3.417-7.846,3.909-11.266,1.1c-3.418-2.81-3.91-7.845-1.1-11.263
			l57.496-69.802c2.805-3.416,7.844-3.911,11.262-1.1C502.377,407.957,502.871,412.995,500.063,416.412z"/>
		<path fill="#9FCA3B" d="M282.438,527.997c-17.656,0-32.014-14.357-32.014-32.014c0-17.653,14.357-32.013,32.014-32.013
			s32.014,14.36,32.014,32.013C314.451,513.64,300.094,527.997,282.438,527.997z M282.438,479.976
			c-8.824,0-16.006,7.184-16.006,16.006c0,8.825,7.182,16.007,16.006,16.007s16.008-7.183,16.008-16.007
			C298.445,487.16,291.262,479.976,282.438,479.976z"/>
		<path fill="#394F61" d="M330.459,455.966H154.385c-4.426,0-8-3.578-8-8.003c0-4.424,3.574-8.002,8-8.002h176.074
			c4.42,0,8.002,3.578,8.002,8.002C338.461,452.388,334.879,455.966,330.459,455.966z"/>
		<path fill="#394F61" d="M383.23,552.007H181.648c-19.449,0-35.264-15.818-35.264-35.266V107.067
			c0-19.438,15.814-35.257,35.264-35.257H383.23c19.445,0,35.264,15.819,35.264,35.257v204.841c0,4.422-3.58,8.003-8.004,8.003
			c-4.426,0-8.002-3.581-8.002-8.003V107.067c0-10.614-8.637-19.25-19.258-19.25H181.648c-10.625,0-19.258,8.636-19.258,19.25
			v409.674c0,10.624,8.633,19.258,19.258,19.258H383.23c4.42,0,8.004,3.58,8.004,8.005
			C391.234,548.427,387.65,552.007,383.23,552.007z"/>
		<path fill="#394F61" d="M410.49,135.835H154.385c-4.426,0-8-3.579-8-8.001c0-4.425,3.574-8.005,8-8.005H410.49
			c4.424,0,8.004,3.58,8.004,8.005C418.494,132.256,414.914,135.835,410.49,135.835z"/>
		<path fill="#9FCA3B" d="M282.438,111.826h-32.014c-4.424,0-8.004-3.581-8.004-8.004c0-4.424,3.58-8.002,8.004-8.002h32.014
			c4.424,0,8.002,3.578,8.002,8.002C290.439,108.246,286.861,111.826,282.438,111.826z"/>
		<path fill="#9FCA3B" d="M314.451,111.826h-8.006c-4.42,0-8-3.581-8-8.004c0-4.424,3.58-8.002,8-8.002h8.006
			c4.424,0,8.002,3.578,8.002,8.002C322.453,108.246,318.875,111.826,314.451,111.826z"/>
	</g>
	<g>
		<path fill="#9FCA3B" d="M381.582,56.261l-1.867-1.031c-9.008-4.984-14.176-12.476-14.176-20.553
			c0-8.077,5.168-15.569,14.174-20.553l1.869-1.031l1.865,1.031c9.008,4.983,14.174,12.476,14.174,20.553
			c0,8.078-5.166,15.569-14.17,20.553L381.582,56.261z M381.582,17.674c-7.65,4.253-12.031,10.449-12.031,17.003
			c0,6.555,4.381,12.749,12.031,17.003c7.646-4.253,12.029-10.449,12.029-17.003C393.611,28.123,389.229,21.929,381.582,17.674z"/>
		<path fill="#394F61" d="M381.582,76.024c-1.109,0-2.006-0.897-2.006-2.004V41.942c0-1.107,0.896-2.005,2.006-2.005
			c1.107,0,2.002,0.898,2.002,2.005V74.02C383.584,75.127,382.689,76.024,381.582,76.024z"/>
		<path fill="#394F61" d="M381.582,43.946c-0.514,0-1.027-0.195-1.42-0.587l-6.012-6.014c-0.785-0.782-0.785-2.052,0-2.834
			c0.781-0.783,2.051-0.783,2.834,0l6.014,6.015c0.783,0.783,0.783,2.052,0,2.834C382.607,43.751,382.092,43.946,381.582,43.946z"/>
		<path fill="#394F61" d="M381.582,43.946c-0.514,0-1.027-0.195-1.42-0.587c-0.781-0.782-0.781-2.051,0-2.834l6.018-6.015
			c0.783-0.783,2.051-0.783,2.832,0c0.785,0.783,0.785,2.052,0,2.834l-6.014,6.014C382.607,43.751,382.092,43.946,381.582,43.946z"
			/>
		<path fill="#394F61" d="M381.582,43.946c-1.109,0-2.006-0.897-2.006-2.004V31.917c0-1.106,0.896-2.005,2.006-2.005
			c1.107,0,2.002,0.898,2.002,2.005v10.024C383.584,43.049,382.689,43.946,381.582,43.946z"/>
		<path fill="#9FCA3B" d="M353.875,67.959l-1.561-0.862c-7.535-4.169-11.857-10.436-11.857-17.192
			c0-6.757,4.322-13.024,11.857-17.192l1.561-0.863l1.561,0.863c7.535,4.168,11.857,10.435,11.857,17.192
			c0,6.756-4.322,13.023-11.857,17.19L353.875,67.959z M353.875,35.682c-6.398,3.559-10.064,8.74-10.064,14.223
			s3.666,10.664,10.064,14.222c6.396-3.558,10.063-8.739,10.063-14.222S360.271,39.241,353.875,35.682z"/>
		<path fill="#394F61" d="M353.875,84.49c-0.928,0-1.678-0.751-1.678-1.677V55.982c0-0.926,0.75-1.677,1.678-1.677
			s1.676,0.751,1.676,1.677v26.832C355.551,83.739,354.803,84.49,353.875,84.49z"/>
		<path fill="#394F61" d="M353.875,57.659c-0.432,0-0.859-0.165-1.186-0.492l-5.031-5.03c-0.656-0.656-0.656-1.716,0-2.371
			c0.654-0.655,1.717-0.655,2.371,0l5.029,5.03c0.658,0.654,0.658,1.716,0,2.371C354.732,57.495,354.303,57.659,353.875,57.659z"/>
		<path fill="#394F61" d="M353.875,57.659c-0.432,0-0.859-0.165-1.186-0.492c-0.656-0.654-0.656-1.717,0-2.371l5.031-5.03
			c0.656-0.655,1.717-0.655,2.371,0c0.654,0.655,0.654,1.715,0,2.371l-5.033,5.03C354.732,57.495,354.303,57.659,353.875,57.659z"/>
		<path fill="#394F61" d="M353.875,57.659c-0.928,0-1.678-0.751-1.678-1.677v-8.385c0-0.926,0.75-1.677,1.678-1.677
			s1.676,0.751,1.676,1.677v8.385C355.551,56.908,354.803,57.659,353.875,57.659z"/>
	</g>
</g>
</svg>
