<?xml version="1.0" encoding="utf-8"?>
<!-- Generator: Adobe Illustrator 16.0.0, SVG Export Plug-In . SVG Version: 6.00 Build 0)  -->
<!DOCTYPE svg PUBLIC "-//W3C//DTD SVG 1.1//EN" "http://www.w3.org/Graphics/SVG/1.1/DTD/svg11.dtd">
<svg version="1.1" id="Layer_1" xmlns="http://www.w3.org/2000/svg" xmlns:xlink="http://www.w3.org/1999/xlink" x="0px" y="0px"
	 width="566.929px" height="566.929px" viewBox="0 0 566.929 566.929" enable-background="new 0 0 566.929 566.929"
	 xml:space="preserve">
<g>
	<g>
		<path fill="#394F61" d="M126.944,513.121c-3.463,0-6.262-2.801-6.262-6.26V400.425c0-3.461,2.799-6.261,6.262-6.261
			c3.457,0,6.259,2.8,6.259,6.261V506.86C133.203,510.319,130.401,513.121,126.944,513.121z"/>
		<path fill="#9FCA3B" d="M439.987,513.121c-3.459,0-6.262-2.801-6.262-6.26V400.425c0-3.461,2.803-6.261,6.262-6.261
			c3.463,0,6.262,2.8,6.262,6.261V506.86C446.249,510.319,443.45,513.121,439.987,513.121z"/>
		<path fill="#394F61" d="M151.985,463.034c-3.461,0-6.262-2.801-6.262-6.26v-56.349c0-3.461,2.801-6.261,6.262-6.261
			s6.26,2.8,6.26,6.261v56.349C158.245,460.232,155.446,463.034,151.985,463.034z"/>
		<path fill="#394F61" d="M170.769,463.034c-3.459,0-6.262-2.801-6.262-6.26v-56.349c0-3.461,2.803-6.261,6.262-6.261
			c3.46,0,6.262,2.8,6.262,6.261v56.349C177.03,460.232,174.229,463.034,170.769,463.034z"/>
		<path fill="#9FCA3B" d="M202.073,463.034c-3.463,0-6.262-2.801-6.262-6.26v-56.349c0-3.461,2.799-6.261,6.262-6.261
			c3.461,0,6.26,2.8,6.26,6.261v56.349C208.333,460.232,205.534,463.034,202.073,463.034z"/>
		<path fill="#394F61" d="M220.856,463.034c-3.461,0-6.262-2.801-6.262-6.26v-56.349c0-3.461,2.801-6.261,6.262-6.261
			c3.458,0,6.262,2.8,6.262,6.261v56.349C227.118,460.232,224.314,463.034,220.856,463.034z"/>
		<path fill="#394F61" d="M239.639,463.034c-3.46,0-6.262-2.801-6.262-6.26v-56.349c0-3.461,2.802-6.261,6.262-6.261
			s6.262,2.8,6.262,6.261v56.349C245.9,460.232,243.099,463.034,239.639,463.034z"/>
		<path fill="#9FCA3B" d="M277.204,463.034c-3.461,0-6.262-2.801-6.262-6.26v-56.349c0-3.461,2.801-6.261,6.262-6.261
			c3.46,0,6.259,2.8,6.259,6.261v56.349C283.463,460.232,280.664,463.034,277.204,463.034z"/>
		<path fill="#9FCA3B" d="M308.507,463.034c-3.458,0-6.26-2.801-6.26-6.26v-56.349c0-3.461,2.802-6.261,6.26-6.261
			c3.463,0,6.262,2.8,6.262,6.261v56.349C314.769,460.232,311.97,463.034,308.507,463.034z"/>
		<path fill="#394F61" d="M327.292,463.034c-3.463,0-6.262-2.801-6.262-6.26v-56.349c0-3.461,2.799-6.261,6.262-6.261
			c3.461,0,6.259,2.8,6.259,6.261v56.349C333.551,460.232,330.753,463.034,327.292,463.034z"/>
		<path fill="#9FCA3B" d="M358.595,463.034c-3.461,0-6.259-2.801-6.259-6.26v-56.349c0-3.461,2.798-6.261,6.259-6.261
			s6.262,2.8,6.262,6.261v56.349C364.856,460.232,362.056,463.034,358.595,463.034z"/>
		<path fill="#394F61" d="M377.38,463.034c-3.463,0-6.262-2.801-6.262-6.26v-56.349c0-3.461,2.799-6.261,6.262-6.261
			c3.459,0,6.26,2.8,6.26,6.261v56.349C383.64,460.232,380.839,463.034,377.38,463.034z"/>
		<path fill="#394F61" d="M414.942,463.034c-3.458,0-6.262-2.801-6.262-6.26v-56.349c0-3.461,2.804-6.261,6.262-6.261
			c3.463,0,6.262,2.8,6.262,6.261v56.349C421.204,460.232,418.405,463.034,414.942,463.034z"/>
		<path fill="#394F61" d="M126.944,369.122c-3.463,0-6.262-2.801-6.262-6.262v-87.653c0-3.457,2.799-6.26,6.262-6.26
			c3.457,0,6.259,2.804,6.259,6.26v87.653C133.203,366.32,130.401,369.122,126.944,369.122z"/>
		<path fill="#394F61" d="M439.987,369.122c-3.459,0-6.262-2.801-6.262-6.262v-87.653c0-3.457,2.803-6.26,6.262-6.26
			c3.463,0,6.262,2.804,6.262,6.26v87.653C446.249,366.32,443.45,369.122,439.987,369.122z"/>
		<path fill="#9FCA3B" d="M151.985,369.122c-3.461,0-6.262-2.801-6.262-6.262v-87.653c0-3.457,2.801-6.26,6.262-6.26
			s6.26,2.804,6.26,6.26v87.653C158.245,366.32,155.446,369.122,151.985,369.122z"/>
		<path fill="#394F61" d="M170.769,369.122c-3.459,0-6.262-2.801-6.262-6.262v-87.653c0-3.457,2.803-6.26,6.262-6.26
			c3.46,0,6.262,2.804,6.262,6.26v87.653C177.03,366.32,174.229,369.122,170.769,369.122z"/>
		<path fill="#394F61" d="M202.073,369.122c-3.463,0-6.262-2.801-6.262-6.262v-87.653c0-3.457,2.799-6.26,6.262-6.26
			c3.461,0,6.26,2.804,6.26,6.26v87.653C208.333,366.32,205.534,369.122,202.073,369.122z"/>
		<path fill="#394F61" d="M220.856,369.122c-3.461,0-6.262-2.801-6.262-6.262v-87.653c0-3.457,2.801-6.26,6.262-6.26
			c3.458,0,6.262,2.804,6.262,6.26v87.653C227.118,366.32,224.314,369.122,220.856,369.122z"/>
		<path fill="#9FCA3B" d="M239.639,369.122c-3.46,0-6.262-2.801-6.262-6.262v-87.653c0-3.457,2.802-6.26,6.262-6.26
			s6.262,2.804,6.262,6.26v87.653C245.9,366.32,243.099,369.122,239.639,369.122z"/>
		<path fill="#394F61" d="M277.204,369.122c-3.461,0-6.262-2.801-6.262-6.262v-87.653c0-3.457,2.801-6.26,6.262-6.26
			c3.46,0,6.259,2.804,6.259,6.26v87.653C283.463,366.32,280.664,369.122,277.204,369.122z"/>
		<path fill="#394F61" d="M308.507,369.122c-3.458,0-6.26-2.801-6.26-6.262v-87.653c0-3.457,2.802-6.26,6.26-6.26
			c3.463,0,6.262,2.804,6.262,6.26v87.653C314.769,366.32,311.97,369.122,308.507,369.122z"/>
		<path fill="#9FCA3B" d="M327.292,369.122c-3.463,0-6.262-2.801-6.262-6.262v-87.653c0-3.457,2.799-6.26,6.262-6.26
			c3.461,0,6.259,2.804,6.259,6.26v87.653C333.551,366.32,330.753,369.122,327.292,369.122z"/>
		<path fill="#394F61" d="M358.595,369.122c-3.461,0-6.259-2.801-6.259-6.262v-87.653c0-3.457,2.798-6.26,6.259-6.26
			s6.262,2.804,6.262,6.26v87.653C364.856,366.32,362.056,369.122,358.595,369.122z"/>
		<path fill="#394F61" d="M377.38,369.122c-3.463,0-6.262-2.801-6.262-6.262v-87.653c0-3.457,2.799-6.26,6.262-6.26
			c3.459,0,6.26,2.804,6.26,6.26v87.653C383.64,366.32,380.839,369.122,377.38,369.122z"/>
		<path fill="#9FCA3B" d="M414.942,369.122c-3.458,0-6.262-2.801-6.262-6.262v-87.653c0-3.457,2.804-6.26,6.262-6.26
			c3.463,0,6.262,2.804,6.262,6.26v87.653C421.204,366.32,418.405,369.122,414.942,369.122z"/>
		<path fill="#394F61" d="M151.985,500.599c-3.461,0-6.262-2.798-6.262-6.261v-6.262c0-3.46,2.801-6.259,6.262-6.259
			s6.26,2.798,6.26,6.259v6.262C158.245,497.8,155.446,500.599,151.985,500.599z"/>
		<path fill="#9FCA3B" d="M170.769,500.599c-3.459,0-6.262-2.798-6.262-6.261v-6.262c0-3.46,2.803-6.259,6.262-6.259
			c3.46,0,6.262,2.798,6.262,6.259v6.262C177.03,497.8,174.229,500.599,170.769,500.599z"/>
		<path fill="#9FCA3B" d="M189.55,500.599c-3.457,0-6.262-2.798-6.262-6.261v-6.262c0-3.46,2.805-6.259,6.262-6.259
			c3.464,0,6.262,2.798,6.262,6.259v6.262C195.812,497.8,193.014,500.599,189.55,500.599z"/>
		<path fill="#394F61" d="M208.333,500.599c-3.461,0-6.26-2.798-6.26-6.261v-6.262c0-3.46,2.799-6.259,6.26-6.259
			c3.463,0,6.262,2.798,6.262,6.259v6.262C214.595,497.8,211.796,500.599,208.333,500.599z"/>
		<path fill="#9FCA3B" d="M227.118,500.599c-3.463,0-6.262-2.798-6.262-6.261v-6.262c0-3.46,2.799-6.259,6.262-6.259
			c3.458,0,6.259,2.798,6.259,6.259v6.262C233.377,497.8,230.576,500.599,227.118,500.599z"/>
		<path fill="#394F61" d="M245.9,500.599c-3.46,0-6.262-2.798-6.262-6.261v-6.262c0-3.46,2.802-6.259,6.262-6.259
			c3.458,0,6.262,2.798,6.262,6.259v6.262C252.162,497.8,249.358,500.599,245.9,500.599z"/>
		<path fill="#9FCA3B" d="M264.683,500.599c-3.461,0-6.262-2.798-6.262-6.261v-6.262c0-3.46,2.801-6.259,6.262-6.259
			s6.26,2.798,6.26,6.259v6.262C270.942,497.8,268.144,500.599,264.683,500.599z"/>
		<path fill="#9FCA3B" d="M283.463,500.599c-3.458,0-6.259-2.798-6.259-6.261v-6.262c0-3.46,2.801-6.259,6.259-6.259
			c3.463,0,6.262,2.798,6.262,6.259v6.262C289.725,497.8,286.926,500.599,283.463,500.599z"/>
		<path fill="#394F61" d="M302.247,500.599c-3.46,0-6.262-2.798-6.262-6.261v-6.262c0-3.46,2.802-6.259,6.262-6.259
			c3.461,0,6.26,2.798,6.26,6.259v6.262C308.507,497.8,305.708,500.599,302.247,500.599z"/>
		<path fill="#9FCA3B" d="M321.03,500.599c-3.458,0-6.262-2.798-6.262-6.261v-6.262c0-3.46,2.804-6.259,6.262-6.259
			c3.461,0,6.262,2.798,6.262,6.259v6.262C327.292,497.8,324.491,500.599,321.03,500.599z"/>
		<path fill="#394F61" d="M339.813,500.599c-3.46,0-6.262-2.798-6.262-6.261v-6.262c0-3.46,2.802-6.259,6.262-6.259
			c3.464,0,6.262,2.798,6.262,6.259v6.262C346.074,497.8,343.276,500.599,339.813,500.599z"/>
		<path fill="#394F61" d="M358.595,500.599c-3.461,0-6.259-2.798-6.259-6.261v-6.262c0-3.46,2.798-6.259,6.259-6.259
			s6.262,2.798,6.262,6.259v6.262C364.856,497.8,362.056,500.599,358.595,500.599z"/>
		<path fill="#9FCA3B" d="M380.924,497.054c-3.464,0-9.806,0.747-9.806-2.716v-6.262c0-3.46,2.799-6.259,6.262-6.259
			c3.459,0,6.26,2.798,6.26,6.259v6.262C383.64,497.8,384.382,497.054,380.924,497.054z"/>
		<path fill="#394F61" d="M396.163,500.599c-3.461,0-6.262-2.798-6.262-6.261v-6.262c0-3.46,2.801-6.259,6.262-6.259
			c3.457,0,6.259,2.798,6.259,6.259v6.262C402.422,497.8,399.62,500.599,396.163,500.599z"/>
		<path fill="#9FCA3B" d="M418.485,497.054c-3.457,0-9.805,0.747-9.805-2.716v-6.262c0-3.46,2.804-6.259,6.262-6.259
			c12.914,0,6.262-6.654,6.262,6.259v6.262C421.204,497.8,421.949,497.054,418.485,497.054z"/>
		<path fill="#394F61" d="M145.724,550.686H95.638V506.86c0-3.461,2.799-6.262,6.262-6.262c3.459,0,6.26,2.801,6.26,6.262v31.304
			h37.564c3.461,0,6.262,2.8,6.262,6.262C151.985,547.887,149.185,550.686,145.724,550.686z"/>
		<path fill="#394F61" d="M471.292,550.686h-43.826c-3.461,0-6.262-2.798-6.262-6.259c0-3.462,2.801-6.262,6.262-6.262h31.303
			V506.86c0-3.461,2.802-6.262,6.262-6.262c3.464,0,6.262,2.801,6.262,6.262V550.686z"/>
		<path fill="#394F61" d="M465.03,281.468c-3.46,0-6.262-2.804-6.262-6.262v-31.303h-37.564c-3.458,0-6.262-2.804-6.262-6.262
			s2.804-6.26,6.262-6.26h50.088v43.825C471.292,278.665,468.494,281.468,465.03,281.468z"/>
		<path fill="#394F61" d="M101.899,281.468c-3.463,0-6.262-2.804-6.262-6.262v-43.825h43.827c3.46,0,6.259,2.802,6.259,6.26
			s-2.799,6.262-6.259,6.262h-31.306v31.303C108.159,278.665,105.358,281.468,101.899,281.468z"/>
		<path fill="#394F61" d="M465.03,387.902H101.899c-3.463,0-6.262-2.8-6.262-6.26s2.799-6.262,6.262-6.262H465.03
			c3.464,0,6.262,2.801,6.262,6.262S468.494,387.902,465.03,387.902z"/>
	</g>
	<g>
		<path fill="#394F61" d="M394.933,222.258H218.854l91.938-175.521l88.324,168.608c0.773,1.477,0.723,3.209-0.141,4.635
			C398.11,221.407,396.601,222.258,394.933,222.258z M231.7,214.484H389.89L310.792,63.493L231.7,214.484z"/>
		<path fill="#394F61" d="M326.345,122.804l-7.775-7.774l-7.773,7.774l-7.773-7.774l-7.773,7.774l-15.943-15.944l31.49-60.123
			l31.492,60.123L326.345,122.804z M318.569,104.036l7.775,7.774l6.406-6.404l-21.955-41.914l-21.955,41.914l6.408,6.404
			l7.773-7.774l7.773,7.774L318.569,104.036z"/>
		<path fill="#394F61" d="M227.636,222.258h-58.462l-1.404-2.233c-0.741-1.378-0.657-3.042,0.208-4.341l44.85-68.777
			c3.984-6.108,10.724-9.755,18.026-9.755c6.427,0,12.466,2.845,16.563,7.804l12.674,15.343L227.636,222.258z M178.04,214.484
			h44.887l27.879-53.218l-9.385-11.359c-2.615-3.166-6.467-4.981-10.567-4.981c-4.665,0-8.97,2.328-11.513,6.228L178.04,214.484z"/>
		<path fill="#9FCA3B" d="M217.508,78.437c-17.148,0-31.098-13.949-31.098-31.096c0-17.146,13.949-31.096,31.098-31.096
			c17.146,0,31.095,13.951,31.095,31.096C248.603,64.487,234.653,78.437,217.508,78.437z M217.508,24.019
			c-12.861,0-23.323,10.461-23.323,23.322c0,12.861,10.462,23.323,23.323,23.323c12.86,0,23.321-10.462,23.321-23.323
			C240.829,34.479,230.368,24.019,217.508,24.019z"/>
		<path fill="#9FCA3B" d="M279.7,222.258c-2.149,0-3.888-1.741-3.888-3.888v-69.006c0-2.147,1.738-3.886,3.888-3.886
			c2.148,0,3.887,1.739,3.887,3.886v69.006C283.587,220.518,281.849,222.258,279.7,222.258z"/>
		<path fill="#9FCA3B" d="M264.151,167.84c-2.149,0-3.888-1.741-3.888-3.888c0-2.146,1.738-3.886,3.888-3.886
			c6.43,0,11.661-5.231,11.661-11.662c0-2.147,1.738-3.887,3.888-3.887c2.148,0,3.887,1.74,3.887,3.887
			C283.587,159.119,274.868,167.84,264.151,167.84z"/>
		<path fill="#9FCA3B" d="M256.377,191.162c-2.147,0-3.886-1.741-3.886-3.888c0-2.147,1.738-3.887,3.886-3.887
			c10.716,0,19.436-8.718,19.436-19.436c0-2.146,1.738-3.886,3.888-3.886c2.148,0,3.887,1.74,3.887,3.886
			C283.587,178.957,271.38,191.162,256.377,191.162z"/>
		<path fill="#9FCA3B" d="M248.603,214.484c-2.146,0-3.885-1.741-3.885-3.887c0-2.146,1.738-3.888,3.885-3.888
			c15.003,0,27.21-12.206,27.21-27.209c0-2.146,1.738-3.887,3.888-3.887c2.148,0,3.887,1.741,3.887,3.887
			C283.587,198.79,267.896,214.484,248.603,214.484z"/>
		<path fill="#9FCA3B" d="M295.249,167.84c-10.719,0-19.437-8.721-19.437-19.437c0-2.147,1.738-3.887,3.888-3.887
			c2.148,0,3.887,1.74,3.887,3.887c0,6.431,5.23,11.662,11.662,11.662c2.148,0,3.887,1.74,3.887,3.886
			C299.136,166.099,297.397,167.84,295.249,167.84z"/>
		<path fill="#9FCA3B" d="M303.022,191.162c-15.002,0-27.21-12.206-27.21-27.21c0-2.146,1.738-3.886,3.888-3.886
			c2.148,0,3.887,1.74,3.887,3.886c0,10.717,8.72,19.436,19.436,19.436c2.149,0,3.888,1.74,3.888,3.887
			C306.91,189.421,305.172,191.162,303.022,191.162z"/>
		<path fill="#9FCA3B" d="M310.796,214.484c-19.291,0-34.983-15.694-34.983-34.984c0-2.146,1.738-3.887,3.888-3.887
			c2.148,0,3.887,1.741,3.887,3.887c0,15.004,12.207,27.209,27.209,27.209c2.148,0,3.887,1.741,3.887,3.888
			C314.683,212.743,312.944,214.484,310.796,214.484z"/>
		<path fill="#9FCA3B" d="M341.893,222.258c-2.149,0-3.888-1.741-3.888-3.888v-69.006c0-2.147,1.738-3.886,3.888-3.886
			c2.148,0,3.887,1.739,3.887,3.886v69.006C345.779,220.518,344.041,222.258,341.893,222.258z"/>
		<path fill="#9FCA3B" d="M326.345,167.84c-2.147,0-3.889-1.741-3.889-3.888c0-2.146,1.741-3.886,3.889-3.886
			c6.43,0,11.66-5.231,11.66-11.662c0-2.147,1.738-3.887,3.888-3.887c2.148,0,3.887,1.74,3.887,3.887
			C345.779,159.119,337.062,167.84,326.345,167.84z"/>
		<path fill="#9FCA3B" d="M318.569,191.162c-2.148,0-3.887-1.741-3.887-3.888c0-2.147,1.738-3.887,3.887-3.887
			c10.717,0,19.436-8.718,19.436-19.436c0-2.146,1.738-3.886,3.888-3.886c2.148,0,3.887,1.74,3.887,3.886
			C345.779,178.957,333.572,191.162,318.569,191.162z"/>
		<path fill="#9FCA3B" d="M310.796,214.484c-2.147,0-3.886-1.741-3.886-3.887c0-2.146,1.738-3.888,3.886-3.888
			c15.002,0,27.209-12.206,27.209-27.209c0-2.146,1.738-3.887,3.888-3.887c2.148,0,3.887,1.741,3.887,3.887
			C345.779,198.79,330.088,214.484,310.796,214.484z"/>
		<path fill="#9FCA3B" d="M357.441,167.84c-10.716,0-19.437-8.721-19.437-19.437c0-2.147,1.738-3.887,3.888-3.887
			c2.148,0,3.887,1.74,3.887,3.887c0,6.431,5.231,11.662,11.662,11.662c2.148,0,3.887,1.74,3.887,3.886
			C361.328,166.099,359.59,167.84,357.441,167.84z"/>
		<path fill="#9FCA3B" d="M365.215,191.162c-15.001,0-27.21-12.206-27.21-27.21c0-2.146,1.738-3.886,3.888-3.886
			c2.148,0,3.887,1.74,3.887,3.886c0,10.717,8.72,19.436,19.436,19.436c2.149,0,3.888,1.74,3.888,3.887
			C369.103,189.421,367.364,191.162,365.215,191.162z"/>
		<path fill="#9FCA3B" d="M372.989,214.484c-19.291,0-34.984-15.694-34.984-34.984c0-2.146,1.738-3.887,3.888-3.887
			c2.148,0,3.887,1.741,3.887,3.887c0,15.004,12.207,27.209,27.21,27.209c2.148,0,3.887,1.741,3.887,3.888
			C376.876,212.743,375.138,214.484,372.989,214.484z"/>
		<path fill="#394F61" d="M366.769,79.994c-2.149,0-3.888-1.741-3.888-3.888c0-9.43-7.671-17.103-17.102-17.103
			c-2.147,0-3.887-1.741-3.887-3.888s1.739-3.888,3.887-3.888c13.716,0,24.874,11.16,24.874,24.878
			C370.653,78.252,368.915,79.994,366.769,79.994z"/>
		<path fill="#394F61" d="M366.769,79.994c-2.149,0-3.888-1.741-3.888-3.888c0-9.858,8.021-17.882,17.883-17.882
			c2.149,0,3.888,1.741,3.888,3.888c0,2.146-1.738,3.887-3.888,3.887c-5.573,0-10.11,4.535-10.11,10.108
			C370.653,78.252,368.915,79.994,366.769,79.994z"/>
	</g>
</g>
</svg>
